<svg width="20" height="20" viewBox="0 0 20 20" fill="none" xmlns="http://www.w3.org/2000/svg">
<g id="Frame">
<path id="Vector" d="M0 2.94466C0 2.48286 0.371528 2.11133 0.833333 2.11133H2.41319C3.17708 2.11133 3.85417 2.55577 4.17014 3.22244H18.441C19.3542 3.22244 20.0208 4.09049 19.7813 4.97244L18.3576 10.2606C18.0625 11.3509 17.0729 12.1113 15.9444 12.1113H5.92708L6.11458 13.1009C6.19097 13.4933 6.53472 13.778 6.93403 13.778H16.9444C17.4062 13.778 17.7778 14.1495 17.7778 14.6113C17.7778 15.0731 17.4062 15.4447 16.9444 15.4447H6.93403C5.73264 15.4447 4.70139 14.5905 4.47917 13.4134L2.6875 4.00369C2.66319 3.87174 2.54861 3.77799 2.41319 3.77799H0.833333C0.371528 3.77799 0 3.40647 0 2.94466ZM4.44444 18.2224C4.44444 18.0036 4.48755 17.7868 4.57131 17.5846C4.65507 17.3824 4.77784 17.1987 4.9326 17.0439C5.08736 16.8892 5.2711 16.7664 5.47331 16.6826C5.67552 16.5989 5.89224 16.5558 6.11111 16.5558C6.32998 16.5558 6.54671 16.5989 6.74892 16.6826C6.95113 16.7664 7.13486 16.8892 7.28962 17.0439C7.44439 17.1987 7.56715 17.3824 7.65091 17.5846C7.73467 17.7868 7.77778 18.0036 7.77778 18.2224C7.77778 18.4413 7.73467 18.658 7.65091 18.8602C7.56715 19.0625 7.44439 19.2462 7.28962 19.401C7.13486 19.5557 6.95113 19.6785 6.74892 19.7622C6.54671 19.846 6.32998 19.8891 6.11111 19.8891C5.89224 19.8891 5.67552 19.846 5.47331 19.7622C5.2711 19.6785 5.08736 19.5557 4.9326 19.401C4.77784 19.2462 4.65507 19.0625 4.57131 18.8602C4.48755 18.658 4.44444 18.4413 4.44444 18.2224ZM16.1111 16.5558C16.5531 16.5558 16.9771 16.7314 17.2896 17.0439C17.6022 17.3565 17.7778 17.7804 17.7778 18.2224C17.7778 18.6645 17.6022 19.0884 17.2896 19.401C16.9771 19.7135 16.5531 19.8891 16.1111 19.8891C15.6691 19.8891 15.2452 19.7135 14.9326 19.401C14.62 19.0884 14.4444 18.6645 14.4444 18.2224C14.4444 17.7804 14.62 17.3565 14.9326 17.0439C15.2452 16.7314 15.6691 16.5558 16.1111 16.5558ZM8.75 7.66688C8.75 8.04883 9.0625 8.36133 9.44444 8.36133H10.9722V9.88911C10.9722 10.2711 11.2847 10.5836 11.6667 10.5836C12.0486 10.5836 12.3611 10.2711 12.3611 9.88911V8.36133H13.8889C14.2708 8.36133 14.5833 8.04883 14.5833 7.66688C14.5833 7.28494 14.2708 6.97244 13.8889 6.97244H12.3611V5.44466C12.3611 5.06272 12.0486 4.75022 11.6667 4.75022C11.2847 4.75022 10.9722 5.06272 10.9722 5.44466V6.97244H9.44444C9.0625 6.97244 8.75 7.28494 8.75 7.66688Z" fill="black" fill-opacity="0.87"/>
</g>
</svg>
