<svg width="35" height="31" viewBox="0 0 35 31" fill="none" xmlns="http://www.w3.org/2000/svg">
<g id="&#240;&#159;&#166;&#134; icon &#34;arrow ios forward&#34;">
<path id="Vector" d="M14.3903 24.4651C14.0541 24.4657 13.7282 24.3609 13.4693 24.169C13.3236 24.0609 13.2031 23.9281 13.1149 23.7783C13.0266 23.6285 12.9722 23.4646 12.9548 23.2959C12.9374 23.1272 12.9574 22.9572 13.0136 22.7955C13.0698 22.6337 13.1611 22.4835 13.2822 22.3534L19.7291 15.4516L13.5125 8.53691C13.3929 8.40519 13.3037 8.25364 13.2498 8.09096C13.196 7.92828 13.1785 7.75768 13.1986 7.58896C13.2187 7.42024 13.2758 7.25673 13.3667 7.10784C13.4576 6.95894 13.5805 6.82758 13.7283 6.72132C13.8772 6.6041 14.0516 6.51568 14.2405 6.46161C14.4294 6.40754 14.6287 6.389 14.826 6.40713C15.0233 6.42527 15.2142 6.4797 15.3869 6.567C15.5595 6.65431 15.7102 6.7726 15.8293 6.91447L22.7798 14.6404C22.9914 14.8708 23.1071 15.1598 23.1071 15.458C23.1071 15.7563 22.9914 16.0453 22.7798 16.2757L15.5847 24.0016C15.4403 24.1574 15.2569 24.2806 15.0494 24.3611C14.8419 24.4417 14.6161 24.4773 14.3903 24.4651Z" fill="#797777"/>
</g>
</svg>
