<svg width="20" height="20" viewBox="0 0 20 20" fill="none" xmlns="http://www.w3.org/2000/svg">
<g clip-path="url(#clip0_320_1271)">
<path d="M2.22222 2.22223C0.996528 2.22223 0 3.21876 0 4.44445V15.5556C0 16.7813 0.996528 17.7778 2.22222 17.7778H17.7778C19.0035 17.7778 20 16.7813 20 15.5556V4.44445C20 3.21876 19.0035 2.22223 17.7778 2.22223H2.22222ZM5 11.1111H7.22222C8.75694 11.1111 10 12.3542 10 13.8889C10 14.1945 9.75 14.4445 9.44444 14.4445H2.77778C2.47222 14.4445 2.22222 14.1945 2.22222 13.8889C2.22222 12.3542 3.46528 11.1111 5 11.1111ZM3.88889 7.77778C3.88889 7.18841 4.12302 6.62318 4.53976 6.20644C4.95651 5.78969 5.52174 5.55556 6.11111 5.55556C6.70048 5.55556 7.26571 5.78969 7.68246 6.20644C8.09921 6.62318 8.33333 7.18841 8.33333 7.77778C8.33333 8.36715 8.09921 8.93238 7.68246 9.34913C7.26571 9.76588 6.70048 10 6.11111 10C5.52174 10 4.95651 9.76588 4.53976 9.34913C4.12302 8.93238 3.88889 8.36715 3.88889 7.77778ZM12.7778 6.66667H17.2222C17.5278 6.66667 17.7778 6.91667 17.7778 7.22223C17.7778 7.52778 17.5278 7.77778 17.2222 7.77778H12.7778C12.4722 7.77778 12.2222 7.52778 12.2222 7.22223C12.2222 6.91667 12.4722 6.66667 12.7778 6.66667ZM12.7778 8.8889H17.2222C17.5278 8.8889 17.7778 9.1389 17.7778 9.44445C17.7778 9.75001 17.5278 10 17.2222 10H12.7778C12.4722 10 12.2222 9.75001 12.2222 9.44445C12.2222 9.1389 12.4722 8.8889 12.7778 8.8889ZM12.7778 11.1111H17.2222C17.5278 11.1111 17.7778 11.3611 17.7778 11.6667C17.7778 11.9722 17.5278 12.2222 17.2222 12.2222H12.7778C12.4722 12.2222 12.2222 11.9722 12.2222 11.6667C12.2222 11.3611 12.4722 11.1111 12.7778 11.1111Z" fill="white"/>
</g>
<defs>
<clipPath id="clip0_320_1271">
<rect width="20" height="20" fill="white"/>
</clipPath>
</defs>
</svg>
