<svg width="150" height="150" viewBox="0 0 150 150" fill="none" xmlns="http://www.w3.org/2000/svg">
<path d="M13.8047 24.8672C14.5078 23.4375 16.0547 22.6172 17.625 22.8281L75 30L132.375 22.8281C133.945 22.6406 135.492 23.4609 136.195 24.8672L145.969 44.4141C148.078 48.6094 145.828 53.6953 141.328 54.9844L103.031 65.9297C99.7735 66.8672 96.2813 65.4844 94.5469 62.5781L75 30L55.4531 62.5781C53.7188 65.4844 50.2266 66.8672 46.9688 65.9297L8.69533 54.9844C4.17189 53.6953 1.94533 48.6094 4.0547 44.4141L13.8047 24.8672ZM75.2578 45L88.125 66.4219C91.6172 72.2344 98.5781 75 105.117 73.125L135 64.5938V103.734C135 108.891 131.484 113.391 126.469 114.656L78.6328 126.609C76.2422 127.219 73.7344 127.219 71.3672 126.609L23.5313 114.656C18.5156 113.367 15 108.867 15 103.711V64.5703L44.9063 73.125C51.4219 75 58.4063 72.2344 61.8985 66.4219L74.7422 45H75.2578Z" fill="#797777" fill-opacity="0.69"/>
</svg>
