<svg width="22" height="22" viewBox="0 0 22 22" fill="none" xmlns="http://www.w3.org/2000/svg">
<g id="Frame">
<path id="Vector" d="M11.9227 2.12232L11.9234 2.12383L14.3119 7.17695L14.4257 7.41769L14.689 7.45763L20.0257 8.26716C20.0259 8.26718 20.026 8.26721 20.0262 8.26723C20.2776 8.30619 20.4952 8.48907 20.5806 8.7548C20.6652 9.01828 20.5948 9.30899 20.4067 9.50009L20.4065 9.50028L16.5359 13.4381L16.3578 13.6193L16.3991 13.87L17.3164 19.4336C17.3165 19.4338 17.3165 19.434 17.3165 19.4343C17.361 19.7105 17.2482 19.9864 17.0314 20.1486C16.8231 20.3043 16.5474 20.3237 16.3147 20.198C16.3144 20.1978 16.3141 20.1976 16.3137 20.1974L11.55 17.5823L11.3094 17.4502L11.0688 17.5823L6.30499 20.1974C6.30465 20.1976 6.3043 20.1978 6.30395 20.198C6.07412 20.3222 5.79658 20.3029 5.58467 20.1466C5.37203 19.9898 5.25726 19.7124 5.30223 19.434C5.30225 19.4338 5.30227 19.4337 5.3023 19.4336L6.21593 13.8696L6.25706 13.6192L6.07912 13.4381L2.20847 9.50028L2.20828 9.50009C2.02244 9.31124 1.95151 9.0199 2.03561 8.75114C2.11698 8.4911 2.33483 8.30659 2.58884 8.26723C2.58899 8.26721 2.58915 8.26718 2.5893 8.26716L7.92236 7.45762L8.18558 7.41766L8.29936 7.17695L10.687 2.12558C10.6872 2.1253 10.6873 2.12503 10.6874 2.12475C10.8084 1.87208 11.0492 1.72266 11.3056 1.72266C11.5647 1.72266 11.8065 1.87432 11.9227 2.12232Z" fill="white" stroke="#E2A508"/>
</g>
</svg>
