<svg width="82" height="67" viewBox="0 0 82 67" fill="none" xmlns="http://www.w3.org/2000/svg">
<g id="&#240;&#159;&#166;&#134; icon &#34;book&#34;">
<path id="Vector" fill-rule="evenodd" clip-rule="evenodd" d="M5.0673 9.79067V60.0735C9.71908 58.2999 15.7441 56.5669 21.7235 55.969C27.2671 55.4065 33.2668 55.7713 38.0047 58.4621V9.07618C34.6907 5.58482 28.9748 4.58656 22.2353 5.26558C15.9823 5.89392 9.55186 7.91577 5.0673 9.79067ZM43.072 9.07618V58.4621C47.81 55.7764 53.8147 55.4065 59.3533 55.9639C65.3327 56.572 71.3628 58.2999 76.0095 60.0735V9.79067C71.5249 7.91577 65.0945 5.89392 58.8415 5.26558C52.102 4.58656 46.3861 5.58482 43.072 9.07618ZM40.5384 4.49535C35.5471 0.203345 28.311 -0.435135 21.7235 0.223614C14.0516 0.998911 6.30879 3.62884 1.48472 5.82298C1.04208 6.02429 0.666731 6.34873 0.403463 6.75756C0.140195 7.16638 0.000134645 7.64234 0 8.1286L0 63.8689C0.000117369 64.2928 0.106601 64.7099 0.309699 65.082C0.512796 65.4541 0.806013 65.7693 1.16249 65.9987C1.51897 66.2282 1.92732 66.3645 2.35013 66.3952C2.77294 66.4259 3.19669 66.35 3.58258 66.1745C8.05194 64.1476 15.2526 61.7102 22.2302 61.0059C29.3701 60.2863 35.3545 61.4467 38.5621 65.4499C38.7995 65.7458 39.1004 65.9846 39.4424 66.1487C39.7845 66.3128 40.159 66.398 40.5384 66.398C40.9178 66.398 41.2923 66.3128 41.6343 66.1487C41.9764 65.9846 42.2772 65.7458 42.5146 65.4499C45.7222 61.4467 51.7067 60.2863 58.8415 61.0059C65.8242 61.7102 73.0299 64.1476 77.4942 66.1745C77.8801 66.35 78.3038 66.4259 78.7266 66.3952C79.1495 66.3645 79.5578 66.2282 79.9143 65.9987C80.2708 65.7693 80.564 65.4541 80.7671 65.082C80.9702 64.7099 81.0767 64.2928 81.0768 63.8689V8.1286C81.0766 7.64234 80.9366 7.16638 80.6733 6.75756C80.41 6.34873 80.0347 6.02429 79.5921 5.82298C74.768 3.62884 67.0252 0.998911 59.3533 0.223614C52.7658 -0.440202 45.5297 0.203345 40.5384 4.49535Z" fill="#E67817"/>
</g>
</svg>
