<svg width="40" height="40" viewBox="0 0 40 40" fill="none" xmlns="http://www.w3.org/2000/svg">
<path d="M35.6667 20C35.6667 16.7037 34.6892 13.4813 32.8578 10.7405C31.0265 7.99969 28.4235 5.86349 25.378 4.60203C22.3326 3.34056 18.9815 3.01051 15.7485 3.6536C12.5155 4.29668 9.54575 5.88403 7.21487 8.2149C4.884 10.5458 3.29665 13.5155 2.65357 16.7485C2.01048 19.9815 2.34053 23.3326 3.60199 26.3781C4.86346 29.4235 6.99966 32.0265 9.74048 33.8578C12.4813 35.6892 15.7036 36.6667 19 36.6667C23.4203 36.6667 27.6595 34.9107 30.7851 31.7851C33.9107 28.6595 35.6667 24.4203 35.6667 20ZM15.9 26.15L11.1333 21.15C11.0628 21.0777 11.0063 20.9929 10.9667 20.9C10.8959 20.8216 10.8395 20.7313 10.8 20.6334C10.7118 20.4339 10.6663 20.2181 10.6663 20C10.6663 19.7819 10.7118 19.5662 10.8 19.3667C10.8793 19.1621 10.9983 18.9752 11.15 18.8167L16.15 13.8167C16.4638 13.5028 16.8895 13.3265 17.3333 13.3265C17.7772 13.3265 18.2028 13.5028 18.5167 13.8167C18.8305 14.1305 19.0068 14.5562 19.0068 15C19.0068 15.4439 18.8305 15.8695 18.5167 16.1834L16.35 18.3334H25.6667C26.1087 18.3334 26.5326 18.5089 26.8452 18.8215C27.1577 19.1341 27.3333 19.558 27.3333 20C27.3333 20.442 27.1577 20.866 26.8452 21.1785C26.5326 21.4911 26.1087 21.6667 25.6667 21.6667H16.2333L18.3167 23.85C18.6217 24.1705 18.7869 24.599 18.7759 25.0413C18.765 25.4835 18.5788 25.9034 18.2583 26.2084C17.9379 26.5134 17.5093 26.6786 17.0671 26.6676C16.6248 26.6567 16.205 26.4705 15.9 26.15Z" fill="white"/>
</svg>
