<svg width="152" height="152" viewBox="0 0 152 152" fill="none" xmlns="http://www.w3.org/2000/svg">
<path d="M76 152C96.1565 152 115.487 143.993 129.74 129.74C143.993 115.487 152 96.1565 152 76C152 55.8435 143.993 36.5126 129.74 22.2599C115.487 8.00712 96.1565 0 76 0C55.8435 0 36.5126 8.00712 22.2599 22.2599C8.00712 36.5126 0 55.8435 0 76C0 96.1565 8.00712 115.487 22.2599 129.74C36.5126 143.993 55.8435 152 76 152ZM109.547 62.0469L71.5469 100.047C68.7562 102.838 64.2438 102.838 61.4828 100.047L42.4828 81.0469C39.6922 78.2562 39.6922 73.7438 42.4828 70.9828C45.2734 68.2219 49.7859 68.1922 52.5469 70.9828L66.5 84.9359L99.4531 51.9531C102.244 49.1625 106.756 49.1625 109.517 51.9531C112.278 54.7438 112.308 59.2562 109.517 62.0172L109.547 62.0469Z" fill="white"/>
</svg>
