<svg width="47" height="58" viewBox="0 0 47 58" fill="none" xmlns="http://www.w3.org/2000/svg">
<path id="Vector" d="M23.5 0C18.3839 0 14.0266 3.02461 12.4232 7.25H7.83333C3.51276 7.25 0 10.5012 0 14.5V50.75C0 54.7488 3.51276 58 7.83333 58H39.1667C43.4872 58 47 54.7488 47 50.75V14.5C47 10.5012 43.4872 7.25 39.1667 7.25H34.5768C32.9734 3.02461 28.6161 0 23.5 0ZM23.5 7.25C24.5388 7.25 25.535 7.63192 26.2695 8.31174C27.004 8.99156 27.4167 9.91359 27.4167 10.875C27.4167 11.8364 27.004 12.7584 26.2695 13.4383C25.535 14.1181 24.5388 14.5 23.5 14.5C22.4612 14.5 21.465 14.1181 20.7305 13.4383C19.996 12.7584 19.5833 11.8364 19.5833 10.875C19.5833 9.91359 19.996 8.99156 20.7305 8.31174C21.465 7.63192 22.4612 7.25 23.5 7.25ZM8.8125 30.8125C8.8125 30.0914 9.12199 29.3999 9.67287 28.8901C10.2238 28.3802 10.9709 28.0938 11.75 28.0938C12.5291 28.0938 13.2762 28.3802 13.8271 28.8901C14.378 29.3999 14.6875 30.0914 14.6875 30.8125C14.6875 31.5336 14.378 32.2251 13.8271 32.7349C13.2762 33.2448 12.5291 33.5312 11.75 33.5312C10.9709 33.5312 10.2238 33.2448 9.67287 32.7349C9.12199 32.2251 8.8125 31.5336 8.8125 30.8125ZM21.5417 29H37.2083C38.2854 29 39.1667 29.8156 39.1667 30.8125C39.1667 31.8094 38.2854 32.625 37.2083 32.625H21.5417C20.4646 32.625 19.5833 31.8094 19.5833 30.8125C19.5833 29.8156 20.4646 29 21.5417 29ZM8.8125 41.6875C8.8125 40.9664 9.12199 40.2749 9.67287 39.7651C10.2238 39.2552 10.9709 38.9688 11.75 38.9688C12.5291 38.9688 13.2762 39.2552 13.8271 39.7651C14.378 40.2749 14.6875 40.9664 14.6875 41.6875C14.6875 42.4086 14.378 43.1001 13.8271 43.6099C13.2762 44.1198 12.5291 44.4062 11.75 44.4062C10.9709 44.4062 10.2238 44.1198 9.67287 43.6099C9.12199 43.1001 8.8125 42.4086 8.8125 41.6875ZM19.5833 41.6875C19.5833 40.6906 20.4646 39.875 21.5417 39.875H37.2083C38.2854 39.875 39.1667 40.6906 39.1667 41.6875C39.1667 42.6844 38.2854 43.5 37.2083 43.5H21.5417C20.4646 43.5 19.5833 42.6844 19.5833 41.6875Z" fill="#E67817"/>
</svg>
