<svg width="20" height="20" viewBox="0 0 20 20" fill="none" xmlns="http://www.w3.org/2000/svg">
<path d="M3.75 1.25C2.37109 1.25 1.25 2.37109 1.25 3.75V16.25C1.25 17.6289 2.37109 18.75 3.75 18.75H16.25C17.6289 18.75 18.75 17.6289 18.75 16.25V3.75C18.75 2.37109 17.6289 1.25 16.25 1.25H3.75ZM7.29297 5.02734C7.67188 4.92578 8.07031 5.11719 8.21875 5.48047L9 7.35547C9.13281 7.67578 9.03906 8.04297 8.77344 8.26172L7.8125 9.05078C8.46094 10.4258 9.57422 11.5391 10.9492 12.1875L11.7383 11.2227C11.957 10.957 12.3242 10.8633 12.6445 10.9961L14.5195 11.7773C14.8828 11.9297 15.0742 12.3242 14.9727 12.7031L14.5039 14.4219C14.4102 14.7656 14.1016 15 13.75 15C8.91797 15 5 11.082 5 6.25C5 5.89844 5.23438 5.58984 5.57422 5.49609L7.29297 5.02734Z" fill="white"/>
</svg>
