<svg width="25" height="25" viewBox="0 0 25 25" fill="none" xmlns="http://www.w3.org/2000/svg">
<path d="M19.8533 7.35352C20.4636 6.74316 20.4636 5.75195 19.8533 5.1416C19.2429 4.53125 18.2517 4.53125 17.6414 5.1416L12.4998 10.2881L7.35327 5.14648C6.74292 4.53613 5.75171 4.53613 5.14136 5.14648C4.53101 5.75684 4.53101 6.74805 5.14136 7.3584L10.2878 12.5L5.14624 17.6465C4.53589 18.2568 4.53589 19.248 5.14624 19.8584C5.75659 20.4688 6.7478 20.4688 7.35815 19.8584L12.4998 14.7119L17.6462 19.8535C18.2566 20.4639 19.2478 20.4639 19.8582 19.8535C20.4685 19.2432 20.4685 18.252 19.8582 17.6416L14.7117 12.5L19.8533 7.35352Z" fill="black"/>
</svg>
