<svg width="25" height="26" viewBox="0 0 25 26" fill="none" xmlns="http://www.w3.org/2000/svg">
<path d="M0 1.85714C0 1.3646 0.188137 0.892226 0.523023 0.543944C0.85791 0.195663 1.31211 0 1.78571 0H5.35714C5.83074 0 6.28495 0.195663 6.61983 0.543944C6.95472 0.892226 7.14286 1.3646 7.14286 1.85714V5.57143C7.14286 6.06397 6.95472 6.53634 6.61983 6.88463C6.28495 7.23291 5.83074 7.42857 5.35714 7.42857H1.78571C1.31211 7.42857 0.85791 7.23291 0.523023 6.88463C0.188137 6.53634 0 6.06397 0 5.57143V1.85714ZM8.92857 1.85714C8.92857 1.3646 9.11671 0.892226 9.4516 0.543944C9.78648 0.195663 10.2407 0 10.7143 0H14.2857C14.7593 0 15.2135 0.195663 15.5484 0.543944C15.8833 0.892226 16.0714 1.3646 16.0714 1.85714V5.57143C16.0714 6.06397 15.8833 6.53634 15.5484 6.88463C15.2135 7.23291 14.7593 7.42857 14.2857 7.42857H10.7143C10.2407 7.42857 9.78648 7.23291 9.4516 6.88463C9.11671 6.53634 8.92857 6.06397 8.92857 5.57143V1.85714ZM17.8571 1.85714C17.8571 1.3646 18.0453 0.892226 18.3802 0.543944C18.7151 0.195663 19.1693 0 19.6429 0H23.2143C23.6879 0 24.1421 0.195663 24.477 0.543944C24.8119 0.892226 25 1.3646 25 1.85714V5.57143C25 6.06397 24.8119 6.53634 24.477 6.88463C24.1421 7.23291 23.6879 7.42857 23.2143 7.42857H19.6429C19.1693 7.42857 18.7151 7.23291 18.3802 6.88463C18.0453 6.53634 17.8571 6.06397 17.8571 5.57143V1.85714ZM0 11.1429C0 10.6503 0.188137 10.1779 0.523023 9.82966C0.85791 9.48138 1.31211 9.28571 1.78571 9.28571H5.35714C5.83074 9.28571 6.28495 9.48138 6.61983 9.82966C6.95472 10.1779 7.14286 10.6503 7.14286 11.1429V14.8571C7.14286 15.3497 6.95472 15.8221 6.61983 16.1703C6.28495 16.5186 5.83074 16.7143 5.35714 16.7143H1.78571C1.31211 16.7143 0.85791 16.5186 0.523023 16.1703C0.188137 15.8221 0 15.3497 0 14.8571V11.1429ZM8.92857 11.1429C8.92857 10.6503 9.11671 10.1779 9.4516 9.82966C9.78648 9.48138 10.2407 9.28571 10.7143 9.28571H14.2857C14.7593 9.28571 15.2135 9.48138 15.5484 9.82966C15.8833 10.1779 16.0714 10.6503 16.0714 11.1429V14.8571C16.0714 15.3497 15.8833 15.8221 15.5484 16.1703C15.2135 16.5186 14.7593 16.7143 14.2857 16.7143H10.7143C10.2407 16.7143 9.78648 16.5186 9.4516 16.1703C9.11671 15.8221 8.92857 15.3497 8.92857 14.8571V11.1429ZM17.8571 11.1429C17.8571 10.6503 18.0453 10.1779 18.3802 9.82966C18.7151 9.48138 19.1693 9.28571 19.6429 9.28571H23.2143C23.6879 9.28571 24.1421 9.48138 24.477 9.82966C24.8119 10.1779 25 10.6503 25 11.1429V14.8571C25 15.3497 24.8119 15.8221 24.477 16.1703C24.1421 16.5186 23.6879 16.7143 23.2143 16.7143H19.6429C19.1693 16.7143 18.7151 16.5186 18.3802 16.1703C18.0453 15.8221 17.8571 15.3497 17.8571 14.8571V11.1429ZM0 20.4286C0 19.936 0.188137 19.4637 0.523023 19.1154C0.85791 18.7671 1.31211 18.5714 1.78571 18.5714H5.35714C5.83074 18.5714 6.28495 18.7671 6.61983 19.1154C6.95472 19.4637 7.14286 19.936 7.14286 20.4286V24.1429C7.14286 24.6354 6.95472 25.1078 6.61983 25.4561C6.28495 25.8043 5.83074 26 5.35714 26H1.78571C1.31211 26 0.85791 25.8043 0.523023 25.4561C0.188137 25.1078 0 24.6354 0 24.1429V20.4286ZM8.92857 20.4286C8.92857 19.936 9.11671 19.4637 9.4516 19.1154C9.78648 18.7671 10.2407 18.5714 10.7143 18.5714H14.2857C14.7593 18.5714 15.2135 18.7671 15.5484 19.1154C15.8833 19.4637 16.0714 19.936 16.0714 20.4286V24.1429C16.0714 24.6354 15.8833 25.1078 15.5484 25.4561C15.2135 25.8043 14.7593 26 14.2857 26H10.7143C10.2407 26 9.78648 25.8043 9.4516 25.4561C9.11671 25.1078 8.92857 24.6354 8.92857 24.1429V20.4286ZM17.8571 20.4286C17.8571 19.936 18.0453 19.4637 18.3802 19.1154C18.7151 18.7671 19.1693 18.5714 19.6429 18.5714H23.2143C23.6879 18.5714 24.1421 18.7671 24.477 19.1154C24.8119 19.4637 25 19.936 25 20.4286V24.1429C25 24.6354 24.8119 25.1078 24.477 25.4561C24.1421 25.8043 23.6879 26 23.2143 26H19.6429C19.1693 26 18.7151 25.8043 18.3802 25.4561C18.0453 25.1078 17.8571 24.6354 17.8571 24.1429V20.4286Z" fill="black"/>
</svg>
