<svg width="33" height="29" viewBox="0 0 33 29" fill="none" xmlns="http://www.w3.org/2000/svg">
<path fill-rule="evenodd" clip-rule="evenodd" d="M0.85498 0.966667C0.85498 0.710291 0.967103 0.464415 1.16668 0.28313C1.36626 0.101845 1.63695 0 1.9192 0H5.11186C5.34924 5.95689e-05 5.57979 0.0722113 5.76684 0.204981C5.95389 0.337751 6.0867 0.523516 6.14415 0.732733L7.00617 3.86667H31.7173C31.8736 3.8668 32.0279 3.89819 32.1693 3.9586C32.3107 4.01901 32.4357 4.10697 32.5355 4.21622C32.6352 4.32547 32.7073 4.45334 32.7465 4.59073C32.7857 4.72813 32.7911 4.87168 32.7624 5.0112L29.5697 20.4779C29.5241 20.6994 29.3947 20.8995 29.2038 21.0435C29.013 21.1875 28.7728 21.2665 28.5247 21.2667H9.36873C9.12062 21.2665 8.88039 21.1875 8.68957 21.0435C8.49874 20.8995 8.36932 20.6994 8.32367 20.4779L5.13314 5.0402L4.28177 1.93333H1.9192C1.63695 1.93333 1.36626 1.83149 1.16668 1.6502C0.967103 1.46892 0.85498 1.22304 0.85498 0.966667ZM7.45739 5.8L10.252 19.3333H27.6414L30.436 5.8H7.45739ZM11.4972 21.2667C10.3682 21.2667 9.28542 21.674 8.4871 22.3992C7.68878 23.1243 7.24029 24.1078 7.24029 25.1333C7.24029 26.1588 7.68878 27.1423 8.4871 27.8675C9.28542 28.5926 10.3682 29 11.4972 29C12.6262 29 13.7089 28.5926 14.5072 27.8675C15.3056 27.1423 15.754 26.1588 15.754 25.1333C15.754 24.1078 15.3056 23.1243 14.5072 22.3992C13.7089 21.674 12.6262 21.2667 11.4972 21.2667ZM26.3962 21.2667C25.2672 21.2667 24.1845 21.674 23.3862 22.3992C22.5879 23.1243 22.1394 24.1078 22.1394 25.1333C22.1394 26.1588 22.5879 27.1423 23.3862 27.8675C24.1845 28.5926 25.2672 29 26.3962 29C27.5252 29 28.608 28.5926 29.4063 27.8675C30.2046 27.1423 30.6531 26.1588 30.6531 25.1333C30.6531 24.1078 30.2046 23.1243 29.4063 22.3992C28.608 21.674 27.5252 21.2667 26.3962 21.2667ZM11.4972 23.2C10.9327 23.2 10.3913 23.4037 9.99214 23.7663C9.59298 24.1288 9.36873 24.6206 9.36873 25.1333C9.36873 25.6461 9.59298 26.1378 9.99214 26.5004C10.3913 26.863 10.9327 27.0667 11.4972 27.0667C12.0617 27.0667 12.603 26.863 13.0022 26.5004C13.4014 26.1378 13.6256 25.6461 13.6256 25.1333C13.6256 24.6206 13.4014 24.1288 13.0022 23.7663C12.603 23.4037 12.0617 23.2 11.4972 23.2ZM26.3962 23.2C25.8317 23.2 25.2904 23.4037 24.8912 23.7663C24.492 24.1288 24.2678 24.6206 24.2678 25.1333C24.2678 25.6461 24.492 26.1378 24.8912 26.5004C25.2904 26.863 25.8317 27.0667 26.3962 27.0667C26.9607 27.0667 27.5021 26.863 27.9013 26.5004C28.3004 26.1378 28.5247 25.6461 28.5247 25.1333C28.5247 24.6206 28.3004 24.1288 27.9013 23.7663C27.5021 23.4037 26.9607 23.2 26.3962 23.2Z" fill="black"/>
</svg>
