<svg width="28" height="29" viewBox="0 0 28 29" fill="none" xmlns="http://www.w3.org/2000/svg">
<path d="M27.5204 2.79138C27.701 2.97301 27.8025 3.21901 27.8025 3.47547C27.8025 3.73193 27.701 3.97793 27.5204 4.15956L25.5038 6.18276L21.637 2.3069L23.6536 0.2837C23.8348 0.102047 24.0807 0 24.337 0C24.5934 0 24.8392 0.102047 25.0205 0.2837L27.5204 2.78944V2.79138ZM24.1369 7.55094L20.2701 3.67508L7.09765 16.8801C6.99124 16.9868 6.91113 17.1168 6.86371 17.26L5.3073 21.9381C5.27907 22.0234 5.27507 22.1149 5.29573 22.2023C5.31638 22.2898 5.3609 22.3697 5.42429 22.4333C5.48768 22.4968 5.56745 22.5414 5.65468 22.5621C5.74191 22.5828 5.83317 22.5788 5.91826 22.5505L10.5855 20.9905C10.7282 20.9435 10.8579 20.8639 10.9645 20.7579L24.1369 7.55094Z" fill="black"/>
<path fill-rule="evenodd" clip-rule="evenodd" d="M0.787109 26.093C0.787109 26.864 1.09266 27.6034 1.63654 28.1485C2.18042 28.6937 2.91808 28.9999 3.68724 28.9999H24.9549C25.7241 28.9999 26.4617 28.6937 27.0056 28.1485C27.5495 27.6034 27.855 26.864 27.855 26.093V14.4654C27.855 14.2085 27.7532 13.962 27.5719 13.7803C27.3906 13.5986 27.1447 13.4965 26.8883 13.4965C26.6319 13.4965 26.386 13.5986 26.2048 13.7803C26.0235 13.962 25.9216 14.2085 25.9216 14.4654V26.093C25.9216 26.35 25.8198 26.5965 25.6385 26.7782C25.4572 26.9599 25.2113 27.062 24.9549 27.062H3.68724C3.43086 27.062 3.18497 26.9599 3.00368 26.7782C2.82238 26.5965 2.72053 26.35 2.72053 26.093V4.77579C2.72053 4.51881 2.82238 4.27235 3.00368 4.09063C3.18497 3.90891 3.43086 3.80683 3.68724 3.80683H16.2545C16.5109 3.80683 16.7568 3.70474 16.9381 3.52302C17.1194 3.34131 17.2212 3.09485 17.2212 2.83786C17.2212 2.58088 17.1194 2.33442 16.9381 2.1527C16.7568 1.97098 16.5109 1.8689 16.2545 1.8689H3.68724C2.91808 1.8689 2.18042 2.17516 1.63654 2.72031C1.09266 3.26546 0.787109 4.00483 0.787109 4.77579V26.093Z" fill="black"/>
</svg>
