<svg width="20" height="20" viewBox="0 0 20 20" fill="none" xmlns="http://www.w3.org/2000/svg">
<g clip-path="url(#clip0_248_883)">
<path d="M10 7.22223C10.8104 7.22223 11.5876 6.9003 12.1606 6.32727C12.7336 5.75425 13.0556 4.97705 13.0556 4.16667C13.0556 3.35629 12.7336 2.57909 12.1606 2.00607C11.5876 1.43304 10.8104 1.11111 10 1.11111C9.18962 1.11111 8.41242 1.43304 7.8394 2.00607C7.26637 2.57909 6.94444 3.35629 6.94444 4.16667C6.94444 4.97705 7.26637 5.75425 7.8394 6.32727C8.41242 6.9003 9.18962 7.22223 10 7.22223ZM2.73264 14.059C3.25347 13.625 4.46875 12.8646 6.11111 12.3194V16.1111H13.8889V12.316C15.5313 12.8646 16.7465 13.625 17.2674 14.0556C17.9757 14.6458 19.0243 14.5486 19.6146 13.8438C20.2049 13.1389 20.1076 12.0868 19.4028 11.4965C18.9861 11.1493 18.3576 10.7153 17.5556 10.2813C17.2639 10.7778 16.7257 11.1111 16.1111 11.1111C15.191 11.1111 14.4444 10.3646 14.4444 9.44445C14.4444 9.29514 14.4653 9.15278 14.5 9.01389C13.1632 8.60764 11.6424 8.33334 10 8.33334C7.90972 8.33334 6.01042 8.78125 4.44444 9.37153C4.44444 9.39584 4.44444 9.42014 4.44444 9.44445C4.44444 10.3646 3.69792 11.1111 2.77778 11.1111C2.36806 11.1111 1.98958 10.9618 1.70139 10.7153C1.24653 10.9965 0.878472 11.2674 0.600694 11.4965C-0.107639 12.0868 -0.201389 13.1354 0.388889 13.8438C0.979167 14.5521 2.02778 14.6458 2.73611 14.0556L2.73264 14.059ZM0.833333 17.2222C0.371528 17.2222 0 17.5938 0 18.0556C0 18.5174 0.371528 18.8889 0.833333 18.8889H19.1667C19.6285 18.8889 20 18.5174 20 18.0556C20 17.5938 19.6285 17.2222 19.1667 17.2222H0.833333ZM7.77778 10.8333C7.77778 10.6123 7.86558 10.4004 8.02186 10.2441C8.17814 10.0878 8.3901 10 8.61111 10C8.83213 10 9.04409 10.0878 9.20037 10.2441C9.35665 10.4004 9.44444 10.6123 9.44444 10.8333C9.44444 11.0544 9.35665 11.2663 9.20037 11.4226C9.04409 11.5789 8.83213 11.6667 8.61111 11.6667C8.3901 11.6667 8.17814 11.5789 8.02186 11.4226C7.86558 11.2663 7.77778 11.0544 7.77778 10.8333ZM11.3889 12.7778C11.6099 12.7778 11.8219 12.8656 11.9781 13.0219C12.1344 13.1781 12.2222 13.3901 12.2222 13.6111C12.2222 13.8321 12.1344 14.0441 11.9781 14.2004C11.8219 14.3567 11.6099 14.4444 11.3889 14.4444C11.1679 14.4444 10.9559 14.3567 10.7996 14.2004C10.6434 14.0441 10.5556 13.8321 10.5556 13.6111C10.5556 13.3901 10.6434 13.1781 10.7996 13.0219C10.9559 12.8656 11.1679 12.7778 11.3889 12.7778ZM3.33333 9.44445C3.33333 9.29711 3.2748 9.1558 3.17061 9.05161C3.06643 8.94742 2.92512 8.88889 2.77778 8.88889C2.63044 8.88889 2.48913 8.94742 2.38494 9.05161C2.28075 9.1558 2.22222 9.29711 2.22222 9.44445C2.22222 9.59179 2.28075 9.7331 2.38494 9.83729C2.48913 9.94147 2.63044 10 2.77778 10C2.92512 10 3.06643 9.94147 3.17061 9.83729C3.2748 9.7331 3.33333 9.59179 3.33333 9.44445ZM16.1111 10C16.2585 10 16.3998 9.94147 16.504 9.83729C16.6081 9.7331 16.6667 9.59179 16.6667 9.44445C16.6667 9.29711 16.6081 9.1558 16.504 9.05161C16.3998 8.94742 16.2585 8.88889 16.1111 8.88889C15.9638 8.88889 15.8225 8.94742 15.7183 9.05161C15.6141 9.1558 15.5556 9.29711 15.5556 9.44445C15.5556 9.59179 15.6141 9.7331 15.7183 9.83729C15.8225 9.94147 15.9638 10 16.1111 10Z" fill="white"/>
</g>
<defs>
<clipPath id="clip0_248_883">
<rect width="20" height="20" fill="white"/>
</clipPath>
</defs>
</svg>
