<svg width="62" height="66" viewBox="0 0 62 66" fill="none" xmlns="http://www.w3.org/2000/svg">
<g id="&#240;&#159;&#166;&#134; icon &#34;edit 2 outline&#34;">
<g id="Group">
<path id="Vector" d="M49.0834 54.7697H12.9167C12.2316 54.7697 11.5745 55.0582 11.09 55.5718C10.6055 56.0854 10.3334 56.7819 10.3334 57.5082C10.3334 58.2345 10.6055 58.931 11.09 59.4446C11.5745 59.9582 12.2316 60.2467 12.9167 60.2467H49.0834C49.7685 60.2467 50.4256 59.9582 50.9101 59.4446C51.3945 58.931 51.6667 58.2345 51.6667 57.5082C51.6667 56.7819 51.3945 56.0854 50.9101 55.5718C50.4256 55.0582 49.7685 54.7697 49.0834 54.7697Z" fill="#E67817"/>
<path id="Vector_2" d="M12.9166 49.293H13.1491L23.9216 48.2523C25.1017 48.1277 26.2054 47.5766 27.0475 46.6914L50.2975 22.045C51.1999 21.0344 51.6876 19.6858 51.6537 18.2948C51.6198 16.9037 51.0671 15.5836 50.1166 14.6237L43.0383 7.12028C42.1145 6.20041 40.9039 5.6726 39.6369 5.63726C38.3699 5.60191 37.1348 6.0615 36.1666 6.92858L12.9166 31.575C12.0816 32.4676 11.5617 33.6376 11.4441 34.8885L10.3333 46.308C10.2985 46.7091 10.3476 47.1134 10.4771 47.4921C10.6066 47.8708 10.8133 48.2145 11.0825 48.4988C11.3239 48.7526 11.6101 48.9534 11.9249 49.0897C12.2396 49.226 12.5767 49.295 12.9166 49.293ZM39.4475 10.9542L46.5 18.4302L41.3333 23.7703L34.41 16.4311L39.4475 10.9542ZM16.4558 35.3541L31 20.0459L37.975 27.4398L23.5083 42.7754L15.7583 43.5421L16.4558 35.3541Z" fill="#E67817"/>
</g>
</g>
</svg>
