<svg width="53" height="51" viewBox="0 0 53 51" fill="none" xmlns="http://www.w3.org/2000/svg">
<rect width="53" height="51" rx="10" fill="white"/>
<path d="M37.6667 21.1267C36.6351 21.1297 35.6297 21.4629 34.7883 22.0805C33.9468 22.6981 33.3106 23.5699 32.9667 24.5764H11C10.558 24.5764 10.1341 24.7582 9.82153 25.0816C9.50897 25.4051 9.33337 25.8438 9.33337 26.3013C9.33337 26.7587 9.50897 27.1975 9.82153 27.5209C10.1341 27.8444 10.558 28.0261 11 28.0261H32.9667C33.2725 28.9211 33.8102 29.7118 34.5211 30.3117C35.232 30.9116 36.0887 31.2975 36.9973 31.4273C37.906 31.557 38.8316 31.4256 39.6729 31.0474C40.5142 30.6691 41.2388 30.0587 41.7673 29.2829C42.2958 28.507 42.6079 27.5956 42.6695 26.6485C42.731 25.7014 42.5396 24.7549 42.1163 23.9128C41.6929 23.0707 41.0538 22.3654 40.269 21.874C39.4842 21.3826 38.584 21.1241 37.6667 21.1267ZM37.6667 28.0261C37.3371 28.0261 37.0148 27.925 36.7408 27.7354C36.4667 27.5459 36.2531 27.2765 36.1269 26.9614C36.0008 26.6462 35.9678 26.2994 36.0321 25.9648C36.0964 25.6302 36.2551 25.3229 36.4882 25.0816C36.7213 24.8404 37.0183 24.6761 37.3416 24.6096C37.6649 24.543 38 24.5772 38.3045 24.7077C38.6091 24.8383 38.8694 25.0594 39.0525 25.343C39.2356 25.6267 39.3334 25.9601 39.3334 26.3013C39.3334 26.7587 39.1578 27.1975 38.8452 27.5209C38.5327 27.8444 38.1087 28.0261 37.6667 28.0261Z" fill="#797777"/>
<path d="M11 17.677H12.9667C13.317 18.6759 13.9561 19.539 14.797 20.1489C15.6379 20.7589 16.6398 21.0861 17.6667 21.0861C18.6936 21.0861 19.6955 20.7589 20.5364 20.1489C21.3773 19.539 22.0164 18.6759 22.3667 17.677H41C41.4421 17.677 41.866 17.4952 42.1786 17.1718C42.4911 16.8483 42.6667 16.4096 42.6667 15.9521C42.6667 15.4946 42.4911 15.0559 42.1786 14.7324C41.866 14.409 41.4421 14.2272 41 14.2272H22.3667C22.0164 13.2283 21.3773 12.3652 20.5364 11.7553C19.6955 11.1453 18.6936 10.8181 17.6667 10.8181C16.6398 10.8181 15.6379 11.1453 14.797 11.7553C13.9561 12.3652 13.317 13.2283 12.9667 14.2272H11C10.558 14.2272 10.1341 14.409 9.82153 14.7324C9.50897 15.0559 9.33337 15.4946 9.33337 15.9521C9.33337 16.4096 9.50897 16.8483 9.82153 17.1718C10.1341 17.4952 10.558 17.677 11 17.677ZM17.6667 14.2272C17.9963 14.2272 18.3186 14.3284 18.5927 14.5179C18.8667 14.7075 19.0804 14.9769 19.2065 15.292C19.3327 15.6072 19.3657 15.954 19.3014 16.2886C19.237 16.6232 19.0783 16.9305 18.8452 17.1718C18.6121 17.413 18.3152 17.5773 17.9919 17.6438C17.6686 17.7104 17.3334 17.6762 17.0289 17.5457C16.7244 17.4151 16.4641 17.194 16.2809 16.9104C16.0978 16.6267 16 16.2932 16 15.9521C16 15.4946 16.1756 15.0559 16.4882 14.7324C16.8008 14.409 17.2247 14.2272 17.6667 14.2272Z" fill="#797777"/>
<path d="M41 34.9255H29.0334C28.683 33.9265 28.044 33.0634 27.2031 32.4535C26.3622 31.8436 25.3602 31.5164 24.3334 31.5164C23.3065 31.5164 22.3045 31.8436 21.4636 32.4535C20.6228 33.0634 19.9837 33.9265 19.6334 34.9255H11C10.558 34.9255 10.1341 35.1072 9.82153 35.4307C9.50897 35.7542 9.33337 36.1929 9.33337 36.6503C9.33337 37.1078 9.50897 37.5465 9.82153 37.87C10.1341 38.1935 10.558 38.3752 11 38.3752H19.6334C19.9837 39.3741 20.6228 40.2372 21.4636 40.8472C22.3045 41.4571 23.3065 41.7843 24.3334 41.7843C25.3602 41.7843 26.3622 41.4571 27.2031 40.8472C28.044 40.2372 28.683 39.3741 29.0334 38.3752H41C41.4421 38.3752 41.866 38.1935 42.1786 37.87C42.4911 37.5465 42.6667 37.1078 42.6667 36.6503C42.6667 36.1929 42.4911 35.7542 42.1786 35.4307C41.866 35.1072 41.4421 34.9255 41 34.9255ZM24.3334 38.3752C24.0037 38.3752 23.6815 38.274 23.4074 38.0845C23.1333 37.895 22.9197 37.6256 22.7936 37.3104C22.6674 36.9952 22.6344 36.6484 22.6987 36.3138C22.763 35.9792 22.9218 35.6719 23.1549 35.4307C23.388 35.1895 23.6849 35.0252 24.0082 34.9586C24.3315 34.8921 24.6666 34.9262 24.9712 35.0568C25.2757 35.1873 25.536 35.4084 25.7192 35.6921C25.9023 35.9757 26 36.3092 26 36.6503C26 37.1078 25.8244 37.5465 25.5119 37.87C25.1993 38.1935 24.7754 38.3752 24.3334 38.3752Z" fill="#797777"/>
</svg>
