<svg width="38" height="38" viewBox="0 0 38 38" fill="none" xmlns="http://www.w3.org/2000/svg">
<path d="M17.5909 36.4166C17.4073 36.4164 17.2252 36.3843 17.0526 36.3216C16.7197 36.1997 16.4373 35.9696 16.2507 35.6682C16.0641 35.3668 15.9841 35.0114 16.0234 34.6591L17.2426 23.4333H7.91678C7.62913 23.4337 7.34681 23.3558 7.10012 23.2079C6.85343 23.0599 6.65169 22.8476 6.51659 22.5937C6.38148 22.3397 6.3181 22.0538 6.33325 21.7665C6.34841 21.4793 6.44153 21.2016 6.60261 20.9633L19.0951 2.27995C19.2927 1.98757 19.5823 1.76957 19.9179 1.66056C20.2535 1.55156 20.6159 1.5578 20.9476 1.67828C21.2665 1.79666 21.5387 2.01456 21.7241 2.29973C21.9094 2.58489 21.998 2.92217 21.9768 3.26162L20.7576 14.5666H30.0834C30.3711 14.5662 30.6534 14.6441 30.9001 14.792C31.1468 14.94 31.3485 15.1523 31.4836 15.4062C31.6187 15.6602 31.6821 15.9461 31.667 16.2334C31.6518 16.5206 31.5587 16.7983 31.3976 17.0366L18.9051 35.7199C18.7599 35.9348 18.5641 36.1107 18.3349 36.2322C18.1058 36.3537 17.8503 36.417 17.5909 36.4166Z" fill="#231F20"/>
</svg>
