<svg width="61" height="61" viewBox="0 0 61 61" fill="none" xmlns="http://www.w3.org/2000/svg">
<g id="&#240;&#159;&#166;&#134; icon &#34;grid 3x3 gap fill&#34;">
<path id="Vector" d="M0.701416 5.16248C0.701416 4.02584 1.15295 2.93575 1.95667 2.13203C2.7604 1.3283 3.85049 0.87677 4.98713 0.87677H13.5586C14.6952 0.87677 15.7853 1.3283 16.589 2.13203C17.3927 2.93575 17.8443 4.02584 17.8443 5.16248V13.7339C17.8443 14.8706 17.3927 15.9606 16.589 16.7644C15.7853 17.5681 14.6952 18.0196 13.5586 18.0196H4.98713C3.85049 18.0196 2.7604 17.5681 1.95667 16.7644C1.15295 15.9606 0.701416 14.8706 0.701416 13.7339V5.16248ZM22.13 5.16248C22.13 4.02584 22.5815 2.93575 23.3852 2.13203C24.189 1.3283 25.2791 0.87677 26.4157 0.87677H34.9871C36.1238 0.87677 37.2139 1.3283 38.0176 2.13203C38.8213 2.93575 39.2728 4.02584 39.2728 5.16248V13.7339C39.2728 14.8706 38.8213 15.9606 38.0176 16.7644C37.2139 17.5681 36.1238 18.0196 34.9871 18.0196H26.4157C25.2791 18.0196 24.189 17.5681 23.3852 16.7644C22.5815 15.9606 22.13 14.8706 22.13 13.7339V5.16248ZM43.5586 5.16248C43.5586 4.02584 44.0101 2.93575 44.8138 2.13203C45.6175 1.3283 46.7076 0.87677 47.8443 0.87677H56.4157C57.5523 0.87677 58.6424 1.3283 59.4462 2.13203C60.2499 2.93575 60.7014 4.02584 60.7014 5.16248V13.7339C60.7014 14.8706 60.2499 15.9606 59.4462 16.7644C58.6424 17.5681 57.5523 18.0196 56.4157 18.0196H47.8443C46.7076 18.0196 45.6175 17.5681 44.8138 16.7644C44.0101 15.9606 43.5586 14.8706 43.5586 13.7339V5.16248ZM0.701416 26.5911C0.701416 25.4544 1.15295 24.3643 1.95667 23.5606C2.7604 22.7569 3.85049 22.3053 4.98713 22.3053H13.5586C14.6952 22.3053 15.7853 22.7569 16.589 23.5606C17.3927 24.3643 17.8443 25.4544 17.8443 26.5911V35.1625C17.8443 36.2991 17.3927 37.3892 16.589 38.1929C15.7853 38.9967 14.6952 39.4482 13.5586 39.4482H4.98713C3.85049 39.4482 2.7604 38.9967 1.95667 38.1929C1.15295 37.3892 0.701416 36.2991 0.701416 35.1625V26.5911ZM22.13 26.5911C22.13 25.4544 22.5815 24.3643 23.3852 23.5606C24.189 22.7569 25.2791 22.3053 26.4157 22.3053H34.9871C36.1238 22.3053 37.2139 22.7569 38.0176 23.5606C38.8213 24.3643 39.2728 25.4544 39.2728 26.5911V35.1625C39.2728 36.2991 38.8213 37.3892 38.0176 38.1929C37.2139 38.9967 36.1238 39.4482 34.9871 39.4482H26.4157C25.2791 39.4482 24.189 38.9967 23.3852 38.1929C22.5815 37.3892 22.13 36.2991 22.13 35.1625V26.5911ZM43.5586 26.5911C43.5586 25.4544 44.0101 24.3643 44.8138 23.5606C45.6175 22.7569 46.7076 22.3053 47.8443 22.3053H56.4157C57.5523 22.3053 58.6424 22.7569 59.4462 23.5606C60.2499 24.3643 60.7014 25.4544 60.7014 26.5911V35.1625C60.7014 36.2991 60.2499 37.3892 59.4462 38.1929C58.6424 38.9967 57.5523 39.4482 56.4157 39.4482H47.8443C46.7076 39.4482 45.6175 38.9967 44.8138 38.1929C44.0101 37.3892 43.5586 36.2991 43.5586 35.1625V26.5911ZM0.701416 48.0196C0.701416 46.883 1.15295 45.7929 1.95667 44.9892C2.7604 44.1854 3.85049 43.7339 4.98713 43.7339H13.5586C14.6952 43.7339 15.7853 44.1854 16.589 44.9892C17.3927 45.7929 17.8443 46.883 17.8443 48.0196V56.5911C17.8443 57.7277 17.3927 58.8178 16.589 59.6215C15.7853 60.4252 14.6952 60.8768 13.5586 60.8768H4.98713C3.85049 60.8768 2.7604 60.4252 1.95667 59.6215C1.15295 58.8178 0.701416 57.7277 0.701416 56.5911V48.0196ZM22.13 48.0196C22.13 46.883 22.5815 45.7929 23.3852 44.9892C24.189 44.1854 25.2791 43.7339 26.4157 43.7339H34.9871C36.1238 43.7339 37.2139 44.1854 38.0176 44.9892C38.8213 45.7929 39.2728 46.883 39.2728 48.0196V56.5911C39.2728 57.7277 38.8213 58.8178 38.0176 59.6215C37.2139 60.4252 36.1238 60.8768 34.9871 60.8768H26.4157C25.2791 60.8768 24.189 60.4252 23.3852 59.6215C22.5815 58.8178 22.13 57.7277 22.13 56.5911V48.0196ZM43.5586 48.0196C43.5586 46.883 44.0101 45.7929 44.8138 44.9892C45.6175 44.1854 46.7076 43.7339 47.8443 43.7339H56.4157C57.5523 43.7339 58.6424 44.1854 59.4462 44.9892C60.2499 45.7929 60.7014 46.883 60.7014 48.0196V56.5911C60.7014 57.7277 60.2499 58.8178 59.4462 59.6215C58.6424 60.4252 57.5523 60.8768 56.4157 60.8768H47.8443C46.7076 60.8768 45.6175 60.4252 44.8138 59.6215C44.0101 58.8178 43.5586 57.7277 43.5586 56.5911V48.0196Z" fill="#E67817"/>
</g>
</svg>
