<svg width="32" height="30" viewBox="0 0 32 30" fill="none" xmlns="http://www.w3.org/2000/svg">
<path fill-rule="evenodd" clip-rule="evenodd" d="M2.48511 26.2224V12.3569H4.6133V26.2224C4.6133 26.5053 4.72541 26.7766 4.92497 26.9766C5.12452 27.1766 5.39518 27.289 5.6774 27.289H24.8311C25.1133 27.289 25.384 27.1766 25.5836 26.9766C25.7831 26.7766 25.8952 26.5053 25.8952 26.2224V12.3569H28.0234V26.2224C28.0234 27.0711 27.6871 27.8849 27.0884 28.485C26.4898 29.085 25.6778 29.4222 24.8311 29.4222H5.6774C4.83075 29.4222 4.01878 29.085 3.42011 28.485C2.82144 27.8849 2.48511 27.0711 2.48511 26.2224ZM25.8952 2.75774V10.2238L21.6388 5.95747V2.75774C21.6388 2.47487 21.751 2.20358 21.9505 2.00356C22.1501 1.80353 22.4207 1.69116 22.7029 1.69116H24.8311C25.1133 1.69116 25.384 1.80353 25.5836 2.00356C25.7831 2.20358 25.8952 2.47487 25.8952 2.75774Z" fill="#E67817"/>
<path fill-rule="evenodd" clip-rule="evenodd" d="M14.4582 0.624559C14.8573 0.224654 15.3985 0 15.9628 0C16.5271 0 17.0683 0.224654 17.4674 0.624559L31.6135 14.8015C31.8133 15.0018 31.9256 15.2734 31.9256 15.5566C31.9256 15.8399 31.8133 16.1115 31.6135 16.3118C31.4137 16.512 31.1427 16.6246 30.8601 16.6246C30.5776 16.6246 30.3066 16.512 30.1068 16.3118L15.9628 2.1327L1.81882 16.3118C1.61901 16.512 1.34801 16.6246 1.06544 16.6246C0.782868 16.6246 0.511869 16.512 0.31206 16.3118C0.112252 16.1115 0 15.8399 0 15.5566C0 15.2734 0.112252 15.0018 0.31206 14.8015L14.4582 0.624559Z" fill="#E67817"/>
</svg>
