<svg width="29" height="29" viewBox="0 0 29 29" fill="none" xmlns="http://www.w3.org/2000/svg">
<path fill-rule="evenodd" clip-rule="evenodd" d="M0 27.3889C0 26.9616 0.13888 26.5518 0.386087 26.2497C0.633294 25.9475 0.968578 25.7778 1.31818 25.7778H27.6818C28.0314 25.7778 28.3667 25.9475 28.6139 26.2497C28.8611 26.5518 29 26.9616 29 27.3889C29 27.8162 28.8611 28.226 28.6139 28.5281C28.3667 28.8303 28.0314 29 27.6818 29H1.31818C0.968578 29 0.633294 28.8303 0.386087 28.5281C0.13888 28.226 0 27.8162 0 27.3889ZM0 14.5C0 14.0727 0.13888 13.6629 0.386087 13.3608C0.633294 13.0586 0.968578 12.8889 1.31818 12.8889H27.6818C28.0314 12.8889 28.3667 13.0586 28.6139 13.3608C28.8611 13.6629 29 14.0727 29 14.5C29 14.9273 28.8611 15.3371 28.6139 15.6392C28.3667 15.9414 28.0314 16.1111 27.6818 16.1111H1.31818C0.968578 16.1111 0.633294 15.9414 0.386087 15.6392C0.13888 15.3371 0 14.9273 0 14.5ZM0 1.61111C0 1.18382 0.13888 0.774026 0.386087 0.471884C0.633294 0.169742 0.968578 0 1.31818 0H27.6818C28.0314 0 28.3667 0.169742 28.6139 0.471884C28.8611 0.774026 29 1.18382 29 1.61111C29 2.0384 28.8611 2.4482 28.6139 2.75034C28.3667 3.05248 28.0314 3.22222 27.6818 3.22222H1.31818C0.968578 3.22222 0.633294 3.05248 0.386087 2.75034C0.13888 2.4482 0 2.0384 0 1.61111Z" fill="white"/>
</svg>
