<svg width="22" height="22" viewBox="0 0 22 22" fill="none" xmlns="http://www.w3.org/2000/svg">
<g id="Frame">
<path id="Vector" d="M20.625 2.75C20.625 1.98945 20.0105 1.375 19.25 1.375H2.75C1.98945 1.375 1.375 1.98945 1.375 2.75C1.375 3.51055 1.98945 4.125 2.75 4.125H19.25C20.0105 4.125 20.625 3.51055 20.625 2.75ZM20.625 13.75C20.625 12.9895 20.0105 12.375 19.25 12.375H2.75C1.98945 12.375 1.375 12.9895 1.375 13.75C1.375 14.5105 1.98945 15.125 2.75 15.125H19.25C20.0105 15.125 20.625 14.5105 20.625 13.75ZM1.375 8.25C1.375 9.01055 1.98945 9.625 2.75 9.625H19.25C20.0105 9.625 20.625 9.01055 20.625 8.25C20.625 7.48945 20.0105 6.875 19.25 6.875H2.75C1.98945 6.875 1.375 7.48945 1.375 8.25ZM20.625 19.25C20.625 18.4895 20.0105 17.875 19.25 17.875H2.75C1.98945 17.875 1.375 18.4895 1.375 19.25C1.375 20.0105 1.98945 20.625 2.75 20.625H19.25C20.0105 20.625 20.625 20.0105 20.625 19.25Z" fill="#E67817"/>
</g>
</svg>
