<svg width="243" height="245" viewBox="0 0 243 245" fill="none" xmlns="http://www.w3.org/2000/svg">
<path d="M121.673 244.449C188.208 244.449 242.146 189.951 242.146 122.725C242.146 55.498 188.208 1 121.673 1C55.1376 1 1.20007 55.498 1.20007 122.725C1.20007 189.951 55.1376 244.449 121.673 244.449Z" fill="#E07B1F" stroke="black" stroke-width="0.999685" stroke-miterlimit="22.9256"/>
<path fill-rule="evenodd" clip-rule="evenodd" d="M24.6811 58.0346C28.8167 59.7146 36.9582 65.7883 45.2939 72.3148C53.6297 78.8409 62.1586 85.8202 70.5593 92.6048C78.9593 99.3894 87.2297 105.981 94.726 112.184C102.221 118.387 108.942 124.202 112.366 127.175C115.791 130.147 115.92 130.276 115.92 134.864C115.92 139.452 115.791 148.498 115.855 161.81C115.92 175.121 116.179 192.696 116.244 201.549C116.308 210.402 116.179 210.531 114.757 208.269C113.335 206.008 110.622 201.355 107.133 195.152C103.643 188.949 99.3782 181.195 94.791 173.829C90.203 166.462 85.2915 159.483 79.6699 152.57C74.0486 145.655 67.7156 138.806 61.513 133.249C55.3093 127.692 49.2356 123.427 43.8724 119.227C38.5093 115.026 33.8563 110.891 30.6906 106.11C27.5241 101.328 25.8441 95.9002 24.4869 90.537C23.13 85.1739 22.0963 79.875 21.45 75.0939C20.8037 70.312 20.5456 66.0468 20.4809 62.5575C20.4167 59.0683 20.5456 56.3546 24.6811 58.0346Z" stroke="white" stroke-width="0.999685" stroke-miterlimit="22.9256"/>
<path fill-rule="evenodd" clip-rule="evenodd" d="M24.6811 58.0346C28.8167 59.7146 36.9582 65.7883 45.2939 72.3148C53.6297 78.8409 62.1586 85.8202 70.5593 92.6048C78.9593 99.3894 87.2297 105.981 94.726 112.184C102.221 118.387 108.942 124.202 112.366 127.175C115.791 130.147 115.92 130.276 115.92 134.864C115.92 139.452 115.791 148.498 115.855 161.81C115.92 175.121 116.179 192.696 116.244 201.549C116.308 210.402 116.179 210.531 114.757 208.269C113.335 206.008 110.622 201.355 107.133 195.152C103.643 188.949 99.3782 181.195 94.791 173.829C90.203 166.462 85.2915 159.483 79.6699 152.57C74.0486 145.655 67.7156 138.806 61.513 133.249C55.3093 127.692 49.2356 123.427 43.8724 119.227C38.5093 115.026 33.8563 110.891 30.6906 106.11C27.5241 101.328 25.8441 95.9002 24.4869 90.537C23.13 85.1739 22.0963 79.875 21.45 75.0939C20.8037 70.312 20.5456 66.0468 20.4809 62.5575C20.4167 59.0683 20.5456 56.3546 24.6811 58.0346Z" fill="white"/>
<path fill-rule="evenodd" clip-rule="evenodd" d="M219.349 58.0346C215.214 59.7146 207.072 65.7883 198.736 72.3148C190.401 78.8409 181.872 85.8202 173.471 92.6048C165.071 99.3894 156.801 105.981 149.304 112.184C141.809 118.387 135.089 124.202 131.664 127.175C128.239 130.147 128.11 130.276 128.11 134.864C128.11 139.452 128.239 148.498 128.175 161.81C128.11 175.121 127.851 192.696 127.787 201.549C127.722 210.402 127.851 210.531 129.273 208.269C130.695 206.008 133.408 201.355 136.898 195.152C140.387 188.949 144.652 181.195 149.239 173.829C153.827 166.462 158.739 159.483 164.36 152.57C169.982 145.655 176.315 138.806 182.517 133.249C188.721 127.692 194.795 123.427 200.158 119.227C205.521 115.026 210.174 110.891 213.34 106.11C216.506 101.328 218.186 95.9002 219.543 90.537C220.9 85.1739 221.934 79.875 222.58 75.0939C223.227 70.312 223.485 66.0468 223.549 62.5575C223.614 59.0683 223.485 56.3546 219.349 58.0346Z" stroke="white" stroke-width="0.999685" stroke-miterlimit="22.9256"/>
<path fill-rule="evenodd" clip-rule="evenodd" d="M219.349 58.0346C215.214 59.7146 207.072 65.7883 198.736 72.3148C190.401 78.8409 181.872 85.8202 173.471 92.6048C165.071 99.3894 156.801 105.981 149.304 112.184C141.809 118.387 135.089 124.202 131.664 127.175C128.239 130.147 128.11 130.276 128.11 134.864C128.11 139.452 128.239 148.498 128.175 161.81C128.11 175.121 127.851 192.696 127.787 201.549C127.722 210.402 127.851 210.531 129.273 208.269C130.695 206.008 133.408 201.355 136.898 195.152C140.387 188.949 144.652 181.195 149.239 173.829C153.827 166.462 158.739 159.483 164.36 152.57C169.982 145.655 176.315 138.806 182.517 133.249C188.721 127.692 194.795 123.427 200.158 119.227C205.521 115.026 210.174 110.891 213.34 106.11C216.506 101.328 218.186 95.9002 219.543 90.537C220.9 85.1739 221.934 79.875 222.58 75.0939C223.227 70.312 223.485 66.0468 223.549 62.5575C223.614 59.0683 223.485 56.3546 219.349 58.0346Z" fill="white"/>
<path fill-rule="evenodd" clip-rule="evenodd" d="M72.5583 82.4605C73.3346 77.0913 73.1816 66.4758 73.2583 58.4379C73.3346 50.4003 73.6408 44.9408 74.0233 40.9976C74.4061 37.0548 74.8653 34.6283 76.0136 32.4294C77.161 30.2301 78.9979 28.2587 81.2172 26.8939C83.4365 25.5291 86.0384 24.7706 90.4007 24.3159C94.7627 23.8608 100.885 23.7093 107.696 23.6337C114.508 23.5577 122.007 23.5577 129.048 23.7093C136.088 23.8608 142.67 24.164 147.339 24.9981C152.007 25.8322 154.762 27.197 156.828 29.396C158.894 31.5953 160.272 34.6283 161.114 38.0405C161.955 41.453 162.261 45.2439 162.414 50.7038C162.567 56.1633 162.567 63.2911 162.414 69.3573C162.261 75.4234 161.955 80.4279 162.568 83.0819C163.18 85.7359 164.71 86.039 166.47 86.039C168.231 86.039 170.221 85.7359 171.521 85.0533C172.822 84.3711 173.435 83.3094 173.741 81.1105C174.047 78.9116 174.047 75.575 173.971 70.7217C173.894 65.8688 173.741 59.4995 173.664 53.5849C173.588 47.6704 173.588 42.2108 173.588 37.661C173.588 33.1116 173.588 29.4719 173.511 27.4246C173.435 25.3772 173.282 24.9225 173.817 24.8469C174.353 24.771 175.578 25.0741 176.343 25.3016C177.108 25.5291 177.414 25.6807 177.491 28.1831C177.567 30.6855 177.415 35.5381 177.338 40.9976C177.261 46.4571 177.261 52.5236 177.108 58.2107C176.955 63.8974 176.649 69.2054 176.496 73.2245C176.343 77.2433 176.343 79.9729 176.297 82.058C176.251 84.1428 176.16 85.5832 175.21 87.0285C174.259 88.4741 172.45 89.9251 169.052 90.3427C165.653 90.7596 160.667 90.1436 155.954 89.9115C151.241 89.6791 146.803 89.8302 144.43 88.9205C142.058 88.0108 141.752 86.039 141.675 86.115C141.599 86.1905 141.752 88.3139 141.905 89.224C142.058 90.1337 142.211 89.8306 142.211 86.3425C142.211 82.8547 142.058 76.1816 142.058 69.8123C142.058 63.4427 142.211 57.3766 142.135 53.0543C142.058 48.732 141.752 46.154 140.527 44.4101C139.303 42.6663 137.16 41.7558 134.864 41.5286C132.568 41.3011 130.119 41.7558 129.125 41.9837C128.129 42.2112 128.589 42.2112 128.818 49.8697C129.048 57.5281 129.048 72.8454 129.048 80.5039C129.048 88.1623 129.048 88.1623 125.528 88.2383C122.007 88.3139 114.966 88.4655 111.37 88.5414C107.773 88.617 107.619 88.617 107.466 80.6554C107.313 72.6935 107.161 56.7696 107.008 48.808C106.854 40.846 106.701 40.846 105.247 41.0739C103.793 41.3011 101.038 41.7558 99.125 42.6663C97.2118 43.576 96.1403 44.9408 95.4517 49.6418C94.7627 54.3431 94.4569 62.381 94.3038 69.5848C94.1508 76.7882 94.1508 83.1579 93.9977 86.3425C93.8446 89.5275 93.5385 89.5275 90.9363 89.3756C88.3341 89.224 83.4365 88.9205 79.293 88.6782C75.1492 88.4356 71.7593 88.2542 70.065 88.1635C68.3698 88.0728 68.3698 88.0728 69.2229 88.0119C70.0759 87.9511 71.7816 87.829 72.5583 82.4605Z" fill="white"/>
<path d="M72.7885 58.433L73.7281 58.4428L73.7216 59.2028L73.716 59.9765L73.7114 60.7627L73.7077 61.5598L73.7016 63.1816L73.6956 64.8294L73.6922 65.6598L73.688 66.4924L73.6835 67.3262L73.6774 68.1596L73.6706 68.9907L73.6623 69.8188L73.6521 70.6416L73.6404 71.4583L73.6264 72.2675L73.6105 73.0677L73.5916 73.8576L73.5705 74.635L73.5459 75.3996L73.5187 76.1495L73.4881 76.8831L73.4533 77.5993L73.4155 78.2966L73.3732 78.9739L73.3267 79.6293L73.276 80.262L73.2205 80.8705L73.16 81.4529L73.0939 82.0085L73.0228 82.5365L72.0938 82.3846L72.1626 81.8755L72.2265 81.3358L72.2854 80.7669L72.3402 80.1713L72.3901 79.5492L72.4358 78.9036L72.4774 78.2347L72.5152 77.5449L72.5492 76.8355L72.5798 76.1079L72.6071 75.3634L72.6309 74.604L72.652 73.8304L72.6709 73.0442L72.6868 72.2479L72.7008 71.4417L72.7125 70.6272L72.7227 69.8067L72.731 68.9809L72.7378 68.1513L72.7439 67.3194L72.7484 66.4871L72.7526 65.6553L72.756 64.8256L72.762 63.1778L72.7681 61.5552L72.7718 60.7574L72.7764 59.9697L72.782 59.1945L72.7885 58.433ZM73.5557 40.9462L74.4908 41.049L74.4552 41.4213L74.4201 41.8027L74.3857 42.1931L74.3517 42.5937L74.3184 43.0034L74.2855 43.4229L74.253 43.853L74.2217 44.293L74.1907 44.7435L74.1604 45.205L74.131 45.677L74.1022 46.1601L74.0743 46.6544L74.0471 47.1601L74.0206 47.6779L73.9953 48.2074L73.9707 48.7487L73.9469 49.302L73.9242 49.8682L73.9023 50.4464L73.8815 51.0376L73.8619 51.6423L73.8437 52.2599L73.826 52.8907L73.8097 53.5351L73.7942 54.1935L73.7802 54.8655L73.767 55.5518L73.7557 56.2525L73.7451 56.968L73.736 57.6978L73.7281 58.4428L72.7885 58.433L72.7964 57.6857L72.8055 56.9536L72.8161 56.2359L72.8274 55.5329L72.8406 54.8443L72.8546 54.17L72.8701 53.5094L72.8864 52.8627L72.9041 52.2289L72.923 51.609L72.9427 51.002L72.9635 50.4079L72.9854 49.8266L73.0081 49.2582L73.0319 48.7018L73.0564 48.1576L73.0825 47.625L73.109 47.105L73.1362 46.5962L73.1642 46.0988L73.1929 45.612L73.2231 45.137L73.2534 44.6725L73.2843 44.2189L73.3165 43.7752L73.349 43.3421L73.3819 42.9188L73.4159 42.5053L73.4499 42.1016L73.485 41.7074L73.5202 41.3223L73.5557 40.9462ZM75.6027 32.1868L76.4244 32.6721L76.3227 32.8709L76.2252 33.0708L76.1311 33.2726L76.0408 33.4764L75.9538 33.682L75.8703 33.891L75.7894 34.1022L75.7119 34.3169L75.6375 34.5346L75.5657 34.7561L75.4965 34.981L75.4304 35.2104L75.3661 35.4444L75.3049 35.6825L75.2459 35.9262L75.1889 36.1749L75.1337 36.4289L75.0804 36.6886L75.0294 36.9543L74.9802 37.226L74.9326 37.5042L74.8865 37.7884L74.8423 38.0798L74.7988 38.3788L74.7572 38.6845L74.7164 38.9982L74.6767 39.3191L74.6382 39.6479L74.6004 39.9855L74.563 40.3313L74.5267 40.6858L74.4908 41.049L73.5557 40.9462L73.5924 40.5792L73.6294 40.2202L73.6668 39.8698L73.7054 39.527L73.7447 39.1921L73.7851 38.8645L73.8267 38.5439L73.8698 38.2306L73.914 37.9241L73.9598 37.6236L74.0074 37.3296L74.0565 37.0416L74.1079 36.7593L74.1612 36.4822L74.2168 36.2105L74.2742 35.9444L74.3343 35.6828L74.397 35.4255L74.4621 35.1722L74.5301 34.9239L74.6008 34.6794L74.6745 34.4379L74.7516 34.2005L74.8321 33.9662L74.9156 33.7349L75.0025 33.507L75.0929 33.2813L75.1873 33.0583L75.2852 32.8372L75.3869 32.6188L75.4927 32.4015L75.6027 32.1868ZM80.9821 26.4612L81.4523 27.3267L81.252 27.4522L81.0543 27.581L80.8581 27.7133L80.665 27.8486L80.4741 27.987L80.2855 28.1291L80.0992 28.2738L79.9155 28.4216L79.7349 28.572L79.5565 28.7255L79.3811 28.8816L79.2084 29.0407L79.0379 29.2021L78.8712 29.3661L78.7068 29.5328L78.5458 29.7017L78.3882 29.873L78.2333 30.0468L78.0813 30.2226L77.9328 30.4002L77.7877 30.5801L77.6459 30.7619L77.5072 30.946L77.3727 31.1308L77.2415 31.3179L77.1134 31.5072L76.989 31.6981L76.8685 31.8901L76.7517 32.0836L76.6387 32.2782L76.5298 32.4744L76.4244 32.6721L75.6027 32.1868L75.7165 31.9732L75.8344 31.7612L75.9565 31.5507L76.0823 31.3421L76.2127 31.1349L76.3461 30.9305L76.4833 30.7275L76.6243 30.5261L76.7694 30.3269L76.918 30.13L77.0695 29.9353L77.2253 29.7426L77.3844 29.5521L77.5461 29.3642L77.7117 29.179L77.8806 28.9957L78.053 28.8154L78.228 28.6374L78.4067 28.4621L78.5878 28.2901L78.7718 28.1204L78.9593 27.9537L79.1498 27.7897L79.3426 27.6294L79.5383 27.4718L79.7368 27.3172L79.9382 27.1661L80.1419 27.0179L80.3487 26.8735L80.5569 26.7329L80.7682 26.595L80.9821 26.4612ZM90.355 23.8185L90.4464 24.8133L90.0454 24.8564L89.6554 24.9014L89.2748 24.9482L88.9044 24.997L88.5431 25.0476L88.1908 25.1005L87.848 25.155L87.5143 25.2117L87.1885 25.271L86.871 25.3319L86.5614 25.395L86.2598 25.4607L85.9658 25.5288L85.6793 25.5991L85.3989 25.6716L85.1264 25.7465L84.8595 25.8243L84.5991 25.9045L84.3444 25.9876L84.0957 26.0726L83.8523 26.1607L83.6146 26.2518L83.381 26.3455L83.1519 26.4423L82.9274 26.5417L82.7071 26.6445L82.4901 26.7503L82.277 26.8588L82.0668 26.9707L81.8593 27.0863L81.6545 27.2046L81.4523 27.3267L80.9821 26.4612L81.1987 26.3308L81.4171 26.2042L81.6382 26.081L81.8635 25.9608L82.0918 25.8447L82.3231 25.7321L82.5586 25.6225L82.7982 25.5163L83.0416 25.4135L83.2895 25.3137L83.5424 25.2173L83.8001 25.124L84.0632 25.0336L84.3308 24.9467L84.6048 24.8621L84.8845 24.7804L85.1706 24.7018L85.4624 24.6262L85.7609 24.5529L86.0663 24.4826L86.3785 24.4146L86.6986 24.3492L87.026 24.2861L87.3608 24.2252L87.7044 24.167L88.0563 24.1111L88.4161 24.0574L88.7849 24.0052L89.1637 23.9557L89.5511 23.9081L89.9479 23.8624L90.355 23.8185ZM107.691 23.1341L107.701 24.1334L107.065 24.1405L106.433 24.1485L105.806 24.1568L105.183 24.1659L104.565 24.1753L103.952 24.1855L103.345 24.1961L102.743 24.2078L102.146 24.2203L101.556 24.2335L100.971 24.2475L100.393 24.2626L99.8204 24.2785L99.2554 24.2951L98.6971 24.3133L98.1453 24.3322L97.6015 24.3522L97.0651 24.3734L96.5364 24.3957L96.0148 24.4195L95.5015 24.4444L94.9966 24.4705L94.5003 24.4981L94.0128 24.5268L93.5335 24.5574L93.0638 24.5892L92.6034 24.6224L92.1521 24.6576L91.7107 24.6939L91.2791 24.7324L90.8576 24.7717L90.4464 24.8133L90.355 23.8185L90.7722 23.7762L91.1989 23.7361L91.6351 23.6976L92.0818 23.6605L92.5369 23.6254L93.0018 23.5914L93.4761 23.5596L93.9584 23.529L94.4497 23.4995L94.9497 23.4719L95.4577 23.4459L95.9732 23.4209L96.4971 23.3971L97.0288 23.3741L97.5682 23.3529L98.1143 23.3329L98.6677 23.314L99.2282 23.2958L99.7955 23.2792L100.369 23.2633L100.949 23.2482L101.535 23.2342L102.127 23.221L102.725 23.2085L103.328 23.1968L103.937 23.1862L104.551 23.176L105.17 23.1666L105.794 23.1575L106.422 23.1492L107.054 23.1412L107.691 23.1341ZM129.057 23.2096L129.038 24.209L128.377 24.1953L127.714 24.1821L127.049 24.1704L126.381 24.1591L125.712 24.1489L125.04 24.139L124.368 24.1303L123.694 24.1224L123.019 24.1152L122.344 24.1088L121.668 24.1031L120.991 24.0982L120.314 24.0941L119.638 24.0907L118.961 24.088L118.285 24.0857L117.61 24.0842L116.935 24.0835H116.261L115.589 24.0839L114.919 24.085L114.25 24.0869L113.582 24.0891L112.918 24.0918L112.255 24.0952L111.595 24.099L110.938 24.1035L110.284 24.1084L109.633 24.1141L108.985 24.1201L108.341 24.1266L107.701 24.1334L107.691 23.1341L108.332 23.1273L108.977 23.1208L109.625 23.1148L110.277 23.1091L110.932 23.1042L111.59 23.0997L112.251 23.0959L112.914 23.0925L113.579 23.0898L114.247 23.0876L114.917 23.0857L115.589 23.0845L116.261 23.0842H116.936L117.611 23.0849L118.287 23.0864L118.964 23.0887L119.641 23.0913L120.319 23.0947L120.997 23.0989L121.674 23.1038L122.352 23.1095L123.028 23.1159L123.704 23.1231L124.379 23.131L125.053 23.1397L125.725 23.1496L126.395 23.1598L127.064 23.1711L127.731 23.1828L128.396 23.196L129.057 23.2096ZM147.416 24.5053L147.261 25.491L146.822 25.415L146.372 25.3421L145.912 25.2721L145.44 25.2052L144.959 25.141L144.467 25.079L143.965 25.02L143.454 24.9633L142.933 24.9097L142.404 24.8579L141.866 24.8088L141.32 24.7623L140.765 24.7177L140.202 24.675L139.632 24.6349L139.055 24.5967L138.47 24.5605L137.879 24.5264L137.281 24.4939L136.676 24.4629L136.066 24.4338L135.451 24.4066L134.829 24.3813L134.203 24.3571L133.572 24.3341L132.936 24.3125L132.296 24.2925L131.651 24.2736L131.003 24.2558L130.351 24.2392L129.696 24.2237L129.038 24.209L129.057 23.2096L129.717 23.2244L130.373 23.2399L131.026 23.2565L131.676 23.2743L132.322 23.2932L132.965 23.3132L133.603 23.3348L134.236 23.3578L134.865 23.382L135.489 23.4081L136.107 23.4353L136.72 23.4644L137.327 23.4954L137.928 23.5279L138.523 23.5627L139.111 23.5989L139.693 23.6371L140.267 23.6779L140.834 23.7206L141.392 23.7652L141.944 23.8125L142.487 23.8624L143.022 23.9142L143.548 23.9686L144.066 24.026L144.573 24.0857L145.072 24.1485L145.561 24.2135L146.041 24.2819L146.51 24.3533L146.969 24.4278L147.416 24.5053ZM157.16 29.0426L156.496 29.7494L156.307 29.5536L156.115 29.3623L155.919 29.176L155.718 28.9942L155.513 28.817L155.302 28.6446L155.087 28.4757L154.866 28.3116L154.639 28.1518L154.406 27.9957L154.167 27.8437L153.921 27.6956L153.669 27.5516L153.41 27.4117L153.143 27.2753L152.869 27.1422L152.587 27.0134L152.297 26.8879L151.999 26.7662L151.691 26.6479L151.376 26.533L151.052 26.4219L150.717 26.3142L150.374 26.2095L150.022 26.1085L149.658 26.0107L149.285 25.9162L148.902 25.8247L148.508 25.7366L148.103 25.6516L147.688 25.57L147.261 25.491L147.416 24.5053L147.853 24.5858L148.28 24.6697L148.696 24.757L149.102 24.8481L149.497 24.9418L149.883 25.0401L150.259 25.141L150.626 25.2464L150.983 25.3549L151.332 25.4679L151.672 25.5843L152.004 25.7053L152.327 25.8296L152.642 25.9581L152.95 26.0912L153.249 26.2284L153.541 26.3697L153.826 26.5152L154.104 26.6656L154.375 26.8202L154.639 26.9797L154.897 27.1438L155.149 27.3119L155.394 27.4854L155.634 27.6631L155.867 27.8456L156.096 28.0331L156.318 28.2255L156.536 28.4224L156.749 28.6246L156.957 28.8309L157.16 29.0426ZM161.568 37.9135L160.659 38.1675L160.58 37.8542L160.498 37.5431L160.413 37.2355L160.324 36.9297L160.233 36.6262L160.138 36.3261L160.04 36.0291L159.939 35.7342L159.835 35.4425L159.727 35.1541L159.617 34.8687L159.502 34.5868L159.385 34.3079L159.264 34.0327L159.14 33.7606L159.012 33.4926L158.882 33.228L158.747 32.9669L158.609 32.7099L158.468 32.4574L158.323 32.2076L158.175 31.9627L158.023 31.7215L157.868 31.4845L157.709 31.2521L157.547 31.0238L157.381 30.8001L157.211 30.5805L157.038 30.3658L156.861 30.1557L156.68 29.9501L156.496 29.7494L157.16 29.0426L157.359 29.2592L157.554 29.4806L157.744 29.7067L157.931 29.9372L158.112 30.1727L158.29 30.4123L158.464 30.6565L158.634 30.9048L158.799 31.1576L158.961 31.4139L159.118 31.6747L159.272 31.9388L159.421 32.2072L159.567 32.4793L159.709 32.7548L159.848 33.0345L159.982 33.3169L160.112 33.6026L160.24 33.8921L160.362 34.1846L160.482 34.4802L160.598 34.7792L160.711 35.0804L160.82 35.385L160.925 35.6919L161.027 36.0018L161.125 36.3148L161.221 36.6296L161.313 36.9467L161.401 37.2672L161.486 37.5896L161.568 37.9135ZM162.884 50.6891L161.944 50.7186L161.93 50.2132L161.914 49.7166L161.898 49.2306L161.879 48.7528L161.861 48.2842L161.84 47.8242L161.819 47.3733L161.796 46.9303L161.771 46.4953L161.746 46.0679L161.718 45.6487L161.689 45.2364L161.658 44.8308L161.626 44.4325L161.591 44.0416L161.555 43.6561L161.516 43.277L161.477 42.9036L161.434 42.5366L161.389 42.1746L161.342 41.8178L161.293 41.4655L161.242 41.1189L161.187 40.7761L161.131 40.4379L161.072 40.1034L161.01 39.7727L160.946 39.4454L160.879 39.1222L160.808 38.8013L160.735 38.4831L160.659 38.1675L161.568 37.9135L161.647 38.2405L161.722 38.5693L161.795 38.9007L161.864 39.2352L161.931 39.5731L161.994 39.9136L162.056 40.258L162.113 40.6061L162.169 40.9579L162.222 41.3143L162.272 41.6749L162.321 42.04L162.366 42.4104L162.409 42.7857L162.451 43.1667L162.49 43.5526L162.527 43.9449L162.562 44.3433L162.595 44.7477L162.626 45.1585L162.655 45.5761L162.683 46.0013L162.709 46.4333L162.734 46.8729L162.757 47.3204L162.779 47.7758L162.799 48.2396L162.818 48.7113L162.836 49.192L162.853 49.6818L162.869 50.1807L162.884 50.6891ZM162.884 69.3705L161.944 69.3441L161.958 68.773L161.971 68.1966L161.983 67.6149L161.995 67.0284L162.005 66.4376L162.014 65.8431L162.023 65.2456L162.031 64.645L162.037 64.0422L162.043 63.4382L162.048 62.8319L162.052 62.2261L162.055 61.6195L162.058 61.0129L162.059 60.4074L162.059 59.803L162.059 59.2006L162.058 58.6004L162.055 58.0028L162.052 57.4091L162.048 56.8187L162.043 56.2325L162.037 55.6512L162.031 55.0756L162.023 54.5053L162.014 53.9414L162.005 53.3843L161.995 52.8347L161.983 52.2927L161.971 51.7587L161.958 51.2341L161.944 50.7186L162.884 50.6891L162.898 51.2069L162.911 51.7337L162.923 52.2693L162.934 52.8136L162.945 53.3654L162.954 53.924L162.963 54.4902L162.97 55.062L162.977 55.6399L162.983 56.2227L162.988 56.8104L162.992 57.4023L162.995 57.9983L162.997 58.5974L162.999 59.1991L162.999 59.803L162.999 60.4089L162.997 61.0159L162.995 61.624L162.992 62.2321L162.988 62.8403L162.983 63.4473L162.977 64.0535L162.97 64.6578L162.963 65.2599L162.954 65.859L162.945 66.455L162.934 67.048L162.923 67.6361L162.911 68.2193L162.898 68.7979L162.884 69.3705ZM163.024 82.9629L162.112 83.201L162.053 82.93L162.001 82.6461L161.955 82.3513L161.914 82.0444L161.877 81.7262L161.845 81.3962L161.818 81.0549L161.795 80.7019L161.776 80.3383L161.76 79.9638L161.748 79.5775L161.74 79.1818L161.734 78.7751L161.732 78.3582V77.9315L161.734 77.4946L161.739 77.0483L161.746 76.5928L161.754 76.128L161.764 75.6536L161.776 75.1706L161.789 74.6796L161.803 74.1796L161.818 73.672L161.85 72.6326L161.883 71.5634L161.898 71.0188L161.914 70.467L161.93 69.9084L161.944 69.3441L162.884 69.3705L162.869 69.9371L162.854 70.4972L162.838 71.0498L162.821 71.5959L162.788 72.6652L162.757 73.7038L162.742 74.2106L162.728 74.7084L162.716 75.1978L162.704 75.6778L162.694 76.1491L162.685 76.6102L162.678 77.0619L162.674 77.5037L162.671 77.9346V78.3552L162.674 78.7645L162.68 79.1629L162.688 79.5503L162.699 79.9252L162.715 80.2885L162.733 80.64L162.755 80.9778L162.781 81.3033L162.811 81.6151L162.845 81.9137L162.883 82.1979L162.926 82.4677L162.973 82.7228L163.024 82.9629ZM166.47 85.539V86.539L166.3 86.5375L166.131 86.5345L165.963 86.5285L165.795 86.5198L165.627 86.5073L165.459 86.4907L165.293 86.4695L165.128 86.4434L164.964 86.4117L164.801 86.3743L164.639 86.33L164.478 86.2786L164.32 86.2197L164.163 86.152L164.009 86.0761L163.858 85.991L163.71 85.8961L163.566 85.7915L163.425 85.6769L163.289 85.5515L163.158 85.4158L163.033 85.2691L162.914 85.1126L162.8 84.9448L162.692 84.7664L162.59 84.5775L162.495 84.3764L162.406 84.1647L162.323 83.9417L162.246 83.707L162.176 83.4602L162.112 83.201L163.024 82.9629L163.08 83.1874L163.14 83.3979L163.204 83.594L163.272 83.777L163.344 83.947L163.418 84.1035L163.496 84.2486L163.577 84.3824L163.66 84.5049L163.746 84.6183L163.835 84.7218L163.926 84.816L164.019 84.9029L164.117 84.9819L164.217 85.0548L164.32 85.1202L164.427 85.1803L164.537 85.2351L164.651 85.2839L164.769 85.3277L164.891 85.367L165.017 85.4014L165.147 85.4313L165.281 85.457L165.418 85.4785L165.559 85.4966L165.703 85.511L165.851 85.522L166.001 85.5299L166.155 85.5352L166.312 85.5382L166.47 85.539ZM171.314 84.6051L171.729 85.5016L171.594 85.57L171.456 85.6357L171.315 85.6988L171.17 85.7593L171.022 85.8168L170.872 85.8716L170.719 85.9245L170.564 85.9748L170.406 86.0228L170.246 86.0681L170.084 86.1116L169.92 86.1524L169.754 86.1917L169.587 86.228L169.418 86.2624L169.248 86.2945L169.077 86.3251L168.904 86.3535L168.731 86.3792L168.557 86.403L168.383 86.4249L168.208 86.4453L168.032 86.4631L167.858 86.4789L167.682 86.4933L167.507 86.5054L167.332 86.5156L167.159 86.5239L166.985 86.5307L166.813 86.5353L166.641 86.5379L166.47 86.539V85.539L166.631 85.5386L166.794 85.536L166.957 85.5314L167.12 85.5254L167.285 85.5171L167.451 85.5076L167.616 85.4963L167.781 85.4827L167.948 85.4675L168.112 85.4505L168.277 85.4316L168.441 85.4112L168.605 85.3882L168.768 85.364L168.928 85.3379L169.089 85.3096L169.247 85.2797L169.404 85.2476L169.558 85.2136L169.711 85.178L169.862 85.1402L170.01 85.1006L170.156 85.059L170.298 85.0155L170.438 84.9705L170.574 84.9237L170.707 84.8749L170.837 84.8243L170.962 84.7721L171.083 84.7181L171.201 84.6621L171.314 84.6051ZM173.276 81.0372L174.206 81.1838L174.175 81.394L174.142 81.5977L174.107 81.7957L174.07 81.9885L174.031 82.1752L173.989 82.3562L173.944 82.5327L173.897 82.7051L173.847 82.8714L173.794 83.0332L173.738 83.1896L173.678 83.3427L173.616 83.4909L173.55 83.6341L173.48 83.7736L173.407 83.9085L173.33 84.0389L173.249 84.1655L173.164 84.2876L173.076 84.4055L172.984 84.5189L172.888 84.6277L172.788 84.7324L172.685 84.8337L172.578 84.9301L172.467 85.0231L172.352 85.1123L172.235 85.1966L172.114 85.2778L171.989 85.3557L171.861 85.4301L171.729 85.5016L171.314 84.6051L171.422 84.5465L171.526 84.4856L171.625 84.4236L171.721 84.3598L171.812 84.2936L171.899 84.2263L171.983 84.1561L172.063 84.0839L172.14 84.009L172.214 83.9308L172.285 83.8499L172.353 83.766L172.419 83.6791L172.482 83.588L172.543 83.4924L172.602 83.393L172.658 83.289L172.712 83.1798L172.765 83.0653L172.816 82.9466L172.864 82.8223L172.911 82.6907L172.956 82.5539L172.999 82.4118L173.04 82.2636L173.079 82.1083L173.116 81.9462L173.152 81.7783L173.185 81.6037L173.217 81.4216L173.248 81.233L173.276 81.0372ZM173.501 70.73L174.44 70.7134L174.447 71.1643L174.454 71.6065L174.46 72.04L174.465 72.4648L174.47 72.8813L174.474 73.2892L174.477 73.6886L174.48 74.0802L174.482 74.4631L174.483 74.838V75.2046L174.482 75.5637L174.48 75.9144L174.477 76.2572L174.474 76.5928L174.469 76.9201L174.463 77.2407L174.456 77.5528L174.448 77.8578L174.438 78.1553L174.427 78.4456L174.415 78.7286L174.401 79.0049L174.386 79.2737L174.369 79.536L174.35 79.7911L174.331 80.0398L174.309 80.2817L174.286 80.5164L174.261 80.7454L174.234 80.968L174.206 81.1838L173.276 81.0372L173.303 80.8342L173.328 80.6245L173.352 80.4068L173.374 80.1819L173.395 79.9506L173.414 79.7109L173.432 79.4641L173.447 79.2102L173.463 78.9482L173.476 78.6795L173.488 78.4025L173.499 78.1183L173.508 77.8261L173.516 77.5256L173.523 77.218L173.53 76.9028L173.534 76.5792L173.538 76.2474L173.54 75.9076L173.542 75.5599L173.543 75.2039V74.8395L173.542 74.4676L173.54 74.0862L173.537 73.697L173.534 73.299L173.53 72.8927L173.525 72.4777L173.52 72.0544L173.514 71.6216L173.508 71.1802L173.501 70.73ZM173.195 53.5918L174.134 53.5782L174.142 54.1334L174.149 54.6912L174.158 55.251L174.166 55.8122L174.175 56.3746L174.184 56.9382L174.194 57.5021L174.203 58.066L174.223 59.193L174.245 60.3167L174.266 61.4335L174.287 62.5413L174.308 63.6359L174.33 64.7157L174.351 65.7777L174.371 66.8182L174.39 67.8353L174.408 68.8248L174.417 69.3089L174.425 69.7855L174.433 70.2538L174.44 70.7134L173.501 70.73L173.493 70.2712L173.486 69.8037L173.477 69.3278L173.469 68.8444L173.451 67.8549L173.431 66.8386L173.411 65.7981L173.39 64.7368L173.369 63.657L173.348 62.5617L173.326 61.4539L173.305 60.3371L173.284 59.2127L173.264 58.0849L173.254 57.5202L173.245 56.9555L173.235 56.392L173.226 55.8289L173.218 55.2668L173.21 54.7063L173.202 54.1477L173.195 53.5918ZM173.118 37.6611H174.058V38.5247V39.4091L174.058 40.3128L174.059 41.2365L174.06 42.1783L174.062 43.1383L174.064 44.1154L174.067 45.1094L174.069 45.612L174.071 46.1193L174.073 46.6299L174.076 47.1439L174.079 47.6624L174.082 48.184L174.086 48.709L174.09 49.2374L174.094 49.7695L174.099 50.3043L174.104 50.8425L174.109 51.3838L174.115 51.928L174.121 52.4753L174.127 53.0252L174.134 53.5782L173.195 53.5918L173.188 53.0381L173.181 52.4874L173.175 51.9394L173.169 51.3943L173.164 50.8524L173.159 50.3134L173.155 49.7778L173.15 49.2457L173.146 48.7165L173.143 48.1908L173.139 47.6685L173.137 47.1499L173.134 46.6352L173.132 46.1238L173.129 45.6166L173.127 45.1131L173.124 44.1184L173.122 43.1406L173.12 42.1799L173.119 41.2372L173.118 40.3135L173.118 39.4091V38.5247V37.6611ZM173.042 27.4446L173.981 27.4045V27.4049L173.988 27.603L173.994 27.8108L174.001 28.0274L174.006 28.2527L174.012 28.487L174.017 28.7293L174.021 28.9806L174.025 29.2399L174.029 29.5075L174.033 29.7834L174.036 30.0665L174.039 30.3582L174.042 30.6583L174.044 30.9652L174.046 31.2797L174.048 31.6017L174.05 31.9313L174.051 32.2677L174.052 32.6108L174.053 32.9612L174.055 33.6823L174.056 34.4296L174.057 35.2021L174.058 35.9988V36.819V37.6611H173.118V36.819V35.9988L173.118 35.2028L173.117 34.4311L173.116 33.6846L173.114 32.9642L173.113 32.6146L173.112 32.2714L173.11 31.9358L173.108 31.607L173.107 31.2865L173.104 30.9728L173.102 30.6667L173.099 30.3688L173.096 30.0786L173.093 29.7962L173.09 29.5218L173.086 29.2558L173.082 28.9988L173.077 28.7497L173.072 28.5097L173.067 28.2784L173.061 28.0561L173.056 27.8433L173.049 27.6393L173.042 27.4442V27.4446ZM173.755 24.3514L173.879 25.3424L173.857 25.3462L173.845 25.3492L173.842 25.3496L173.849 25.347L173.862 25.339L173.878 25.3269L173.895 25.3107L173.91 25.2918L173.919 25.2763L173.923 25.2699V25.2691L173.92 25.2786L173.916 25.3001L173.912 25.3303L173.907 25.3723L173.904 25.4233L173.902 25.4834L173.901 25.5526L173.901 25.6297L173.903 25.7155L173.906 25.81L173.91 25.912L173.915 26.0224L173.921 26.1414L173.934 26.4056L173.949 26.7023L173.958 26.8641L173.966 27.0353L173.973 27.2152L173.981 27.4045L173.042 27.4446L173.034 27.259L173.027 27.0829L173.019 26.9155L173.011 26.756L172.996 26.46L172.983 26.1959L172.976 26.0738L172.971 25.9574L172.967 25.847L172.963 25.7427L172.961 25.6433L172.961 25.548L172.962 25.457L172.966 25.3696L172.971 25.2839L172.98 25.2003L172.992 25.1164L173.009 25.0329L173.033 24.9479L173.065 24.8617L173.104 24.7789L173.155 24.6954L173.218 24.6168L173.289 24.5476L173.366 24.4902L173.446 24.4437L173.526 24.4085L173.604 24.3824L173.68 24.3643L173.755 24.3514ZM176.47 24.8201L176.216 25.7831L176.145 25.762L176.072 25.7404L175.996 25.7189L175.919 25.6973L175.838 25.6754L175.757 25.6535L175.675 25.6316L175.59 25.6096L175.506 25.5881L175.421 25.5673L175.335 25.5462L175.248 25.5261L175.162 25.5065L175.077 25.4876L174.991 25.469L174.906 25.4513L174.822 25.435L174.739 25.4192L174.66 25.4052L174.579 25.3916L174.502 25.3795L174.427 25.3689L174.354 25.3594L174.283 25.3515L174.217 25.3447L174.155 25.3402L174.095 25.3368L174.04 25.3349H173.992L173.947 25.3364L173.909 25.339L173.879 25.3424L173.755 24.3514L173.829 24.3427L173.904 24.3378L173.978 24.3356H174.056L174.134 24.3382L174.212 24.3424L174.294 24.3484L174.378 24.3567L174.46 24.3662L174.545 24.3771L174.633 24.3892L174.721 24.4036L174.809 24.418L174.9 24.4342L174.99 24.4516L175.082 24.4694L175.174 24.4886L175.265 24.5079L175.357 24.5283L175.449 24.5495L175.54 24.571L175.631 24.593L175.722 24.6153L175.812 24.6383L175.899 24.661L175.986 24.6837L176.071 24.7071L176.155 24.7298L176.238 24.7528L176.317 24.7759L176.395 24.7982L176.47 24.8201ZM177.96 28.1669L177.021 28.1994L177.013 27.9756L177.004 27.7666L176.994 27.5708L176.982 27.3872L176.969 27.2171L176.955 27.0606L176.939 26.9159L176.922 26.7821L176.903 26.6611L176.884 26.5507L176.864 26.4521L176.843 26.3656L176.821 26.2885L176.799 26.2208L176.778 26.1641L176.756 26.1157L176.736 26.076L176.717 26.0454L176.698 26.0178L176.679 25.9948L176.662 25.977L176.643 25.9604L176.622 25.9438L176.597 25.9271L176.569 25.9113L176.535 25.8942L176.496 25.8769L176.451 25.8591L176.401 25.841L176.345 25.8224L176.283 25.8032L176.216 25.7831L176.47 24.8201L176.544 24.8424L176.617 24.8655L176.692 24.89L176.767 24.9172L176.842 24.9471L176.917 24.9811L176.993 25.0193L177.072 25.0646L177.148 25.1153L177.222 25.1727L177.295 25.2385L177.365 25.3122L177.429 25.3904L177.488 25.474L177.544 25.5666L177.594 25.6629L177.639 25.7635L177.679 25.8701L177.715 25.9808L177.749 26.098L177.778 26.2223L177.805 26.3527L177.829 26.4903L177.851 26.6362L177.871 26.7904L177.889 26.954L177.905 27.1286L177.919 27.3131L177.932 27.5081L177.943 27.7152L177.952 27.9348L177.96 28.1669ZM177.808 41.0052L176.868 40.9901L176.876 40.4798L176.883 39.9734L176.891 39.4707L176.9 38.9729L176.908 38.4801L176.917 37.9921L176.926 37.5102L176.935 37.0336L176.953 36.1001L176.97 35.1934L176.979 34.7516L176.987 34.3165L176.995 33.8902L177.002 33.4722L177.009 33.0629L177.015 32.663L177.021 32.2722L177.026 31.8912L177.031 31.5201L177.035 31.1591L177.038 30.8091L177.04 30.4709L177.041 30.1428L177.042 29.8276L177.041 29.5233L177.04 29.2323L177.037 28.9538L177.033 28.6885L177.027 28.4371L177.021 28.1994L177.96 28.1669L177.967 28.4122L177.972 28.6703L177.976 28.9409L177.979 29.224L177.981 29.5196L177.981 29.8268L177.981 30.1458L177.98 30.4762L177.978 30.8175L177.974 31.1697L177.97 31.5322L177.966 31.9048L177.961 32.2873L177.955 32.6789L177.949 33.081L177.941 33.4903L177.934 33.9091L177.926 34.3362L177.918 34.7712L177.91 35.2138L177.893 36.1205L177.874 37.0541L177.866 37.5299L177.857 38.0118L177.848 38.499L177.839 38.9911L177.831 39.4881L177.823 39.99L177.815 40.4957L177.808 41.0052ZM177.578 58.2251L176.638 58.1964L176.652 57.6627L176.665 57.1279L176.677 56.5904L176.689 56.0511L176.7 55.5106L176.71 54.9686L176.719 54.4259L176.728 53.8813L176.736 53.3366L176.744 52.7909L176.751 52.2447L176.758 51.6982L176.765 51.1517L176.771 50.6056L176.777 50.059L176.782 49.5136L176.792 48.4244L176.802 47.3389L176.812 46.2587L176.821 45.1857L176.826 44.6524L176.832 44.1206L176.837 43.5919L176.843 43.0658L176.848 42.5423L176.854 42.0219L176.861 41.5041L176.868 40.9901L177.808 41.0052L177.801 41.5184L177.794 42.0347L177.788 42.5544L177.782 43.0771L177.777 43.6032L177.771 44.1312L177.766 44.6622L177.761 45.1955L177.751 46.2685L177.742 47.3487L177.732 48.4342L177.722 49.5242L177.716 50.0704L177.71 50.6169L177.704 51.1638L177.698 51.7111L177.691 52.2583L177.684 52.8052L177.676 53.3518L177.668 53.8979L177.659 54.4433L177.65 54.9875L177.639 55.531L177.628 56.073L177.617 56.6139L177.605 57.1528L177.592 57.6899L177.578 58.2251ZM176.965 73.2449L176.026 73.2041L176.041 72.8231L176.057 72.4342L176.073 72.0385L176.09 71.636L176.108 71.2263L176.126 70.8102L176.145 70.3872L176.165 69.9582L176.205 69.0822L176.247 68.1826L176.289 67.2612L176.332 66.3186L176.354 65.8405L176.375 65.3574L176.397 64.8699L176.418 64.3778L176.439 63.8815L176.459 63.3819L176.48 62.8777L176.5 62.3697L176.52 61.8587L176.538 61.3443L176.557 60.8265L176.575 60.3061L176.592 59.7823L176.608 59.2561L176.623 58.7278L176.638 58.1964L177.578 58.2251L177.563 58.758L177.547 59.2886L177.531 59.8163L177.514 60.3416L177.496 60.8636L177.477 61.3829L177.458 61.8988L177.439 62.4113L177.419 62.92L177.398 63.425L177.378 63.9261L177.357 64.4231L177.335 64.916L177.314 65.4043L177.293 65.8881L177.271 66.3669L177.228 67.3096L177.186 68.2318L177.144 69.1313L177.104 70.0074L177.084 70.4356L177.065 70.8578L177.047 71.2731L177.029 71.6813L177.012 72.0831L176.995 72.4781L176.98 72.8647L176.965 73.2449ZM176.767 82.0698L175.827 82.0463L175.831 81.8502L175.835 81.6495L175.839 81.4442L175.843 81.236L175.849 80.8051L175.856 80.3557L175.863 79.8867L175.87 79.3984L175.877 78.8889L175.886 78.3571L175.891 78.0831L175.896 77.8027L175.902 77.5169L175.908 77.2244L175.914 76.9258L175.921 76.6216L175.929 76.3105L175.937 75.993L175.945 75.6691L175.954 75.338L175.965 75.0001L175.976 74.6558L175.987 74.3036L175.999 73.9445L176.012 73.5783L176.026 73.2041L176.965 73.2449L176.951 73.6168L176.938 73.9816L176.926 74.3391L176.914 74.6891L176.904 75.0326L176.894 75.369L176.885 75.6978L176.876 76.021L176.868 76.337L176.861 76.6465L176.854 76.95L176.847 77.2471L176.842 77.5381L176.836 77.8231L176.831 78.102L176.826 78.3753L176.817 78.9055L176.809 79.4143L176.802 79.9026L176.795 80.3708L176.789 80.821L176.782 81.2534L176.778 81.4639L176.775 81.6691L176.771 81.8713L176.767 82.0698ZM175.595 87.315L174.824 86.742L174.904 86.6173L174.979 86.4933L175.049 86.3693L175.115 86.2454L175.177 86.121L175.235 85.9967L175.288 85.8716L175.339 85.7457L175.386 85.6187L175.43 85.4902L175.471 85.3613L175.508 85.2306L175.543 85.0975L175.575 84.963L175.604 84.8258L175.631 84.6867L175.656 84.5453L175.679 84.4021L175.698 84.2554L175.717 84.105L175.733 83.9527L175.748 83.797L175.761 83.6379L175.773 83.4754L175.783 83.3102L175.792 83.1412L175.799 82.9678L175.807 82.7916L175.813 82.6117L175.818 82.4273L175.823 82.2383L175.827 82.0463L176.767 82.0698L176.762 82.2648L176.757 82.456L176.752 82.6442L176.746 82.8302L176.738 83.0131L176.73 83.1927L176.721 83.3707L176.71 83.5464L176.698 83.7195L176.684 83.89L176.668 84.0593L176.65 84.2267L176.629 84.3915L176.607 84.5555L176.581 84.7184L176.554 84.8794L176.523 85.0389L176.488 85.1973L176.451 85.3545L176.41 85.5102L176.366 85.6652L176.317 85.8198L176.265 85.9725L176.208 86.1252L176.148 86.276L176.083 86.4268L176.013 86.5768L175.939 86.7254L175.861 86.8735L175.776 87.0217L175.688 87.1683L175.595 87.315ZM169.106 90.8394L168.998 89.8461H168.998L169.302 89.8053L169.597 89.7588L169.882 89.707L170.159 89.6503L170.426 89.588L170.684 89.5215L170.934 89.45L171.176 89.3744L171.408 89.2947L171.633 89.2108L171.85 89.1231L172.059 89.0316L172.26 88.9372L172.453 88.8396L172.639 88.7391L172.818 88.6352L172.99 88.529L173.155 88.4209L173.313 88.3097L173.465 88.1967L173.61 88.0822L173.748 87.9654L173.881 87.8479L174.008 87.7285L174.129 87.6071L174.244 87.4854L174.353 87.363L174.458 87.2398L174.557 87.1158L174.651 86.9911L174.74 86.8667L174.824 86.742L175.595 87.315L175.496 87.4616L175.391 87.6079L175.281 87.753L175.165 87.8982L175.043 88.0425L174.915 88.1854L174.781 88.3268L174.641 88.4662L174.494 88.6053L174.341 88.7417L174.181 88.8759L174.014 89.0078L173.841 89.1367L173.661 89.2629L173.473 89.3869L173.279 89.5067L173.077 89.6235L172.868 89.7369L172.651 89.8465L172.427 89.9516L172.195 90.0529L171.955 90.1496L171.708 90.2418L171.452 90.3299L171.188 90.4123L170.916 90.4898L170.637 90.5624L170.348 90.6292L170.05 90.6905L169.744 90.746L169.43 90.7955L169.106 90.8394H169.106ZM155.932 90.4108L155.976 89.4122H155.976L156.421 89.4349L156.866 89.4599L157.313 89.4867L157.759 89.515L158.206 89.5441L158.652 89.5744L159.097 89.6054L159.542 89.6364L159.986 89.6681L160.427 89.6995L160.867 89.7305L161.303 89.7611L161.738 89.7906L162.169 89.8189L162.598 89.8461L163.022 89.8711L163.442 89.8949L163.857 89.916L164.268 89.9349L164.673 89.9512L165.073 89.9644L165.467 89.9746L165.854 89.9814L166.235 89.9841L166.61 89.9833L166.976 89.978L167.335 89.9682L167.686 89.9542L168.027 89.9349L168.361 89.9108L168.684 89.8813L168.998 89.8461L169.106 90.8394L168.773 90.8768L168.432 90.9078L168.084 90.9327L167.728 90.9528L167.364 90.9675L166.994 90.9773L166.616 90.9826L166.233 90.9834L165.844 90.9807L165.448 90.9739L165.047 90.9637L164.64 90.9505L164.229 90.9335L163.814 90.9146L163.394 90.8934L162.97 90.8696L162.543 90.8439L162.113 90.8167L161.679 90.7884L161.243 90.7589L160.805 90.7283L160.365 90.6973L159.923 90.6659L159.48 90.6342L159.036 90.6032L158.592 90.5722L158.147 90.5419L157.702 90.5128L157.258 90.4845L156.815 90.4584L156.373 90.4335L155.933 90.4108H155.932ZM144.271 89.3907L144.59 88.4503L144.801 88.5267L145.025 88.5978L145.264 88.6647L145.514 88.7266L145.776 88.7841L146.05 88.8374L146.335 88.8865L146.631 88.9311L146.938 88.9723L147.254 89.0097L147.58 89.0434L147.915 89.0743L148.258 89.1023L148.61 89.1273L148.97 89.1503L149.338 89.1707L149.713 89.1896L150.095 89.2066L150.483 89.2218L150.878 89.2361L151.278 89.2493L151.685 89.2622L152.096 89.2747L152.512 89.2868L152.933 89.2992L153.357 89.3121L153.786 89.3253L154.219 89.3397L154.654 89.3555L155.092 89.3726L155.533 89.3915L155.976 89.4122L155.932 90.4108L155.494 90.39L155.057 90.3719L154.621 90.3549L154.188 90.339L153.758 90.3246L153.33 90.3114L152.906 90.2985L152.486 90.2861L152.069 90.274L151.657 90.2615L151.25 90.2486L150.847 90.2354L150.45 90.2211L150.058 90.2052L149.671 90.1882L149.291 90.1693L148.917 90.1481L148.551 90.1251L148.191 90.0994L147.838 90.0706L147.493 90.0389L147.156 90.0037L146.827 89.9648L146.507 89.9221L146.194 89.8745L145.891 89.8223L145.598 89.7652L145.313 89.7033L145.037 89.6345L144.772 89.56L144.516 89.4791L144.271 89.3907ZM141.995 86.4816L141.356 85.7484L141.354 85.7499L141.89 85.6652L142.074 85.8326L142.121 85.9143L142.149 85.9766L142.188 86.0738L142.236 86.1966L142.263 86.2612L142.295 86.3353L142.331 86.4132L142.37 86.496L142.415 86.5829L142.464 86.674L142.519 86.7685L142.58 86.866L142.646 86.9661L142.719 87.0685L142.798 87.1725L142.884 87.2776L142.977 87.3826L143.078 87.4881L143.187 87.5935L143.304 87.6982L143.43 87.8018L143.565 87.9034L143.71 88.0029L143.864 88.1L144.028 88.1937L144.204 88.2837L144.39 88.3691L144.59 88.4503L144.271 89.3907L144.037 89.2951L143.814 89.193L143.604 89.0849L143.404 88.9715L143.215 88.8532L143.038 88.7312L142.872 88.6053L142.715 88.4768L142.569 88.3464L142.433 88.2145L142.306 88.0818L142.188 87.9488L142.079 87.8165L141.98 87.6854L141.888 87.5565L141.803 87.4299L141.727 87.3067L141.658 87.1872L141.596 87.0727L141.54 86.9631L141.489 86.8592L141.445 86.7624L141.407 86.674L141.372 86.5904L141.322 86.4616L141.288 86.3765L141.287 86.3761L141.311 86.4155L141.476 86.5625L141.996 86.4801L141.995 86.4816ZM141.996 86.4801L141.994 86.4824L141.995 86.4816L141.996 86.4801ZM142.367 89.136L141.442 89.3121L141.427 89.2172L141.411 89.1159L141.397 89.0105L141.382 88.9005L141.368 88.7852L141.354 88.6662L141.34 88.5448L141.327 88.4209L141.314 88.2943L141.301 88.1661L141.289 88.0372L141.277 87.9076L141.266 87.7776L141.255 87.6487L141.245 87.5202L141.236 87.3951L141.227 87.2719L141.219 87.1513L141.211 87.0345L141.205 86.9219L141.199 86.8127L141.194 86.7087L141.19 86.6112L141.187 86.5179L141.186 86.4325L141.185 86.3535L141.185 86.2798L141.187 86.211L141.191 86.1429L141.2 86.0692L141.223 85.9698L141.356 85.7484L141.995 86.4816L142.114 86.2858L142.127 86.2355L142.127 86.2321L142.126 86.2548L142.125 86.2964L142.125 86.3504L142.125 86.4166L142.127 86.4914L142.129 86.5734L142.133 86.6634L142.137 86.7598L142.143 86.8622L142.149 86.9703L142.156 87.0825L142.164 87.1986L142.172 87.318L142.181 87.4401L142.191 87.5633L142.201 87.6876L142.212 87.8131L142.224 87.9382L142.236 88.0633L142.248 88.1869L142.26 88.309L142.274 88.4284L142.286 88.5452L142.3 88.6567L142.313 88.7637L142.327 88.8669L142.34 88.964L142.354 89.0532L142.367 89.136ZM141.741 86.3425H142.681L142.68 86.6619L142.679 86.9627L142.677 87.2462L142.674 87.5123L142.67 87.7613L142.666 87.9934L142.66 88.2096L142.654 88.4095L142.647 88.5943L142.64 88.7652L142.632 88.9213L142.623 89.063L142.614 89.1915L142.603 89.3083L142.592 89.4126L142.58 89.5082L142.566 89.5944L142.549 89.6783L142.525 89.7618L142.489 89.8556L142.403 89.9894L142.169 90.1432L141.831 90.1122L141.659 89.9716L141.591 89.8647L141.555 89.7853L141.529 89.7104L141.509 89.6375L141.491 89.5638L141.474 89.4859L141.458 89.402L141.442 89.3121L142.367 89.136L142.38 89.2093L142.393 89.2735L142.404 89.3287L142.415 89.3714L142.422 89.3975L142.424 89.4043L142.416 89.3877L142.375 89.3246L142.23 89.2074L141.918 89.1794L141.709 89.3151L141.649 89.4081L141.636 89.4383L141.637 89.4349L141.643 89.4069L141.651 89.3563L141.659 89.2902L141.668 89.2055L141.677 89.1061L141.685 88.9912L141.694 88.8601L141.701 88.7145L141.709 88.5528L141.715 88.3748L141.721 88.1801L141.726 87.97L141.73 87.7424L141.734 87.4979L141.737 87.2364L141.739 86.9567L141.741 86.6589L141.741 86.3425ZM141.588 69.8124H142.528L142.528 70.4095L142.529 71.0078L142.531 71.6069L142.534 72.2052L142.538 72.8035L142.542 73.4003L142.546 73.9948L142.551 74.5867L142.557 75.1755L142.563 75.7606L142.57 76.3407L142.576 76.916L142.583 77.4848L142.59 78.0476L142.597 78.6032L142.604 79.1512L142.618 80.2208L142.632 81.2519L142.645 82.2391L142.657 83.1775L142.662 83.6269L142.667 84.0623L142.67 84.4826L142.674 84.8878L142.677 85.2774L142.679 85.6493L142.68 86.0046L142.681 86.3425H141.741L141.741 86.0076L141.739 85.6546L141.737 85.2835L141.735 84.8961L141.731 84.4924L141.727 84.0729L141.722 83.639L141.717 83.1904L141.706 82.2527L141.693 81.2662L141.679 80.2352L141.665 79.1648L141.658 78.6168L141.65 78.0612L141.643 77.4977L141.636 76.9281L141.63 76.3528L141.624 75.7719L141.617 75.1861L141.612 74.5965L141.607 74.0039L141.602 73.4078L141.598 72.8103L141.594 72.2112L141.592 71.6107L141.59 71.0109L141.588 70.411L141.588 69.8124ZM141.665 53.0638L142.604 53.0449L142.611 53.4572L142.616 53.8786L142.62 54.3106L142.623 54.7513L142.625 55.2011L142.625 55.6595V56.1263L142.625 56.6022L142.623 57.0856L142.62 57.5765L142.617 58.0747L142.614 58.5804L142.61 59.0936L142.605 59.6129L142.6 60.139L142.594 60.6708L142.583 61.7529L142.572 62.8561L142.566 63.4151L142.561 63.9787L142.556 64.5471L142.55 65.1189L142.546 65.6949L142.541 66.2747L142.537 66.8579L142.534 67.4433L142.531 68.0322L142.529 68.6233L142.528 69.2171L142.528 69.8124H141.588L141.588 69.2156L141.589 68.6203L141.592 68.0277L141.594 67.4381L141.598 66.8511L141.602 66.2672L141.606 65.6866L141.611 65.1099L141.616 64.5373L141.621 63.9688L141.627 63.4046L141.632 62.8448L141.644 61.7416L141.655 60.6602L141.66 60.1285L141.665 59.6031L141.67 59.0845L141.674 58.5728L141.678 58.0679L141.681 57.5705L141.683 57.0803L141.685 56.5991L141.686 56.1256V55.6603L141.685 55.2041L141.683 54.7566L141.681 54.3189L141.676 53.8907L141.671 53.4723L141.665 53.0638ZM140.151 44.7091L140.904 44.1112L141.026 44.2922L141.142 44.4786L141.253 44.6694L141.357 44.866L141.456 45.0682L141.551 45.2757L141.639 45.4892L141.722 45.708L141.8 45.9322L141.874 46.1631L141.943 46.3993L142.007 46.642L142.067 46.8903L142.124 47.1462L142.175 47.4073L142.224 47.6757L142.268 47.952L142.309 48.2343L142.347 48.5242L142.382 48.8216L142.413 49.1266L142.442 49.4392L142.468 49.7605L142.492 50.09L142.513 50.4272L142.532 50.7745L142.548 51.1294L142.563 51.4937L142.576 51.8672L142.587 52.25L142.596 52.6423L142.604 53.0449L141.665 53.0638L141.657 52.6658L141.647 52.278L141.637 51.9004L141.624 51.5331L141.61 51.1755L141.594 50.8274L141.575 50.4899L141.554 50.1611L141.532 49.8413L141.506 49.5314L141.479 49.2302L141.448 48.9373L141.415 48.6542L141.379 48.3794L141.341 48.1122L141.299 47.8548L141.254 47.6046L141.206 47.3623L141.155 47.1284L141.1 46.902L141.042 46.6828L140.98 46.4715L140.915 46.267L140.846 46.0694L140.773 45.8785L140.697 45.6944L140.617 45.5164L140.532 45.3437L140.443 45.1774L140.35 45.016L140.253 44.8599L140.151 44.7091ZM134.82 42.0264L134.907 41.0309L135.13 41.0554L135.353 41.0834L135.574 41.1163L135.794 41.1533L136.012 41.1945L136.229 41.2399L136.445 41.2902L136.659 41.3446L136.872 41.4035L137.082 41.467L137.29 41.5354L137.495 41.608L137.698 41.6851L137.9 41.7675L138.097 41.8544L138.293 41.9459L138.485 42.0427L138.674 42.1443L138.86 42.2509L139.042 42.362L139.222 42.4784L139.397 42.6005L139.568 42.7275L139.735 42.8598L139.898 42.997L140.057 43.1402L140.21 43.2884L140.359 43.4418L140.503 43.601L140.643 43.7657L140.776 43.9358L140.904 44.1112L140.151 44.7091L140.044 44.5625L139.932 44.4204L139.815 44.282L139.694 44.1479L139.568 44.0178L139.437 43.8924L139.302 43.7703L139.163 43.6527L139.019 43.5386L138.87 43.429L138.719 43.3235L138.563 43.2222L138.403 43.124L138.24 43.0302L138.073 42.9407L137.903 42.8553L137.728 42.7736L137.551 42.6958L137.372 42.6224L137.189 42.5529L137.003 42.4871L136.815 42.4255L136.624 42.3681L136.431 42.3144L136.236 42.2645L136.039 42.2188L135.84 42.1772L135.638 42.139L135.436 42.105L135.232 42.0752L135.027 42.0487L134.82 42.0264ZM129.223 42.4724L129.026 41.495H129.026L129.125 41.4727L129.234 41.4485L129.351 41.4239L129.475 41.3982L129.606 41.3722L129.744 41.3453L129.89 41.3181L130.042 41.2913L130.2 41.2641L130.364 41.2369L130.534 41.2104L130.709 41.1843L130.889 41.1586L131.074 41.1341L131.264 41.1106L131.458 41.0883L131.655 41.0672L131.857 41.0475L132.062 41.0297L132.27 41.0139L132.481 40.9999L132.694 40.9882L132.909 40.9787L133.127 40.9719L133.347 40.9681L133.568 40.967L133.789 40.9689L134.013 40.9738L134.236 40.9825L134.46 40.995L134.684 41.0108L134.907 41.0309L134.82 42.0264L134.613 42.0079L134.404 41.9928L134.194 41.981L133.985 41.9731L133.776 41.9682L133.566 41.9663L133.357 41.9674L133.149 41.9712L132.943 41.978L132.737 41.9867L132.534 41.9977L132.333 42.0109L132.134 42.0268L131.938 42.0438L131.745 42.0627L131.554 42.0823L131.369 42.1039L131.187 42.1266L131.009 42.1504L130.836 42.1746L130.667 42.1999L130.504 42.2256L130.347 42.2513L130.194 42.2777L130.048 42.3038L129.91 42.3295L129.776 42.3556L129.651 42.3802L129.532 42.4051L129.421 42.4282L129.319 42.4508L129.224 42.4724H129.223ZM129.288 49.8538L128.348 49.8856L128.326 49.1916L128.303 48.5412L128.279 47.9327L128.255 47.3646L128.231 46.8359L128.207 46.3445L128.183 45.8891L128.16 45.468L128.118 44.7227L128.083 44.0983L128.069 43.8258L128.057 43.5783L128.048 43.3534L128.043 43.1504L128.041 42.9652L128.043 42.7971L128.05 42.6413L128.064 42.4951L128.086 42.3567L128.117 42.2233L128.165 42.0899L128.231 41.961L128.317 41.8442L128.419 41.7448L128.526 41.6696L128.633 41.6133L128.736 41.5732L128.833 41.543L128.929 41.5177L129.026 41.495L129.223 42.4724L129.142 42.4913L129.076 42.5083L129.027 42.5234L129 42.534L128.991 42.5382L128.995 42.5347L129.009 42.5215L129.018 42.5091L129.02 42.5041L129.015 42.5189L129.006 42.5593L128.996 42.6243L128.987 42.7131L128.982 42.8273L128.98 42.9668L128.982 43.13L128.987 43.3186L128.995 43.5322L129.007 43.7722L129.021 44.0394L129.056 44.663L129.098 45.4091L129.121 45.8324L129.145 46.2908L129.17 46.7852L129.194 47.3177L129.218 47.8896L129.242 48.5019L129.265 49.1561L129.288 49.8538ZM129.518 80.5039H128.578V78.9819L128.578 77.303L128.577 76.4118L128.577 75.4896L128.576 74.5394L128.575 73.5639L128.573 72.5665L128.571 71.5491L128.569 70.5146L128.566 69.4662L128.563 68.4071L128.559 67.339L128.554 66.2657L128.549 65.1892L128.544 64.1132L128.537 63.0398L128.53 61.9721L128.522 60.9131L128.513 59.865L128.503 58.8309L128.493 57.8139L128.481 56.8165L128.468 55.8417L128.455 54.8923L128.44 53.9712L128.424 53.0808L128.407 52.2243L128.389 51.4042L128.369 50.6237L128.348 49.8856L129.288 49.8538L129.309 50.5957L129.328 51.3792L129.346 52.2016L129.364 53.0604L129.38 53.9531L129.394 54.8764L129.408 55.8274L129.421 56.8036L129.432 57.8025L129.443 58.8204L129.453 59.8552L129.462 60.9048L129.47 61.9645L129.477 63.033L129.483 64.1072L129.489 65.1839L129.494 66.2611L129.498 67.3353L129.502 68.4034L129.506 69.4631L129.508 70.5123L129.51 71.5468L129.512 72.5642L129.514 73.5624L129.515 74.5387L129.516 75.4888L129.517 76.411L129.517 77.303L129.518 78.9819V80.5039ZM125.537 88.738L125.518 87.7387L125.837 87.7315L126.133 87.7235L126.407 87.7133L126.66 87.6994L126.891 87.6808L127.099 87.6566L127.285 87.6268L127.45 87.5897L127.592 87.5463L127.713 87.4964L127.817 87.4408L127.904 87.3792L127.982 87.3074L128.054 87.2231L128.121 87.1215L128.185 86.9967L128.246 86.8456L128.302 86.6645L128.354 86.4532L128.4 86.2102L128.439 85.9343L128.473 85.6259L128.501 85.2835L128.524 84.9055L128.542 84.492L128.555 84.0423L128.564 83.554L128.571 83.0267L128.575 82.4598L128.577 81.8509L128.578 81.1993V80.5039H129.518V81.2001L129.517 81.8532L129.515 82.4651L129.511 83.0373L129.504 83.5706L129.495 84.068L129.481 84.5306L129.462 84.96L129.438 85.3576L129.408 85.7264L129.371 86.0674L129.325 86.3833L129.27 86.6755L129.204 86.9465L129.125 87.1986L129.031 87.4321L128.919 87.6483L128.789 87.846L128.64 88.0218L128.473 88.1752L128.289 88.3048L128.094 88.4103L127.89 88.4942L127.676 88.5596L127.453 88.6102L127.22 88.6484L126.976 88.6764L126.719 88.6972L126.448 88.7119L126.161 88.7228L125.858 88.7308L125.537 88.738ZM111.379 89.0411L111.36 88.0418L112.074 88.0267L112.857 88.01L113.701 87.9919L114.595 87.973L115.529 87.953L116.492 87.9326L117.475 87.9114L118.468 87.8902L119.459 87.8687L120.44 87.8479L121.399 87.8271L122.326 87.8071L123.213 87.7882L124.046 87.7704L124.819 87.7538L125.518 87.7387L125.537 88.738L124.837 88.7531L124.065 88.7697L123.232 88.7875L122.345 88.8064L121.418 88.8264L120.459 88.8472L119.478 88.868L118.487 88.8895L117.494 88.9107L116.511 88.9319L115.547 88.9523L114.614 88.9723L113.72 88.9912L112.876 89.0093L112.093 89.026L111.379 89.0411ZM106.997 80.6657L107.936 80.6452L107.951 81.3675L107.966 82.044L107.982 82.676L108 83.2652L108.021 83.8121L108.044 84.3186L108.072 84.785L108.103 85.2136L108.139 85.6044L108.18 85.9589L108.227 86.2779L108.279 86.5625L108.337 86.8127L108.4 87.0308L108.467 87.2167L108.539 87.3724L108.613 87.5013L108.69 87.6064L108.771 87.6933L108.86 87.7663L108.959 87.8294L109.073 87.8842L109.205 87.9314L109.358 87.9711L109.533 88.0025L109.729 88.0263L109.947 88.0422L110.187 88.0512L110.448 88.0546L110.73 88.0531L111.035 88.0486L111.36 88.0418L111.379 89.0411L111.051 89.0479L110.739 89.0524L110.445 89.0539L110.165 89.0505L109.899 89.0407L109.645 89.0218L109.402 88.9927L109.169 88.95L108.945 88.8922L108.73 88.8147L108.524 88.7153L108.329 88.5909L108.149 88.4417L107.985 88.267L107.841 88.0698L107.715 87.8524L107.605 87.6143L107.512 87.3566L107.431 87.078L107.361 86.7764L107.301 86.4495L107.25 86.0965L107.205 85.714L107.167 85.3005L107.134 84.8545L107.106 84.3738L107.082 83.8567L107.061 83.3015L107.042 82.7062L107.026 82.0698L107.011 81.3902L106.997 80.6657ZM106.538 48.8182L107.477 48.7978L107.492 49.5673L107.506 50.381L107.52 51.2352L107.535 52.1276L107.549 53.0543L107.564 54.0132L107.578 55.0015L107.592 56.0156L107.607 57.0538L107.621 58.1117L107.635 59.187L107.649 60.2774L107.678 62.4895L107.707 64.7247L107.735 66.9603L107.764 69.1721L107.779 70.2617L107.793 71.3374L107.807 72.3953L107.821 73.4324L107.836 74.4464L107.85 75.434L107.864 76.3929L107.879 77.3193L107.893 78.2105L107.907 79.0643L107.922 79.8765L107.936 80.6452L106.997 80.6657L106.982 79.8961L106.968 79.0824L106.954 78.2279L106.939 77.3359L106.925 76.4088L106.91 75.4499L106.896 74.4616L106.882 73.4475L106.867 72.4097L106.853 71.3518L106.839 70.2761L106.825 69.1857L106.796 66.9739L106.767 64.7383L106.738 62.5031L106.71 60.291L106.695 59.2013L106.681 58.1261L106.667 57.0682L106.653 56.0307L106.638 55.0166L106.624 54.029L106.61 53.0702L106.595 52.1442L106.581 51.2526L106.566 50.3992L106.552 49.587L106.538 48.8182ZM105.316 41.5683L105.179 40.5796L105.315 40.5584L105.449 40.5395L105.582 40.5244L105.716 40.5146L105.853 40.5138L105.994 40.5244L106.14 40.5524L106.288 40.6019L106.432 40.6767L106.567 40.7769L106.688 40.8997L106.791 41.0403L106.878 41.1945L106.952 41.3623L107.015 41.5445L107.07 41.7426L107.118 41.9595L107.161 42.1969L107.199 42.458L107.234 42.7441L107.265 43.0578L107.293 43.4006L107.318 43.7741L107.341 44.1807L107.363 44.6214L107.382 45.098L107.4 45.612L107.417 46.1654L107.433 46.7588L107.448 47.3945L107.463 48.0736L107.477 48.7978L106.538 48.8182L106.523 48.0956L106.509 47.4187L106.494 46.786L106.478 46.1956L106.461 45.6468L106.443 45.1381L106.424 44.6683L106.403 44.2367L106.381 43.8406L106.356 43.48L106.33 43.1531L106.3 42.8598L106.269 42.5979L106.235 42.3677L106.199 42.1674L106.161 41.9973L106.122 41.8559L106.083 41.7441L106.047 41.6609L106.014 41.6027L105.989 41.5679L105.971 41.5494L105.957 41.5392L105.941 41.5317L105.917 41.5237L105.88 41.5169L105.825 41.5131L105.752 41.5139L105.664 41.5199L105.562 41.532L105.445 41.5487L105.316 41.5683ZM99.3166 43.1225L98.9334 42.2101H98.933L99.1238 42.122L99.3189 42.0366L99.5173 41.9546L99.7187 41.8756L99.9228 41.7993L100.13 41.7256L100.339 41.6545L100.55 41.5865L100.762 41.5203L100.976 41.4568L101.19 41.3964L101.405 41.3374L101.619 41.2815L101.833 41.227L102.047 41.1753L102.259 41.1254L102.469 41.0777L102.678 41.032L102.884 40.9882L103.088 40.9466L103.288 40.9065L103.485 40.8684L103.679 40.8321L103.868 40.7977L104.052 40.7648L104.231 40.7338L104.405 40.7043L104.573 40.6764L104.735 40.6499L104.891 40.625L105.038 40.6015L105.179 40.5796L105.316 41.5683L105.176 41.5902L105.03 41.6137L104.877 41.6379L104.718 41.6643L104.552 41.6915L104.381 41.721L104.205 41.7513L104.025 41.7834L103.84 41.817L103.651 41.8525L103.459 41.89L103.263 41.9285L103.065 41.9693L102.864 42.0117L102.662 42.0559L102.458 42.102L102.253 42.1504L102.047 42.2006L101.841 42.2528L101.634 42.3072L101.428 42.3632L101.223 42.4214L101.02 42.4818L100.818 42.5442L100.619 42.6092L100.422 42.6757L100.227 42.7449L100.037 42.8159L99.8499 42.8896L99.6673 42.9649L99.4897 43.0427L99.317 43.1225H99.3166ZM95.9158 49.7189L94.9875 49.5647L95.054 49.1278L95.1232 48.7086L95.195 48.308L95.2695 47.9247L95.347 47.5577L95.4271 47.207L95.5106 46.8725L95.5972 46.5524L95.6875 46.2474L95.7808 45.9564L95.878 45.6782L95.9797 45.4129L96.0851 45.1604L96.1947 44.9204L96.3085 44.6914L96.4272 44.4733L96.5504 44.2665L96.6777 44.07L96.8108 43.8833L96.9483 43.7068L97.0901 43.5397L97.2367 43.3817L97.3879 43.2321L97.544 43.0911L97.7039 42.9584L97.8687 42.833L98.0361 42.7154L98.2077 42.6035L98.3834 42.4977L98.563 42.3972L98.7463 42.3016L98.9334 42.2101L99.3166 43.1225L99.1499 43.2041L98.9893 43.2884L98.834 43.3753L98.6847 43.4653L98.5403 43.559L98.4008 43.6569L98.267 43.7589L98.1374 43.8667L98.0123 43.9797L97.8913 44.0991L97.7734 44.2261L97.6589 44.3606L97.5478 44.5039L97.4397 44.6558L97.3342 44.8183L97.2307 44.9911L97.1309 45.1751L97.033 45.3717L96.9378 45.5814L96.8444 45.8044L96.7541 46.041L96.666 46.292L96.5802 46.5588L96.4967 46.8404L96.4162 47.1386L96.338 47.4534L96.2616 47.7853L96.1879 48.1349L96.1165 48.5022L96.0477 48.8885L95.9808 49.2941L95.9158 49.7189ZM94.7736 69.5962L93.834 69.5735L93.8488 68.8951L93.8646 68.2129L93.8813 67.5269L93.899 66.8386L93.9179 66.1481L93.9376 65.4565L93.9591 64.7648L93.9814 64.0731L94.0048 63.383L94.0298 62.6944L94.0559 62.0088L94.0831 61.3266L94.1122 60.6485L94.1424 59.9758L94.1745 59.3083L94.2078 58.6473L94.2426 57.9938L94.2789 57.3479L94.3174 56.711L94.3575 56.0836L94.3991 55.4668L94.4425 54.8602L94.4879 54.266L94.5351 53.684L94.5843 53.1152L94.6353 52.5603L94.6886 52.0199L94.7441 51.4953L94.8016 50.9869L94.8613 50.4952L94.9233 50.0209L94.9875 49.5647L95.9158 49.7189L95.853 50.1637L95.7926 50.6275L95.7344 51.1101L95.6777 51.6109L95.6229 52.128L95.5703 52.6609L95.5201 53.2097L95.4709 53.7724L95.4244 54.3492L95.3791 54.9388L95.3364 55.5401L95.2948 56.1531L95.2547 56.7768L95.2169 57.4098L95.1807 58.052L95.1459 58.7024L95.1126 59.3605L95.0813 60.0249L95.051 60.6954L95.0219 61.3704L94.9947 62.0503L94.9686 62.7337L94.9437 63.42L94.9202 64.1087L94.898 64.7981L94.8772 65.4882L94.8575 66.1776L94.8386 66.8666L94.8209 67.5533L94.8042 68.2378L94.7883 68.9193L94.7736 69.5962ZM94.4671 86.3682L93.5283 86.3168L93.5422 86.0122L93.5551 85.6887L93.5676 85.347L93.5785 84.9875L93.5895 84.6107L93.5997 84.2177L93.6095 83.808L93.6186 83.3828L93.6277 82.9417L93.636 82.4862L93.6439 82.0161L93.6515 81.5319L93.659 81.0342L93.6666 80.5232L93.6738 79.9997L93.681 79.4638L93.6953 78.3567L93.7104 77.2063L93.718 76.6155L93.7259 76.0149L93.7342 75.4049L93.7433 74.7862L93.7524 74.1599L93.7622 73.525L93.7724 72.8829L93.7834 72.2335L93.7947 71.5774L93.8072 70.9148L93.82 70.247L93.834 69.5735L94.7736 69.5962L94.7596 70.2682L94.7468 70.9353L94.7343 71.5963L94.723 72.2517L94.712 72.9002L94.7018 73.5416L94.692 74.1758L94.6829 74.8021L94.6738 75.42L94.6655 76.0293L94.6576 76.6291L94.65 77.2199L94.6349 78.3703L94.6205 79.4774L94.6134 80.0141L94.6062 80.5383L94.5986 81.05L94.5911 81.5486L94.5835 82.0335L94.5756 82.5051L94.5672 82.9621L94.5582 83.4047L94.5491 83.8321L94.5393 84.2441L94.5291 84.6402L94.5181 85.0193L94.5064 85.3825L94.4939 85.7287L94.4811 86.0575L94.4671 86.3682ZM90.9106 89.8748L90.962 88.8763L91.1985 88.8899L91.4208 88.9024L91.6283 88.9126L91.8226 88.9198L92.0028 88.9243L92.1688 88.9254L92.3211 88.922L92.459 88.9152L92.583 88.9035L92.6926 88.8876L92.7878 88.868L92.8691 88.8449L92.9375 88.8192L92.9942 88.7913L93.0407 88.7622L93.0815 88.7289L93.1193 88.6911L93.1548 88.6465L93.1911 88.5898L93.227 88.5203L93.2626 88.4349L93.2977 88.3321L93.3306 88.2126L93.3616 88.0754L93.3903 87.9201L93.4164 87.7462L93.4402 87.5546L93.4614 87.3445L93.4806 87.1162L93.498 86.8686L93.5139 86.6025L93.5283 86.3168L94.4671 86.3682L94.452 86.6615L94.4353 86.9374L94.4172 87.1978L94.3964 87.4427L94.373 87.6733L94.3461 87.8898L94.3155 88.0939L94.28 88.2878L94.2384 88.4704L94.1904 88.6435L94.1341 88.8075L94.0691 88.9632L93.9924 89.1114L93.9039 89.2497L93.8026 89.3775L93.6893 89.4916L93.5653 89.5914L93.4311 89.6764L93.2913 89.7452L93.1473 89.7996L92.998 89.8423L92.8445 89.8741L92.6866 89.8968L92.5225 89.9123L92.3528 89.9213L92.1748 89.9247L91.9892 89.9236L91.7946 89.9191L91.5905 89.9111L91.3747 89.9009L91.1487 89.8885L90.9106 89.8748ZM79.2673 89.1775L79.3187 88.179L80.1041 88.2255L80.9024 88.2727L81.7093 88.3207L82.5208 88.3691L83.3318 88.4178L84.1384 88.4666L84.9355 88.5146L85.7194 88.5618L86.4851 88.6083L87.2282 88.6533L87.944 88.6968L88.6285 88.738L89.277 88.7769L89.8848 88.8132L90.4483 88.8464L90.962 88.8763L90.9106 89.8748L90.3962 89.8442L89.8326 89.811L89.2241 89.7747L88.5756 89.7358L87.8903 89.6946L87.1745 89.6511L86.4314 89.6061L85.6657 89.5596L84.8826 89.5124L84.0855 89.4644L83.2789 89.4156L82.4678 89.3669L81.6571 89.3185L80.8502 89.2705L80.052 89.2233L79.2673 89.1775ZM70.0415 88.6628L70.0884 87.6642L70.4259 87.6824L70.802 87.7024L71.2143 87.7247L71.6626 87.7489L72.1452 87.7749L72.6611 87.8029L73.2076 87.8328L73.7851 87.8645L74.3906 87.8982L75.0237 87.9333L75.6828 87.9703L76.3662 88.0089L77.0733 88.049L77.8016 88.0909L78.5507 88.1344L79.3187 88.179L79.2673 89.1775L78.4993 89.1329L77.751 89.0895L77.0227 89.0475L76.3163 89.0074L75.6329 88.9689L74.9745 88.9319L74.3415 88.8967L73.736 88.8631L73.1592 88.8313L72.6127 88.8015L72.0976 88.7735L71.6149 88.7474L71.1667 88.7232L70.7543 88.7009L70.379 88.6809L70.0415 88.6628ZM69.1915 87.513L69.2542 88.5108L69.1057 88.521L68.978 88.5309L68.9231 88.535L68.877 88.5388L68.8366 88.5426L68.8037 88.546L68.7792 88.5486L68.7652 88.5505L68.7746 88.5486L68.8268 88.5327L69.0558 88.3385L68.9228 87.6525L68.795 87.5905L68.7633 87.5829L68.7697 87.5841L68.7905 87.5864L68.8226 87.5894L68.8646 87.5932L68.916 87.5973L68.9776 87.6015L69.0471 87.6064L69.1246 87.6113L69.3098 87.6219L69.5313 87.634L69.7906 87.6483L70.0884 87.6642L70.0415 88.6628L69.7429 88.6469L69.4829 88.6325L69.2599 88.6204L69.0717 88.6091L68.9897 88.6042L68.9156 88.5993L68.851 88.5943L68.7928 88.5902L68.741 88.5857L68.6952 88.5811L68.654 88.5758L68.6136 88.5702L68.5494 88.5558L68.4042 88.4862L68.2682 87.7935L68.5085 87.5924L68.5849 87.5697L68.6321 87.561L68.6695 87.5561L68.7085 87.5512L68.7519 87.547L68.7999 87.5425L68.8544 87.538L68.9114 87.5338L69.0407 87.524L69.1915 87.513ZM72.0938 82.3846L73.0228 82.5365L72.9453 83.035L72.8629 83.5045L72.7752 83.9459L72.6826 84.3601L72.5855 84.7483L72.4835 85.1115L72.3773 85.4502L72.2673 85.7661L72.1531 86.0606L72.0352 86.3327L71.9139 86.5844L71.7895 86.8176L71.6614 87.0319L71.5303 87.2284L71.3969 87.4072L71.2608 87.5693L71.1225 87.7164L70.983 87.8475L70.8416 87.9643L70.6995 88.0663L70.5589 88.1548L70.4187 88.2308L70.2804 88.295L70.1436 88.3479L70.012 88.3903L69.8847 88.4246L69.7622 88.4507L69.6462 88.4708L69.5369 88.4855L69.4341 88.4965L69.3397 88.5044L69.2542 88.5108L69.1915 87.513L69.2709 87.5074L69.3502 87.5009L69.4304 87.4922L69.5124 87.4813L69.5944 87.4673L69.6768 87.4495L69.7611 87.4272L69.8457 87.4L69.9304 87.3668L70.0173 87.3267L70.1061 87.2787L70.1969 87.222L70.2891 87.1555L70.3828 87.078L70.4792 86.9877L70.5774 86.8837L70.6772 86.7639L70.7789 86.6282L70.8813 86.4748L70.9837 86.3028L71.0869 86.1104L71.1894 85.8965L71.2914 85.6607L71.3919 85.4025L71.4906 85.1191L71.587 84.8107L71.6807 84.4769L71.771 84.116L71.8583 83.7267L71.9415 83.3094L72.0201 82.8619L72.0938 82.3846Z" fill="#E07B1F"/>
<path d="M108.489 33.1981V33.8861C109.555 33.9288 110.446 33.9768 111.161 34.0301V32.9262C111.161 32.0622 111.081 31.5075 110.921 31.2622H107.865C108.281 31.5822 108.489 32.2275 108.489 33.1981ZM113.289 33.1981L113.209 38.414C113.209 39.2673 113.289 39.8273 113.449 40.0939C113.257 40.1686 113.033 40.2059 112.777 40.2059C111.646 40.2059 111.081 39.3953 111.081 37.774C111.081 37.2087 111.097 36.5527 111.129 35.8061H108.361C108.275 36.3501 108.147 36.7447 107.977 36.99C107.806 37.2354 107.561 37.358 107.241 37.358C106.707 37.358 106.196 37.086 105.705 36.542C105.225 35.9981 104.985 35.4807 104.985 34.9901C104.985 34.3181 105.444 33.9448 106.361 33.8701C106.371 33.7101 106.377 33.4755 106.377 33.1662C106.377 32.1742 106.286 31.5395 106.105 31.2622H105.177C103.833 31.2622 103.161 30.7822 103.161 29.8223C103.161 29.6409 103.188 29.4969 103.241 29.3903H113.433C114.777 29.3903 115.449 29.8436 115.449 30.7502C115.449 30.9422 115.411 31.1129 115.337 31.2622H112.665C113.081 31.5822 113.289 32.2275 113.289 33.1981ZM112.57 44.4938C111.887 44.4938 111.247 44.2218 110.65 43.6778C110.053 43.1338 109.754 42.5205 109.754 41.8379C109.754 41.1659 109.994 40.6379 110.474 40.2539C110.943 39.8699 111.503 39.6779 112.154 39.6779C112.794 39.6779 113.428 39.8219 114.058 40.1099C114.676 40.3979 115.21 40.7446 115.658 41.1499C116.106 41.5552 116.474 41.9765 116.762 42.4139C117.05 42.8512 117.194 43.1978 117.194 43.4538C117.194 43.7098 117.124 43.8965 116.986 44.0138C116.858 44.1311 116.74 44.1951 116.634 44.2058C116.207 43.4912 115.658 42.8405 114.986 42.2539C114.324 41.6672 113.588 41.3739 112.778 41.3739C112.308 41.3739 111.94 41.4806 111.674 41.6939C111.396 41.9179 111.258 42.1739 111.258 42.4619C111.258 42.5899 111.306 42.6965 111.402 42.7818C111.487 42.8778 111.636 42.9258 111.85 42.9258C112.052 42.9258 112.26 42.8405 112.474 42.6699C112.676 42.5099 112.815 42.3125 112.89 42.0779C113.242 42.1099 113.519 42.2432 113.722 42.4779C113.924 42.7125 114.026 42.9845 114.026 43.2938C114.026 43.6138 113.898 43.8911 113.642 44.1258C113.375 44.3711 113.018 44.4938 112.57 44.4938Z" fill="#E07B1F"/>
<path d="M118.441 33.1981V33.8861C119.507 33.9288 120.398 33.9768 121.113 34.0301V32.9262C121.113 32.0622 121.033 31.5075 120.873 31.2622H117.817C118.233 31.5822 118.441 32.2275 118.441 33.1981ZM123.24 33.1981L123.16 38.414C123.16 39.2673 123.24 39.8273 123.4 40.0939C123.208 40.1686 122.984 40.2059 122.728 40.2059C121.598 40.2059 121.033 39.3953 121.033 37.774C121.033 37.2087 121.049 36.5527 121.081 35.8061H118.313C118.227 36.3501 118.099 36.7447 117.929 36.99C117.758 37.2354 117.513 37.358 117.193 37.358C116.659 37.358 116.147 37.086 115.657 36.542C115.177 35.9981 114.937 35.4807 114.937 34.9901C114.937 34.3181 115.395 33.9448 116.313 33.8701C116.323 33.7101 116.329 33.4755 116.329 33.1662C116.329 32.1742 116.238 31.5395 116.057 31.2622H115.129C113.785 31.2622 113.113 30.7822 113.113 29.8223C113.113 29.6409 113.139 29.4969 113.193 29.3903H123.384C124.728 29.3903 125.4 29.8436 125.4 30.7502C125.4 30.9422 125.363 31.1129 125.288 31.2622H122.616C123.032 31.5822 123.24 32.2275 123.24 33.1981ZM135.225 33.1981L135.145 38.414C135.145 39.2673 135.225 39.8273 135.385 40.0939C135.204 40.1686 134.98 40.2059 134.713 40.2059C133.583 40.2059 133.017 39.3953 133.017 37.774C133.017 37.4967 133.039 36.5154 133.081 34.8301C132.847 34.7768 132.612 34.7501 132.377 34.7501C132.143 34.7501 131.908 34.8248 131.673 34.9741C131.449 35.1128 131.289 35.3048 131.193 35.5501C131.268 35.8914 131.305 36.2167 131.305 36.526C131.305 36.8354 131.215 37.1447 131.033 37.454C130.852 37.7633 130.564 37.918 130.169 37.918C129.775 37.918 129.455 37.7367 129.209 37.374C128.975 37.0007 128.857 36.5794 128.857 36.1101C128.857 35.6301 128.991 35.1341 129.257 34.6221C129.023 34.4941 128.724 34.4301 128.361 34.4301C128.009 34.4301 127.711 34.5794 127.465 34.8781C127.22 35.1768 127.097 35.5714 127.097 36.0621C127.097 37.278 127.652 38.4673 128.761 39.6299C128.633 39.8753 128.409 39.9979 128.089 39.9979C127.769 39.9979 127.364 39.7846 126.873 39.358C126.393 38.9206 125.962 38.3393 125.578 37.614C125.204 36.878 125.018 36.1261 125.018 35.3581C125.018 34.5901 125.252 33.9608 125.722 33.4701C126.191 32.9688 126.825 32.7182 127.625 32.7182C128.436 32.7182 129.199 33.0222 129.913 33.6301C130.457 33.1075 131.087 32.8462 131.801 32.8462C132.271 32.8462 132.703 32.9688 133.097 33.2141V32.9262C133.097 32.0622 133.017 31.5075 132.857 31.2622H125.29C123.946 31.2622 123.274 30.7822 123.274 29.8223C123.274 29.6409 123.3 29.4969 123.354 29.3903H135.337C136.681 29.3903 137.353 29.8436 137.353 30.7502C137.353 30.9422 137.316 31.1129 137.241 31.2622H134.601C135.017 31.5822 135.225 32.2275 135.225 33.1981Z" fill="#E07B1F"/>
<path d="M119.687 203.895L120.635 203.895L120.635 204.708L122.446 204.708C122.813 204.708 123.027 204.701 123.089 204.687C123.149 204.67 123.198 204.635 123.238 204.581C123.277 204.525 123.297 204.457 123.297 204.378C123.297 204.268 123.259 204.108 123.183 203.9L124.105 203.798C124.224 204.075 124.283 204.388 124.283 204.738C124.283 204.952 124.248 205.145 124.177 205.317C124.104 205.489 124.011 205.616 123.898 205.698C123.782 205.777 123.627 205.832 123.432 205.863C123.294 205.889 123.015 205.901 122.594 205.901L120.635 205.901L120.635 206.447L119.687 206.447L119.687 205.901L118.794 205.901L118.1 204.708L119.687 204.708L119.687 203.895ZM117.978 201.885L120.258 201.885C119.81 201.502 119.586 201.043 119.586 200.51C119.586 200.236 119.636 199.99 119.738 199.77C119.84 199.55 119.969 199.385 120.127 199.274C120.285 199.162 120.46 199.085 120.652 199.046C120.844 199.004 121.141 198.982 121.545 198.982L124.181 198.982L124.181 200.172L121.807 200.172C121.336 200.172 121.037 200.194 120.91 200.239C120.783 200.284 120.683 200.365 120.61 200.481C120.534 200.593 120.495 200.736 120.495 200.908C120.495 201.105 120.543 201.282 120.639 201.437C120.735 201.592 120.881 201.706 121.075 201.78C121.267 201.85 121.552 201.885 121.93 201.885L124.181 201.885L124.181 203.075L117.978 203.075L117.978 201.885ZM122.751 195.17L122.95 193.985C123.384 194.137 123.716 194.378 123.944 194.709C124.17 195.036 124.283 195.446 124.283 195.94C124.283 196.721 124.027 197.3 123.517 197.675C123.108 197.971 122.592 198.119 121.968 198.119C121.223 198.119 120.641 197.925 120.22 197.535C119.797 197.146 119.586 196.654 119.586 196.058C119.586 195.39 119.807 194.862 120.25 194.476C120.69 194.089 121.366 193.904 122.277 193.921L122.277 196.901C122.63 196.892 122.905 196.796 123.102 196.613C123.297 196.429 123.394 196.201 123.394 195.927C123.394 195.741 123.343 195.584 123.242 195.458C123.14 195.331 122.977 195.235 122.751 195.17ZM121.549 195.102C121.205 195.111 120.944 195.199 120.766 195.369C120.586 195.538 120.495 195.744 120.495 195.986C120.495 196.246 120.59 196.46 120.779 196.63C120.968 196.799 121.225 196.882 121.549 196.879L121.549 195.102ZM124.181 190.578L117.978 190.578L117.978 189.389L121.27 189.389L119.687 187.997L119.687 186.533L121.329 188.069L124.181 186.423L124.181 187.705L122.163 188.835L122.742 189.389L124.181 189.389L124.181 190.578ZM122.751 183.11L122.95 181.925C123.384 182.077 123.716 182.318 123.944 182.648C124.17 182.976 124.283 183.386 124.283 183.88C124.283 184.661 124.027 185.239 123.517 185.615C123.108 185.911 122.592 186.059 121.968 186.059C121.223 186.059 120.641 185.864 120.22 185.475C119.797 185.086 119.586 184.593 119.586 183.998C119.586 183.33 119.807 182.802 120.25 182.416C120.69 182.029 121.366 181.844 122.277 181.861L122.277 184.84C122.63 184.832 122.905 184.736 123.102 184.553C123.297 184.369 123.394 184.141 123.394 183.867C123.394 183.681 123.343 183.524 123.242 183.397C123.14 183.27 122.977 183.174 122.751 183.11ZM121.549 183.042C121.205 183.05 120.944 183.139 120.766 183.308C120.586 183.478 120.495 183.684 120.495 183.926C120.495 184.186 120.59 184.4 120.779 184.569C120.968 184.739 121.225 184.822 121.549 184.819L121.549 183.042ZM119.687 181.451L119.687 180.185L122.878 179.111L119.687 178.061L119.687 176.83L124.012 178.417L124.795 178.7C125.057 178.804 125.257 178.905 125.396 179.001C125.534 179.094 125.645 179.202 125.73 179.326C125.817 179.448 125.885 179.599 125.933 179.779C125.981 179.957 126.005 180.159 126.005 180.384C126.005 180.613 125.981 180.837 125.933 181.057L125.002 181.163C125.039 180.977 125.057 180.809 125.057 180.659C125.057 180.383 124.975 180.178 124.812 180.046C124.651 179.913 124.445 179.812 124.194 179.741L119.687 181.451ZM119.687 171.591L120.635 171.591L120.635 172.403L122.446 172.403C122.813 172.403 123.027 172.396 123.089 172.382C123.149 172.365 123.198 172.33 123.238 172.276C123.277 172.22 123.297 172.152 123.297 172.073C123.297 171.963 123.259 171.804 123.183 171.595L124.105 171.494C124.224 171.77 124.283 172.083 124.283 172.433C124.283 172.647 124.248 172.841 124.177 173.013C124.104 173.185 124.011 173.312 123.898 173.394C123.782 173.473 123.627 173.528 123.432 173.559C123.294 173.584 123.015 173.597 122.594 173.597L120.635 173.597L120.635 174.143L119.687 174.143L119.687 173.597L118.794 173.597L118.1 172.403L119.687 172.403L119.687 171.591ZM121.871 171.041C121.476 171.041 121.094 170.943 120.724 170.749C120.354 170.554 120.072 170.279 119.878 169.924C119.683 169.565 119.586 169.166 119.586 168.726C119.586 168.046 119.807 167.489 120.25 167.055C120.69 166.62 121.247 166.403 121.922 166.403C122.601 166.403 123.166 166.623 123.614 167.063C124.06 167.5 124.283 168.052 124.283 168.718C124.283 169.129 124.19 169.523 124.003 169.898C123.817 170.271 123.545 170.554 123.187 170.749C122.826 170.943 122.387 171.041 121.871 171.041ZM121.934 169.822C122.38 169.822 122.721 169.716 122.958 169.505C123.195 169.293 123.314 169.032 123.314 168.722C123.314 168.412 123.195 168.152 122.958 167.943C122.721 167.732 122.377 167.626 121.926 167.626C121.486 167.626 121.147 167.732 120.91 167.943C120.673 168.152 120.555 168.412 120.555 168.722C120.555 169.032 120.673 169.293 120.91 169.505C121.147 169.716 121.488 169.822 121.934 169.822ZM122.899 163.475L122.717 162.281C122.948 162.23 123.125 162.127 123.246 161.972C123.365 161.817 123.424 161.6 123.424 161.321C123.424 161.013 123.367 160.782 123.254 160.627C123.176 160.522 123.07 160.47 122.937 160.47C122.847 160.47 122.772 160.498 122.713 160.555C122.656 160.614 122.604 160.747 122.556 160.952C122.345 161.912 122.151 162.52 121.977 162.776C121.734 163.132 121.397 163.31 120.965 163.31C120.576 163.31 120.249 163.156 119.983 162.848C119.718 162.541 119.586 162.064 119.586 161.418C119.586 160.803 119.686 160.346 119.886 160.047C120.086 159.748 120.383 159.542 120.775 159.429L120.982 160.55C120.807 160.598 120.673 160.69 120.58 160.826C120.487 160.958 120.44 161.149 120.44 161.397C120.44 161.71 120.484 161.934 120.572 162.07C120.634 162.16 120.714 162.205 120.813 162.205C120.897 162.205 120.969 162.166 121.029 162.087C121.108 161.979 121.219 161.61 121.363 160.978C121.507 160.343 121.683 159.9 121.892 159.649C122.103 159.401 122.398 159.277 122.776 159.277C123.188 159.277 123.542 159.449 123.838 159.793C124.135 160.137 124.283 160.646 124.283 161.321C124.283 161.933 124.159 162.418 123.91 162.776C123.662 163.132 123.325 163.365 122.899 163.475ZM124.181 155.274L123.508 155.274C123.748 155.437 123.937 155.653 124.075 155.921C124.214 156.186 124.283 156.467 124.283 156.763C124.283 157.065 124.216 157.336 124.084 157.576C123.951 157.815 123.765 157.989 123.525 158.096C123.286 158.203 122.954 158.257 122.531 158.257L119.687 158.257L119.687 157.068L121.752 157.068C122.384 157.068 122.772 157.047 122.916 157.004C123.057 156.959 123.17 156.879 123.254 156.763C123.336 156.647 123.377 156.501 123.377 156.323C123.377 156.12 123.322 155.938 123.212 155.777C123.099 155.616 122.961 155.506 122.797 155.447C122.631 155.388 122.226 155.358 121.583 155.358L119.687 155.358L119.687 154.169L124.181 154.169L124.181 155.274ZM121.016 149.015L121.228 150.187C120.993 150.227 120.817 150.317 120.699 150.458C120.58 150.596 120.521 150.777 120.521 151C120.521 151.296 120.624 151.533 120.83 151.711C121.033 151.885 121.374 151.973 121.854 151.973C122.387 151.973 122.764 151.884 122.984 151.706C123.204 151.526 123.314 151.285 123.314 150.983C123.314 150.757 123.25 150.572 123.123 150.428C122.994 150.284 122.772 150.183 122.459 150.124L122.658 148.956C123.194 149.077 123.599 149.31 123.872 149.654C124.146 149.998 124.283 150.459 124.283 151.038C124.283 151.695 124.075 152.22 123.661 152.612C123.246 153.001 122.672 153.196 121.938 153.196C121.196 153.196 120.62 153 120.208 152.608C119.793 152.216 119.586 151.685 119.586 151.017C119.586 150.469 119.704 150.035 119.941 149.713C120.175 149.389 120.534 149.156 121.016 149.015ZM121.016 144.191L121.228 145.363C120.993 145.403 120.817 145.493 120.699 145.634C120.58 145.772 120.521 145.953 120.521 146.176C120.521 146.472 120.624 146.709 120.83 146.886C121.033 147.061 121.374 147.149 121.854 147.149C122.387 147.149 122.764 147.06 122.984 146.882C123.204 146.702 123.314 146.46 123.314 146.159C123.314 145.933 123.25 145.748 123.123 145.604C122.994 145.46 122.772 145.359 122.459 145.3L122.658 144.132C123.194 144.253 123.599 144.486 123.872 144.83C124.146 145.174 124.283 145.635 124.283 146.214C124.283 146.871 124.075 147.396 123.661 147.788C123.246 148.177 122.672 148.372 121.938 148.372C121.196 148.372 120.62 148.176 120.208 147.784C119.793 147.391 119.586 146.861 119.586 146.192C119.586 145.645 119.704 145.211 119.941 144.889C120.175 144.565 120.534 144.332 121.016 144.191ZM122.751 140.683L122.95 139.498C123.384 139.65 123.716 139.891 123.944 140.222C124.17 140.549 124.283 140.959 124.283 141.453C124.283 142.234 124.027 142.813 123.517 143.188C123.108 143.484 122.592 143.632 121.968 143.632C121.223 143.632 120.641 143.438 120.22 143.048C119.797 142.659 119.586 142.167 119.586 141.571C119.586 140.903 119.807 140.375 120.25 139.989C120.69 139.602 121.366 139.418 122.277 139.434L122.277 142.414C122.63 142.405 122.905 142.309 123.102 142.126C123.297 141.942 123.394 141.714 123.394 141.44C123.394 141.254 123.343 141.098 123.242 140.971C123.14 140.844 122.977 140.748 122.751 140.683ZM121.549 140.615C121.205 140.624 120.944 140.712 120.766 140.882C120.586 141.051 120.495 141.257 120.495 141.5C120.495 141.759 120.59 141.973 120.779 142.143C120.968 142.312 121.225 142.395 121.549 142.392L121.549 140.615ZM122.899 138.88L122.717 137.687C122.948 137.636 123.125 137.533 123.246 137.378C123.365 137.223 123.424 137.005 123.424 136.726C123.424 136.419 123.367 136.187 123.254 136.032C123.176 135.928 123.07 135.876 122.937 135.876C122.847 135.876 122.772 135.904 122.713 135.96C122.656 136.02 122.604 136.152 122.556 136.358C122.345 137.317 122.151 137.925 121.977 138.182C121.734 138.537 121.397 138.715 120.965 138.715C120.576 138.715 120.249 138.561 119.983 138.254C119.718 137.946 119.586 137.47 119.586 136.824C119.586 136.209 119.686 135.751 119.886 135.452C120.086 135.153 120.383 134.947 120.775 134.835L120.982 135.956C120.807 136.004 120.673 136.096 120.58 136.231C120.487 136.364 120.44 136.554 120.44 136.802C120.44 137.116 120.484 137.34 120.572 137.475C120.634 137.565 120.714 137.611 120.813 137.611C120.897 137.611 120.969 137.571 121.029 137.492C121.108 137.385 121.219 137.015 121.363 136.383C121.507 135.749 121.683 135.306 121.892 135.055C122.103 134.806 122.398 134.682 122.776 134.682C123.188 134.682 123.542 134.854 123.838 135.199C124.135 135.543 124.283 136.052 124.283 136.726C124.283 137.338 124.159 137.824 123.91 138.182C123.662 138.537 123.325 138.77 122.899 138.88ZM122.899 134.056L122.717 132.863C122.948 132.812 123.125 132.709 123.246 132.554C123.365 132.399 123.424 132.181 123.424 131.902C123.424 131.595 123.367 131.363 123.254 131.208C123.176 131.104 123.07 131.052 122.937 131.052C122.847 131.052 122.772 131.08 122.713 131.136C122.656 131.195 122.604 131.328 122.556 131.534C122.345 132.493 122.151 133.101 121.977 133.358C121.734 133.713 121.397 133.891 120.965 133.891C120.576 133.891 120.249 133.737 119.983 133.43C119.718 133.122 119.586 132.645 119.586 131.999C119.586 131.384 119.686 130.927 119.886 130.628C120.086 130.329 120.383 130.123 120.775 130.011L120.982 131.132C120.807 131.18 120.673 131.272 120.58 131.407C120.487 131.54 120.44 131.73 120.44 131.978C120.44 132.291 120.484 132.516 120.572 132.651C120.634 132.741 120.714 132.787 120.813 132.787C120.897 132.787 120.969 132.747 121.029 132.668C121.108 132.561 121.219 132.191 121.363 131.559C121.507 130.925 121.683 130.482 121.892 130.231C122.103 129.982 122.398 129.858 122.776 129.858C123.188 129.858 123.542 130.03 123.838 130.374C124.135 130.719 124.283 131.228 124.283 131.902C124.283 132.514 124.159 132.999 123.91 133.358C123.662 133.713 123.325 133.946 122.899 134.056Z" fill="black"/>
<path d="M93.7077 221.779L91.4918 221.915C91.4539 221.726 91.3725 221.555 91.2475 221.404C91.1225 221.249 90.9577 221.126 90.7532 221.035C90.5524 220.94 90.3119 220.893 90.0316 220.893C89.6566 220.893 89.3403 220.972 89.0827 221.131C88.8252 221.287 88.6964 221.495 88.6964 221.756C88.6964 221.965 88.7797 222.141 88.9464 222.285C89.113 222.429 89.399 222.544 89.8043 222.631L91.3839 222.949C92.2323 223.124 92.8649 223.404 93.2816 223.79C93.6982 224.177 93.9066 224.684 93.9066 225.313C93.9066 225.885 93.738 226.387 93.4009 226.819C93.0676 227.25 92.6092 227.588 92.0259 227.83C91.4464 228.069 90.7778 228.188 90.0202 228.188C88.8649 228.188 87.9445 227.947 87.2589 227.466C86.5771 226.982 86.1775 226.322 86.06 225.489L88.4407 225.364C88.5127 225.716 88.6869 225.985 88.9634 226.171C89.2399 226.353 89.5941 226.444 90.0259 226.444C90.4502 226.444 90.7911 226.362 91.0486 226.199C91.31 226.033 91.4426 225.819 91.4464 225.557C91.4426 225.338 91.3498 225.158 91.168 225.018C90.9861 224.874 90.7058 224.764 90.3271 224.688L88.8157 224.387C87.9634 224.216 87.329 223.921 86.9123 223.501C86.4994 223.08 86.293 222.544 86.293 221.893C86.293 221.332 86.4445 220.849 86.7475 220.444C87.0544 220.038 87.4843 219.726 88.0373 219.506C88.5941 219.287 89.2456 219.177 89.9918 219.177C91.0941 219.177 91.9615 219.41 92.5941 219.876C93.2304 220.341 93.6016 220.976 93.7077 221.779ZM95.4307 228.018V219.29H97.8511V228.018H95.4307ZM96.6466 218.165C96.2868 218.165 95.978 218.046 95.7205 217.807C95.4667 217.565 95.3398 217.275 95.3398 216.938C95.3398 216.605 95.4667 216.319 95.7205 216.08C95.978 215.838 96.2868 215.716 96.6466 215.716C97.0064 215.716 97.3133 215.838 97.5671 216.08C97.8246 216.319 97.9534 216.605 97.9534 216.938C97.9534 217.275 97.8246 217.565 97.5671 217.807C97.3133 218.046 97.0064 218.165 96.6466 218.165ZM102.21 222.972V228.018H99.79V219.29H102.097V220.83H102.199C102.392 220.323 102.716 219.921 103.171 219.626C103.625 219.326 104.176 219.177 104.824 219.177C105.43 219.177 105.959 219.309 106.409 219.574C106.86 219.84 107.21 220.218 107.46 220.711C107.71 221.199 107.835 221.783 107.835 222.461V228.018H105.415V222.893C105.419 222.358 105.282 221.942 105.006 221.643C104.729 221.34 104.349 221.188 103.864 221.188C103.538 221.188 103.25 221.258 103 221.398C102.754 221.538 102.561 221.743 102.421 222.012C102.284 222.277 102.214 222.597 102.21 222.972ZM113.686 228.188C112.792 228.188 112.023 227.999 111.379 227.62C110.739 227.237 110.247 226.707 109.902 226.029C109.561 225.351 109.391 224.571 109.391 223.688C109.391 222.794 109.563 222.01 109.908 221.336C110.256 220.658 110.751 220.129 111.391 219.751C112.031 219.368 112.792 219.177 113.675 219.177C114.436 219.177 115.103 219.315 115.675 219.591C116.247 219.868 116.699 220.256 117.033 220.756C117.366 221.256 117.55 221.843 117.584 222.518H115.3C115.235 222.082 115.065 221.732 114.789 221.466C114.516 221.197 114.158 221.063 113.715 221.063C113.34 221.063 113.012 221.165 112.732 221.37C112.455 221.571 112.239 221.864 112.084 222.251C111.929 222.637 111.851 223.105 111.851 223.654C111.851 224.211 111.927 224.684 112.078 225.074C112.234 225.465 112.451 225.762 112.732 225.966C113.012 226.171 113.34 226.273 113.715 226.273C113.991 226.273 114.239 226.216 114.459 226.103C114.682 225.989 114.866 225.824 115.01 225.608C115.158 225.389 115.254 225.125 115.3 224.819H117.584C117.546 225.485 117.364 226.072 117.038 226.58C116.717 227.084 116.271 227.478 115.703 227.762C115.135 228.046 114.463 228.188 113.686 228.188ZM123.111 228.188C122.213 228.188 121.44 228.006 120.793 227.643C120.149 227.275 119.653 226.756 119.304 226.086C118.956 225.411 118.781 224.614 118.781 223.694C118.781 222.796 118.956 222.008 119.304 221.33C119.653 220.652 120.143 220.124 120.776 219.745C121.412 219.366 122.158 219.177 123.014 219.177C123.59 219.177 124.126 219.269 124.622 219.455C125.122 219.637 125.558 219.912 125.929 220.279C126.304 220.646 126.596 221.108 126.804 221.665C127.012 222.218 127.117 222.866 127.117 223.608V224.273H119.747V222.773H124.838C124.838 222.425 124.762 222.116 124.611 221.847C124.459 221.578 124.249 221.368 123.98 221.216C123.715 221.061 123.406 220.983 123.054 220.983C122.687 220.983 122.361 221.069 122.077 221.239C121.796 221.406 121.577 221.631 121.418 221.915C121.259 222.196 121.177 222.508 121.173 222.853V224.279C121.173 224.711 121.253 225.084 121.412 225.398C121.575 225.713 121.804 225.955 122.1 226.125C122.395 226.296 122.745 226.381 123.151 226.381C123.42 226.381 123.666 226.343 123.889 226.268C124.113 226.192 124.304 226.078 124.463 225.927C124.622 225.775 124.743 225.59 124.827 225.37L127.065 225.518C126.952 226.055 126.719 226.525 126.367 226.927C126.018 227.324 125.567 227.635 125.014 227.858C124.465 228.078 123.831 228.188 123.111 228.188ZM132.376 228.018V226.245L136.518 222.41C136.871 222.069 137.166 221.762 137.405 221.489C137.647 221.216 137.831 220.949 137.956 220.688C138.081 220.423 138.143 220.137 138.143 219.83C138.143 219.489 138.066 219.196 137.91 218.949C137.755 218.699 137.543 218.508 137.274 218.376C137.005 218.239 136.7 218.171 136.359 218.171C136.003 218.171 135.693 218.243 135.428 218.387C135.162 218.531 134.958 218.737 134.814 219.006C134.67 219.275 134.598 219.595 134.598 219.966H132.263C132.263 219.205 132.435 218.544 132.78 217.984C133.125 217.423 133.607 216.989 134.229 216.682C134.85 216.376 135.566 216.222 136.376 216.222C137.21 216.222 137.935 216.37 138.553 216.665C139.174 216.957 139.657 217.362 140.001 217.881C140.346 218.4 140.518 218.995 140.518 219.665C140.518 220.105 140.431 220.538 140.257 220.966C140.087 221.394 139.782 221.87 139.342 222.393C138.903 222.911 138.284 223.535 137.484 224.262L135.786 225.927V226.006H140.672V228.018H132.376ZM147.017 228.273C146.04 228.269 145.199 228.029 144.494 227.552C143.793 227.074 143.254 226.383 142.875 225.478C142.5 224.572 142.314 223.483 142.318 222.211C142.318 220.942 142.506 219.86 142.881 218.966C143.259 218.073 143.799 217.393 144.5 216.927C145.204 216.457 146.043 216.222 147.017 216.222C147.99 216.222 148.828 216.457 149.528 216.927C150.233 217.396 150.774 218.078 151.153 218.972C151.532 219.862 151.72 220.942 151.716 222.211C151.716 223.487 151.526 224.578 151.148 225.483C150.773 226.389 150.235 227.08 149.534 227.557C148.833 228.035 147.994 228.273 147.017 228.273ZM147.017 226.233C147.684 226.233 148.216 225.898 148.614 225.228C149.011 224.557 149.208 223.552 149.204 222.211C149.204 221.328 149.114 220.593 148.932 220.006C148.754 219.419 148.5 218.978 148.17 218.682C147.845 218.387 147.46 218.239 147.017 218.239C146.354 218.239 145.824 218.571 145.426 219.233C145.028 219.896 144.828 220.889 144.824 222.211C144.824 223.105 144.913 223.851 145.091 224.449C145.273 225.044 145.528 225.491 145.858 225.79C146.187 226.086 146.574 226.233 147.017 226.233ZM158.032 228.273C157.055 228.269 156.214 228.029 155.51 227.552C154.809 227.074 154.269 226.383 153.89 225.478C153.515 224.572 153.33 223.483 153.334 222.211C153.334 220.942 153.521 219.86 153.896 218.966C154.275 218.073 154.815 217.393 155.515 216.927C156.22 216.457 157.059 216.222 158.032 216.222C159.006 216.222 159.843 216.457 160.544 216.927C161.248 217.396 161.79 218.078 162.169 218.972C162.548 219.862 162.735 220.942 162.731 222.211C162.731 223.487 162.542 224.578 162.163 225.483C161.788 226.389 161.25 227.08 160.55 227.557C159.849 228.035 159.01 228.273 158.032 228.273ZM158.032 226.233C158.699 226.233 159.231 225.898 159.629 225.228C160.027 224.557 160.224 223.552 160.22 222.211C160.22 221.328 160.129 220.593 159.947 220.006C159.769 219.419 159.515 218.978 159.186 218.682C158.86 218.387 158.476 218.239 158.032 218.239C157.37 218.239 156.839 218.571 156.442 219.233C156.044 219.896 155.843 220.889 155.839 222.211C155.839 223.105 155.928 223.851 156.106 224.449C156.288 225.044 156.544 225.491 156.873 225.79C157.203 226.086 157.589 226.233 158.032 226.233ZM168.736 228.177C167.932 228.177 167.217 228.029 166.588 227.733C165.963 227.438 165.467 227.031 165.099 226.512C164.732 225.993 164.54 225.398 164.525 224.728H166.912C166.938 225.179 167.128 225.544 167.48 225.824C167.832 226.105 168.251 226.245 168.736 226.245C169.122 226.245 169.463 226.16 169.758 225.989C170.057 225.815 170.29 225.574 170.457 225.268C170.628 224.957 170.713 224.601 170.713 224.199C170.713 223.79 170.626 223.43 170.451 223.12C170.281 222.809 170.044 222.567 169.741 222.393C169.438 222.218 169.092 222.129 168.701 222.126C168.361 222.126 168.029 222.196 167.707 222.336C167.389 222.476 167.141 222.667 166.963 222.91L164.775 222.518L165.326 216.381H172.44V218.393H167.355L167.054 221.307H167.122C167.326 221.019 167.635 220.781 168.048 220.591C168.461 220.402 168.923 220.307 169.434 220.307C170.135 220.307 170.76 220.472 171.309 220.802C171.859 221.131 172.292 221.584 172.61 222.16C172.929 222.732 173.086 223.391 173.082 224.137C173.086 224.921 172.904 225.618 172.537 226.228C172.173 226.834 171.664 227.311 171.008 227.66C170.357 228.004 169.599 228.177 168.736 228.177Z" fill="black"/>
<path d="M172.199 25.9857L171.214 83.6019" stroke="white" stroke-width="1.50009" stroke-miterlimit="22.9256"/>
<path d="M168.679 25.9857L167.694 83.6019" stroke="white" stroke-width="1.50009" stroke-miterlimit="22.9256"/>
<path d="M165.199 25.9857L164.214 83.6019" stroke="white" stroke-width="1.50009" stroke-miterlimit="22.9256"/>
<path d="M186.371 69.979H173V75.3078H186.371V69.979Z" fill="white" stroke="white" stroke-width="0.999685" stroke-miterlimit="22.9256"/>
<path d="M186.471 75.0428L181.902 72.7037L186.471 70.3642V75.0428Z" fill="#E07B1F" stroke="#E07B1F" stroke-width="0.999685" stroke-miterlimit="22.9256"/>
</svg>
