<svg width="65" height="55" viewBox="0 0 65 55" fill="none" xmlns="http://www.w3.org/2000/svg">
<g id="&#240;&#159;&#166;&#134; icon &#34;book half&#34;">
<path id="Vector" fill-rule="evenodd" clip-rule="evenodd" d="M34.5312 7.51772V48.4236C38.3297 46.1991 43.1437 45.8927 47.5841 46.3544C52.3778 46.858 57.2122 48.2893 60.9375 49.7583V8.10952C57.3422 6.55656 52.1869 4.88188 47.1738 4.36143C41.7706 3.799 37.1881 4.62585 34.5312 7.51772ZM32.5 3.72345C28.4984 0.168428 22.6972 -0.360418 17.4159 0.185217C11.2653 0.827388 5.05781 3.00573 1.19031 4.82312C0.835449 4.98986 0.534525 5.25859 0.32346 5.59722C0.112396 5.93585 0.000107946 6.33007 0 6.73284L0 52.902C9.40956e-05 53.2531 0.0854634 53.5986 0.248288 53.9068C0.411113 54.215 0.646188 54.4761 0.931981 54.6661C1.21777 54.8562 1.54515 54.9691 1.88412 54.9945C2.22309 55.0199 2.56282 54.9571 2.87219 54.8117C6.45531 53.1328 12.2281 51.114 17.8222 50.5306C23.5463 49.9346 28.3441 50.8957 30.9156 54.2115C31.106 54.4566 31.3471 54.6544 31.6214 54.7903C31.8956 54.9263 32.1959 54.9968 32.5 54.9968C32.8041 54.9968 33.1044 54.9263 33.3786 54.7903C33.6529 54.6544 33.894 54.4566 34.0844 54.2115C36.6559 50.8957 41.4538 49.9346 47.1738 50.5306C52.7719 51.114 58.5488 53.1328 62.1278 54.8117C62.4372 54.9571 62.7769 55.0199 63.1159 54.9945C63.4548 54.9691 63.7822 54.8562 64.068 54.6661C64.3538 54.4761 64.5889 54.215 64.7517 53.9068C64.9145 53.5986 64.9999 53.2531 65 52.902V6.73284C64.9999 6.33007 64.8876 5.93585 64.6765 5.59722C64.4655 5.25859 64.1646 4.98986 63.8097 4.82312C59.9422 3.00573 53.7347 0.827388 47.5841 0.185217C42.3028 -0.364615 36.5016 0.168428 32.5 3.72345Z" fill="#E67817"/>
</g>
</svg>
