<svg width="35" height="40" viewBox="0 0 35 40" fill="none" xmlns="http://www.w3.org/2000/svg">
<path d="M12.0312 11.25V15H22.9688V11.25C22.9688 7.79688 20.5215 5 17.5 5C14.4785 5 12.0312 7.79688 12.0312 11.25ZM7.65625 15V11.25C7.65625 5.03906 12.0654 0 17.5 0C22.9346 0 27.3438 5.03906 27.3438 11.25V15H28.4375C30.8506 15 32.8125 17.2422 32.8125 20V35C32.8125 37.7578 30.8506 40 28.4375 40H6.5625C4.14941 40 2.1875 37.7578 2.1875 35V20C2.1875 17.2422 4.14941 15 6.5625 15H7.65625Z" fill="#E67817"/>
</svg>
