<svg width="30" height="29" viewBox="0 0 30 29" fill="none" xmlns="http://www.w3.org/2000/svg">
<path d="M26.2251 22.4206C24.9412 20.3471 22.1149 18.125 16.3374 18.125C10.5599 18.125 7.7354 20.3453 6.44971 22.4206C7.63428 23.9091 9.13848 25.1107 10.8504 25.936C12.5623 26.7613 14.4378 27.1891 16.3374 27.1875C18.237 27.1891 20.1126 26.7613 21.8244 25.936C23.5363 25.1107 25.0405 23.9091 26.2251 22.4206Z" fill="black"/>
<path fill-rule="evenodd" clip-rule="evenodd" d="M16.3375 16.3125C17.7762 16.3125 19.156 15.7396 20.1734 14.7199C21.1908 13.7002 21.7623 12.3171 21.7623 10.875C21.7623 9.43289 21.1908 8.04984 20.1734 7.03011C19.156 6.01038 17.7762 5.4375 16.3375 5.4375C14.8987 5.4375 13.5189 6.01038 12.5015 7.03011C11.4841 8.04984 10.9126 9.43289 10.9126 10.875C10.9126 12.3171 11.4841 13.7002 12.5015 14.7199C13.5189 15.7396 14.8987 16.3125 16.3375 16.3125Z" fill="black"/>
<path fill-rule="evenodd" clip-rule="evenodd" d="M15.2468 1.8125C11.8897 1.8125 8.67008 3.14921 6.29624 5.52858C3.92241 7.90795 2.5888 11.1351 2.5888 14.5C2.5888 17.8649 3.92241 21.092 6.29624 23.4714C8.67008 25.8508 11.8897 27.1875 15.2468 27.1875C18.6039 27.1875 21.8235 25.8508 24.1973 23.4714C26.5712 21.092 27.9048 17.8649 27.9048 14.5C27.9048 11.1351 26.5712 7.90795 24.1973 5.52858C21.8235 3.14921 18.6039 1.8125 15.2468 1.8125ZM0.780518 14.5C0.780518 10.6544 2.30464 6.96623 5.01759 4.24695C7.73055 1.52767 11.4101 0 15.2468 0C19.0835 0 22.763 1.52767 25.476 4.24695C28.189 6.96623 29.7131 10.6544 29.7131 14.5C29.7131 18.3456 28.189 22.0338 25.476 24.753C22.763 27.4723 19.0835 29 15.2468 29C11.4101 29 7.73055 27.4723 5.01759 24.753C2.30464 22.0338 0.780518 18.3456 0.780518 14.5Z" fill="black"/>
</svg>
