<svg width="20" height="20" viewBox="0 0 20 20" fill="none" xmlns="http://www.w3.org/2000/svg">
<g clip-path="url(#clip0_248_875)">
<path d="M10.0001 17.5C15.5235 17.5 20.0001 13.8633 20.0001 9.375C20.0001 4.88672 15.5235 1.25 10.0001 1.25C4.47664 1.25 7.63191e-05 4.88672 7.63191e-05 9.375C7.63191e-05 11.1367 0.691483 12.7656 1.86336 14.0977C1.78914 15.0547 1.41805 15.9062 1.02742 16.5547C0.812576 16.9141 0.593826 17.2031 0.43367 17.3984C0.351639 17.4961 0.289139 17.5703 0.242264 17.6211C0.218826 17.6445 0.203201 17.6641 0.191483 17.6758L0.179764 17.6875C7.632e-05 17.8672 -0.0507049 18.1328 0.0469513 18.3672C0.144608 18.6016 0.37117 18.7539 0.625076 18.7539C1.74617 18.7539 2.87508 18.4062 3.81258 18C4.70711 17.6094 5.46883 17.1445 5.93367 16.8047C7.17586 17.2539 8.55086 17.5039 10.0001 17.5039V17.5ZM5.00008 8.125C5.3316 8.125 5.64954 8.2567 5.88396 8.49112C6.11838 8.72554 6.25008 9.04348 6.25008 9.375C6.25008 9.70652 6.11838 10.0245 5.88396 10.2589C5.64954 10.4933 5.3316 10.625 5.00008 10.625C4.66856 10.625 4.35061 10.4933 4.11619 10.2589C3.88177 10.0245 3.75008 9.70652 3.75008 9.375C3.75008 9.04348 3.88177 8.72554 4.11619 8.49112C4.35061 8.2567 4.66856 8.125 5.00008 8.125ZM10.0001 8.125C10.3316 8.125 10.6495 8.2567 10.884 8.49112C11.1184 8.72554 11.2501 9.04348 11.2501 9.375C11.2501 9.70652 11.1184 10.0245 10.884 10.2589C10.6495 10.4933 10.3316 10.625 10.0001 10.625C9.66856 10.625 9.35061 10.4933 9.11619 10.2589C8.88177 10.0245 8.75008 9.70652 8.75008 9.375C8.75008 9.04348 8.88177 8.72554 9.11619 8.49112C9.35061 8.2567 9.66856 8.125 10.0001 8.125ZM13.7501 9.375C13.7501 9.04348 13.8818 8.72554 14.1162 8.49112C14.3506 8.2567 14.6686 8.125 15.0001 8.125C15.3316 8.125 15.6495 8.2567 15.884 8.49112C16.1184 8.72554 16.2501 9.04348 16.2501 9.375C16.2501 9.70652 16.1184 10.0245 15.884 10.2589C15.6495 10.4933 15.3316 10.625 15.0001 10.625C14.6686 10.625 14.3506 10.4933 14.1162 10.2589C13.8818 10.0245 13.7501 9.70652 13.7501 9.375Z" fill="white"/>
</g>
<defs>
<clipPath id="clip0_248_875">
<rect width="20" height="20" fill="white"/>
</clipPath>
</defs>
</svg>
