<svg width="64" height="66" viewBox="0 0 64 66" fill="none" xmlns="http://www.w3.org/2000/svg">
<path id="Vector" d="M20 12.375C20 9.09295 21.2643 5.94532 23.5147 3.62455C25.7652 1.30379 28.8174 0 32 0C35.1826 0 38.2348 1.30379 40.4853 3.62455C42.7357 5.94532 44 9.09295 44 12.375C44 15.6571 42.7357 18.8047 40.4853 21.1254C38.2348 23.4462 35.1826 24.75 32 24.75C28.8174 24.75 25.7652 23.4462 23.5147 21.1254C21.2643 18.8047 20 15.6571 20 12.375ZM30 31.9688V66L23.95 62.8805C21.3375 61.5398 18.5125 60.6891 15.6 60.3926L3.6 59.1551C1.5625 58.9359 0 57.1699 0 55.043V28.875C0 26.5934 1.7875 24.75 4 24.75H7.7875C15.7375 24.75 23.4875 27.2766 30 31.9688ZM34 66V31.9688C40.5125 27.2766 48.2625 24.75 56.2125 24.75H60C62.2125 24.75 64 26.5934 64 28.875V55.043C64 57.157 62.4375 58.9359 60.4 59.1422L48.4 60.3797C45.5 60.6762 42.6625 61.527 40.05 62.8676L34 66Z" fill="#E67817"/>
</svg>
