<svg width="48" height="48" viewBox="0 0 48 48" fill="none" xmlns="http://www.w3.org/2000/svg">
<circle cx="24" cy="24" r="24" fill="#FDE9D7"/>
<path d="M40.5511 30.8013H6.46108C5.65453 30.8013 5 31.4539 5 32.2604V32.4492C5 33.2558 5.65453 33.9103 6.46108 33.9103H40.5511C41.3586 33.9103 42.0132 33.2558 42.0132 32.4492V32.2604C42.0122 31.4539 41.3586 30.8013 40.5511 30.8013Z" fill="#E67817"/>
<path d="M17.1031 19.8602C17.1031 19.377 16.7119 18.9849 16.2278 18.9849H9.16056C8.67643 18.9849 8.28333 19.377 8.28333 19.8602V28.8581H17.1031V19.8602Z" fill="#E67817"/>
<path d="M27.9164 14.8763C27.9164 14.3921 27.5253 14 27.0411 14H19.9739C19.4879 14 19.0967 14.3921 19.0967 14.8763V28.8587H27.9164V14.8763Z" fill="#E67817"/>
<path d="M38.7298 22.492C38.7298 22.0079 38.3386 21.6147 37.8526 21.6147H30.7873C30.3012 21.6147 29.91 22.0079 29.91 22.492V28.8592H38.7298V22.492Z" fill="#E67817"/>
</svg>
