<svg width="64" height="72" viewBox="0 0 64 72" fill="none" xmlns="http://www.w3.org/2000/svg">
<g id="&#240;&#159;&#166;&#134; icon &#34;file text&#34;">
<path id="Vector" fill-rule="evenodd" clip-rule="evenodd" d="M10.6667 0H53.3333C56.1623 0 58.8754 0.948212 60.8758 2.63604C62.8762 4.32387 64 6.61305 64 9V63C64 65.3869 62.8762 67.6761 60.8758 69.364C58.8754 71.0518 56.1623 72 53.3333 72H10.6667C7.83769 72 5.12458 71.0518 3.12419 69.364C1.12381 67.6761 0 65.3869 0 63V9C0 6.61305 1.12381 4.32387 3.12419 2.63604C5.12458 0.948212 7.83769 0 10.6667 0ZM10.6667 4.5C9.25218 4.5 7.89562 4.97411 6.89543 5.81802C5.89524 6.66193 5.33333 7.80653 5.33333 9V63C5.33333 64.1935 5.89524 65.3381 6.89543 66.182C7.89562 67.0259 9.25218 67.5 10.6667 67.5H53.3333C54.7478 67.5 56.1044 67.0259 57.1046 66.182C58.1048 65.3381 58.6667 64.1935 58.6667 63V9C58.6667 7.80653 58.1048 6.66193 57.1046 5.81802C56.1044 4.97411 54.7478 4.5 53.3333 4.5H10.6667Z" fill="#E67817"/>
<path id="Vector_2" fill-rule="evenodd" clip-rule="evenodd" d="M13.3333 47.25C13.3333 46.6533 13.6143 46.081 14.1144 45.659C14.6145 45.2371 15.2927 45 16 45H32C32.7072 45 33.3855 45.2371 33.8856 45.659C34.3857 46.081 34.6666 46.6533 34.6666 47.25C34.6666 47.8467 34.3857 48.419 33.8856 48.841C33.3855 49.263 32.7072 49.5 32 49.5H16C15.2927 49.5 14.6145 49.263 14.1144 48.841C13.6143 48.419 13.3333 47.8467 13.3333 47.25ZM13.3333 38.25C13.3333 37.6533 13.6143 37.081 14.1144 36.659C14.6145 36.2371 15.2927 36 16 36H48C48.7072 36 49.3855 36.2371 49.8856 36.659C50.3857 37.081 50.6666 37.6533 50.6666 38.25C50.6666 38.8467 50.3857 39.419 49.8856 39.841C49.3855 40.263 48.7072 40.5 48 40.5H16C15.2927 40.5 14.6145 40.263 14.1144 39.841C13.6143 39.419 13.3333 38.8467 13.3333 38.25ZM13.3333 29.25C13.3333 28.6533 13.6143 28.081 14.1144 27.659C14.6145 27.2371 15.2927 27 16 27H48C48.7072 27 49.3855 27.2371 49.8856 27.659C50.3857 28.081 50.6666 28.6533 50.6666 29.25C50.6666 29.8467 50.3857 30.419 49.8856 30.841C49.3855 31.2629 48.7072 31.5 48 31.5H16C15.2927 31.5 14.6145 31.2629 14.1144 30.841C13.6143 30.419 13.3333 29.8467 13.3333 29.25ZM13.3333 20.25C13.3333 19.6533 13.6143 19.081 14.1144 18.659C14.6145 18.2371 15.2927 18 16 18H48C48.7072 18 49.3855 18.2371 49.8856 18.659C50.3857 19.081 50.6666 19.6533 50.6666 20.25C50.6666 20.8467 50.3857 21.419 49.8856 21.841C49.3855 22.2629 48.7072 22.5 48 22.5H16C15.2927 22.5 14.6145 22.2629 14.1144 21.841C13.6143 21.419 13.3333 20.8467 13.3333 20.25Z" fill="#E67817"/>
</g>
</svg>
