<svg width="29" height="29" viewBox="0 0 29 29" fill="none" xmlns="http://www.w3.org/2000/svg">
<path fill-rule="evenodd" clip-rule="evenodd" d="M18.9259 18.9259C19.0942 18.7574 19.2941 18.6237 19.5141 18.5325C19.7342 18.4413 19.97 18.3943 20.2082 18.3943C20.4464 18.3943 20.6822 18.4413 20.9023 18.5325C21.1223 18.6237 21.3222 18.7574 21.4905 18.9259L28.4686 25.9039C28.8087 26.2438 28.9998 26.7048 29 27.1856C29.0002 27.6664 28.8093 28.1276 28.4695 28.4677C28.1296 28.8078 27.6686 28.9989 27.1878 28.9991C26.707 28.9993 26.2458 28.8084 25.9057 28.4686L18.9277 21.4905C18.7592 21.3222 18.6255 21.1223 18.5343 20.9023C18.4431 20.6823 18.3961 20.4464 18.3961 20.2082C18.3961 19.97 18.4431 19.7342 18.5343 19.5142C18.6255 19.2941 18.7574 19.0942 18.9259 18.9259Z" fill="white"/>
<path fill-rule="evenodd" clip-rule="evenodd" d="M11.7811 21.7497C13.0902 21.7497 14.3865 21.4919 15.5959 20.9909C16.8054 20.4899 17.9043 19.7557 18.83 18.83C19.7557 17.9043 20.4899 16.8054 20.9909 15.5959C21.4919 14.3865 21.7497 13.0902 21.7497 11.7811C21.7497 10.472 21.4919 9.17572 20.9909 7.96627C20.4899 6.75682 19.7557 5.65789 18.83 4.73222C17.9043 3.80655 16.8054 3.07226 15.5959 2.57129C14.3865 2.07032 13.0902 1.81248 11.7811 1.81248C9.13726 1.81248 6.6017 2.86274 4.73222 4.73222C2.86274 6.6017 1.81248 9.13726 1.81248 11.7811C1.81248 14.4249 2.86274 16.9605 4.73222 18.83C6.6017 20.6995 9.13726 21.7497 11.7811 21.7497ZM23.5622 11.7811C23.5622 14.9056 22.321 17.9022 20.1116 20.1116C17.9022 22.321 14.9056 23.5622 11.7811 23.5622C8.65656 23.5622 5.65999 22.321 3.4506 20.1116C1.24122 17.9022 0 14.9056 0 11.7811C0 8.65656 1.24122 5.65999 3.4506 3.4506C5.65999 1.24122 8.65656 0 11.7811 0C14.9056 0 17.9022 1.24122 20.1116 3.4506C22.321 5.65999 23.5622 8.65656 23.5622 11.7811Z" fill="white"/>
</svg>
