<svg width="199" height="190" viewBox="0 0 199 190" fill="none" xmlns="http://www.w3.org/2000/svg">
<path d="M30.3164 0.816403C33.6201 -0.630862 37.5068 -0.111331 40.2664 2.15234L55.9688 14.9922L71.6711 2.15234C75.1691 -0.705081 80.3385 -0.705081 83.7977 2.15234L99.5 14.9922L115.202 2.15234C118.7 -0.705081 123.87 -0.705081 127.329 2.15234L143.031 14.9922L158.734 2.15234C161.493 -0.111331 165.38 -0.630862 168.684 0.816403C171.987 2.26367 174.125 5.41797 174.125 8.90625V181.094C174.125 184.582 171.987 187.736 168.684 189.184C165.38 190.631 161.493 190.111 158.734 187.848L143.031 175.008L127.329 187.848C123.831 190.705 118.662 190.705 115.202 187.848L99.5 175.008L83.7977 187.848C80.2996 190.705 75.1303 190.705 71.6711 187.848L55.9688 175.008L40.2664 187.848C37.5068 190.111 33.6201 190.631 30.3164 189.184C27.0127 187.736 24.875 184.582 24.875 181.094V8.90625C24.875 5.41797 27.0127 2.26367 30.3164 0.816403ZM62.1875 53.4375C58.7672 53.4375 55.9688 56.1094 55.9688 59.375C55.9688 62.6406 58.7672 65.3125 62.1875 65.3125H136.812C140.233 65.3125 143.031 62.6406 143.031 59.375C143.031 56.1094 140.233 53.4375 136.812 53.4375H62.1875ZM55.9688 130.625C55.9688 133.891 58.7672 136.562 62.1875 136.562H136.812C140.233 136.562 143.031 133.891 143.031 130.625C143.031 127.359 140.233 124.687 136.812 124.687H62.1875C58.7672 124.687 55.9688 127.359 55.9688 130.625ZM62.1875 89.0625C58.7672 89.0625 55.9688 91.7344 55.9688 95C55.9688 98.2656 58.7672 100.937 62.1875 100.937H136.812C140.233 100.937 143.031 98.2656 143.031 95C143.031 91.7344 140.233 89.0625 136.812 89.0625H62.1875Z" fill="#D3CFCF"/>
<g clip-path="url(#clip0_282_1129)">
<path d="M176.875 118.75C176.875 129.508 173.441 139.445 167.656 147.508L196.834 177.203C199.714 180.133 199.714 184.891 196.834 187.82C193.953 190.75 189.274 190.75 186.393 187.82L157.216 158.125C149.288 164.031 139.516 167.5 128.938 167.5C102.457 167.5 81 145.68 81 118.75C81 91.8203 102.457 70 128.938 70C155.418 70 176.875 91.8203 176.875 118.75ZM128.938 152.5C133.296 152.5 137.611 151.627 141.638 149.931C145.664 148.235 149.323 145.749 152.405 142.615C155.486 139.481 157.931 135.76 159.599 131.666C161.267 127.571 162.125 123.182 162.125 118.75C162.125 114.318 161.267 109.929 159.599 105.834C157.931 101.74 155.486 98.0191 152.405 94.8851C149.323 91.7512 145.664 89.2652 141.638 87.5691C137.611 85.873 133.296 85 128.938 85C124.579 85 120.264 85.873 116.237 87.5691C112.211 89.2652 108.552 91.7512 105.47 94.8851C102.389 98.0191 99.9441 101.74 98.2762 105.834C96.6084 109.929 95.75 114.318 95.75 118.75C95.75 123.182 96.6084 127.571 98.2762 131.666C99.9441 135.76 102.389 139.481 105.47 142.615C108.552 145.749 112.211 148.235 116.237 149.931C120.264 151.627 124.579 152.5 128.938 152.5Z" fill="black"/>
</g>
<defs>
<clipPath id="clip0_282_1129">
<rect width="118" height="120" fill="white" transform="translate(81 70)"/>
</clipPath>
</defs>
</svg>
