<svg width="34" height="37" viewBox="0 0 34 37" fill="none" xmlns="http://www.w3.org/2000/svg">
<g id="&#240;&#159;&#166;&#134; icon &#34;share&#34;">
<path id="Vector" d="M25.5001 22.9764C24.3871 22.9773 23.319 23.4503 22.5251 24.2936L11.3334 18.9019C11.3334 18.7181 11.3334 18.565 11.3334 18.3811C11.3334 18.1973 11.3334 18.0442 11.3334 17.8757L22.5251 12.4686C23.2261 13.2116 24.1433 13.6692 25.1209 13.7639C26.0986 13.8586 27.0765 13.5844 27.8884 12.988C28.7003 12.3916 29.2963 11.5097 29.5751 10.4921C29.8538 9.47447 29.7982 8.38389 29.4177 7.40558C29.0372 6.42726 28.3552 5.62153 27.4875 5.12522C26.6199 4.62891 25.6201 4.47262 24.658 4.68291C23.6959 4.89319 22.8307 5.45708 22.2095 6.27881C21.5883 7.10053 21.2493 8.12942 21.2501 9.19073V9.71152L10.0584 15.1032C9.46108 14.4687 8.7037 14.0391 7.88136 13.8684C7.05901 13.6977 6.20835 13.7934 5.43614 14.1435C4.66394 14.4937 4.00461 15.0827 3.54094 15.8366C3.07726 16.5906 2.8299 17.4758 2.8299 18.3811C2.8299 19.2865 3.07726 20.1717 3.54094 20.9257C4.00461 21.6796 4.66394 22.2686 5.43614 22.6187C6.20835 22.9689 7.05901 23.0646 7.88136 22.8939C8.7037 22.7232 9.46108 22.2936 10.0584 21.6591L21.2501 27.0661V27.5716C21.2501 28.4804 21.4993 29.3688 21.9663 30.1245C22.4333 30.8802 23.0971 31.4692 23.8737 31.817C24.6502 32.1648 25.5048 32.2558 26.3292 32.0785C27.1536 31.9012 27.9109 31.4635 28.5053 30.8209C29.0996 30.1782 29.5044 29.3594 29.6684 28.468C29.8324 27.5767 29.7482 26.6527 29.4266 25.8131C29.1049 24.9734 28.5602 24.2557 27.8612 23.7508C27.1623 23.2459 26.3406 22.9764 25.5001 22.9764Z" fill="white"/>
</g>
</svg>
