<svg width="39" height="41" viewBox="0 0 39 41" fill="none" xmlns="http://www.w3.org/2000/svg">
<path d="M31.9582 11.2199L27.4631 6.48781C26.5703 5.5468 25.3591 5.01753 24.0957 5.01636H14.0254C12.762 5.01753 11.5508 5.5468 10.658 6.48781L6.16291 11.2199C5.26902 12.1597 4.76625 13.4348 4.76514 14.7647V30.0979C4.76514 31.4283 5.26718 32.7043 6.16081 33.645C7.05445 34.5857 8.26648 35.1142 9.53027 35.1142H28.5908C29.8546 35.1142 31.0666 34.5857 31.9603 33.645C32.8539 32.7043 33.356 31.4283 33.356 30.0979V14.7647C33.3548 13.4348 32.8521 12.1597 31.9582 11.2199ZM12.8976 8.84548C13.202 8.53993 13.6048 8.36673 14.0254 8.36057H24.0957C24.5163 8.36673 24.9191 8.53993 25.2235 8.84548L27.9396 11.7048H10.1815L12.8976 8.84548ZM28.5908 31.77H9.53027C9.10901 31.77 8.705 31.5939 8.40712 31.2803C8.10924 30.9667 7.94189 30.5414 7.94189 30.0979V15.049H30.1792V30.0979C30.1792 30.5414 30.0119 30.9667 29.714 31.2803C29.4161 31.5939 29.0121 31.77 28.5908 31.77Z" fill="#231F20"/>
<path d="M23.8257 18.3932C23.4044 18.3932 23.0004 18.5694 22.7025 18.8829C22.4047 19.1965 22.2373 19.6218 22.2373 20.0653C22.2373 20.9522 21.9026 21.8028 21.3069 22.43C20.7111 23.0572 19.9031 23.4095 19.0605 23.4095C18.218 23.4095 17.41 23.0572 16.8142 22.43C16.2185 21.8028 15.8838 20.9522 15.8838 20.0653C15.8838 19.6218 15.7164 19.1965 15.4186 18.8829C15.1207 18.5694 14.7167 18.3932 14.2954 18.3932C13.8741 18.3932 13.4701 18.5694 13.1723 18.8829C12.8744 19.1965 12.707 19.6218 12.707 20.0653C12.707 21.8392 13.3764 23.5404 14.5679 24.7947C15.7594 26.049 17.3755 26.7537 19.0605 26.7537C20.7456 26.7537 22.3616 26.049 23.5532 24.7947C24.7447 23.5404 25.4141 21.8392 25.4141 20.0653C25.4141 19.6218 25.2467 19.1965 24.9488 18.8829C24.651 18.5694 24.2469 18.3932 23.8257 18.3932Z" fill="#231F20"/>
</svg>
