<svg width="32" height="29" viewBox="0 0 32 29" fill="none" xmlns="http://www.w3.org/2000/svg">
<path fill-rule="evenodd" clip-rule="evenodd" d="M6.65418 0.676667C6.83528 0.464454 7.06008 0.294081 7.31314 0.17727C7.5662 0.0604584 7.8415 -1.83679e-05 8.1201 4.18467e-09H24.5924C24.871 -1.83679e-05 25.1463 0.0604584 25.3993 0.17727C25.6524 0.294081 25.8772 0.464454 26.0583 0.676667L31.0906 6.56173C31.5399 7.08728 31.7869 7.75656 31.7869 8.44867V8.94167C31.787 9.89862 31.4888 10.8317 30.934 11.6105C30.3792 12.3893 29.5955 12.9748 28.6925 13.2854C27.7894 13.5959 26.8121 13.6159 25.8972 13.3425C24.9822 13.0691 24.1754 12.516 23.5894 11.7605C23.1614 12.313 22.6131 12.76 21.9862 13.0672C21.3593 13.3745 20.6706 13.534 19.9728 13.5333C19.275 13.5341 18.5862 13.3747 17.9593 13.0674C17.3324 12.7601 16.7841 12.3131 16.3562 11.7605C15.9284 12.3131 15.38 12.7601 14.7531 13.0674C14.1263 13.3747 13.4375 13.5341 12.7397 13.5333C12.0418 13.5341 11.3531 13.3747 10.7262 13.0674C10.0993 12.7601 9.55093 12.3131 9.1231 11.7605C8.5371 12.516 7.73025 13.0691 6.81531 13.3425C5.90038 13.6159 4.92308 13.5959 4.02002 13.2854C3.11695 12.9748 2.33325 12.3893 1.77843 11.6105C1.22362 10.8317 0.925432 9.89862 0.925537 8.94167V8.44867C0.925561 7.75656 1.17254 7.08728 1.62185 6.56173L6.65611 0.674733L6.65418 0.676667ZM10.0875 8.94167C10.0875 9.6467 10.3669 10.3229 10.8643 10.8214C11.3617 11.3199 12.0363 11.6 12.7397 11.6C13.4431 11.6 14.1176 11.3199 14.615 10.8214C15.1124 10.3229 15.3918 9.6467 15.3918 8.94167C15.3918 8.68529 15.4934 8.43941 15.6743 8.25813C15.8552 8.07685 16.1005 7.975 16.3562 7.975C16.612 7.975 16.8573 8.07685 17.0382 8.25813C17.219 8.43941 17.3207 8.68529 17.3207 8.94167C17.3207 9.6467 17.6001 10.3229 18.0975 10.8214C18.5948 11.3199 19.2694 11.6 19.9728 11.6C20.6762 11.6 21.3508 11.3199 21.8482 10.8214C22.3455 10.3229 22.625 9.6467 22.625 8.94167C22.625 8.68529 22.7266 8.43941 22.9074 8.25813C23.0883 8.07685 23.3336 7.975 23.5894 7.975C23.8452 7.975 24.0905 8.07685 24.2713 8.25813C24.4522 8.43941 24.5538 8.68529 24.5538 8.94167C24.5538 9.6467 24.8332 10.3229 25.3306 10.8214C25.828 11.3199 26.5026 11.6 27.2059 11.6C27.9093 11.6 28.5839 11.3199 29.0813 10.8214C29.5787 10.3229 29.8581 9.6467 29.8581 8.94167V8.44867C29.8581 8.21827 29.776 7.99544 29.6266 7.82033L24.5924 1.93333H8.1201L3.08583 7.82033C2.93644 7.99544 2.85436 8.21827 2.85437 8.44867V8.94167C2.85437 9.6467 3.1338 10.3229 3.63117 10.8214C4.12855 11.3199 4.80313 11.6 5.50653 11.6C6.20992 11.6 6.88451 11.3199 7.38188 10.8214C7.87925 10.3229 8.15868 9.6467 8.15868 8.94167C8.15868 8.68529 8.26029 8.43941 8.44115 8.25813C8.62201 8.07685 8.86732 7.975 9.1231 7.975C9.37888 7.975 9.62418 8.07685 9.80504 8.25813C9.98591 8.43941 10.0875 8.68529 10.0875 8.94167ZM3.81879 14.5C4.07457 14.5 4.31988 14.6018 4.50074 14.7831C4.6816 14.9644 4.78321 15.2103 4.78321 15.4667V27.0667H6.71205V17.4C6.71205 16.8872 6.91527 16.3955 7.27699 16.0329C7.63872 15.6704 8.12933 15.4667 8.64089 15.4667H14.4274C14.939 15.4667 15.4296 15.6704 15.7913 16.0329C16.153 16.3955 16.3562 16.8872 16.3562 17.4V27.0667H27.9293V15.4667C27.9293 15.2103 28.0309 14.9644 28.2117 14.7831C28.3926 14.6018 28.6379 14.5 28.8937 14.5C29.1495 14.5 29.3948 14.6018 29.5756 14.7831C29.7565 14.9644 29.8581 15.2103 29.8581 15.4667V27.0667H30.8225C31.0783 27.0667 31.3236 27.1685 31.5045 27.3498C31.6853 27.5311 31.7869 27.777 31.7869 28.0333C31.7869 28.2897 31.6853 28.5356 31.5045 28.7169C31.3236 28.8982 31.0783 29 30.8225 29H1.88996C1.63418 29 1.38887 28.8982 1.20801 28.7169C1.02715 28.5356 0.925537 28.2897 0.925537 28.0333C0.925537 27.777 1.02715 27.5311 1.20801 27.3498C1.38887 27.1685 1.63418 27.0667 1.88996 27.0667H2.85437V15.4667C2.85437 15.2103 2.95598 14.9644 3.13685 14.7831C3.31771 14.6018 3.56301 14.5 3.81879 14.5ZM8.64089 27.0667H14.4274V17.4H8.64089V27.0667ZM18.2851 17.4C18.2851 16.8872 18.4883 16.3955 18.85 16.0329C19.2117 15.6704 19.7024 15.4667 20.2139 15.4667H24.0716C24.5831 15.4667 25.0738 15.6704 25.4355 16.0329C25.7972 16.3955 26.0004 16.8872 26.0004 17.4V23.2C26.0004 23.7128 25.7972 24.2045 25.4355 24.5671C25.0738 24.9296 24.5831 25.1333 24.0716 25.1333H20.2139C19.7024 25.1333 19.2117 24.9296 18.85 24.5671C18.4883 24.2045 18.2851 23.7128 18.2851 23.2V17.4ZM24.0716 17.4H20.2139V23.2H24.0716V17.4Z" fill="black"/>
</svg>
