<svg width="25" height="26" viewBox="0 0 25 26" fill="none" xmlns="http://www.w3.org/2000/svg">
<path d="M12.5002 2.08472C10.4399 2.08472 8.42599 2.69602 6.71298 3.84133C4.99997 4.98664 3.66484 6.61451 2.87642 8.51909C2.08801 10.4237 1.88172 12.5194 2.28365 14.5413C2.68558 16.5632 3.67768 18.4204 5.13447 19.8781C6.59127 21.3358 8.44734 22.3285 10.468 22.7307C12.4886 23.1329 14.5831 22.9265 16.4865 22.1376C18.3899 21.3487 20.0167 20.0127 21.1613 18.2986C22.3059 16.5846 22.9168 14.5693 22.9168 12.5078C22.9168 11.1391 22.6474 9.78368 22.1239 8.51909C21.6004 7.25449 20.8331 6.10546 19.8659 5.13758C18.8986 4.1697 17.7503 3.40194 16.4865 2.87813C15.2226 2.35432 13.8681 2.08472 12.5002 2.08472ZM12.5002 20.8463C10.852 20.8463 9.24083 20.3573 7.87042 19.4411C6.50001 18.5248 5.4319 17.2225 4.80117 15.6989C4.17044 14.1752 4.00541 12.4986 4.32696 10.8811C4.6485 9.26357 5.44217 7.77779 6.60761 6.61163C7.77305 5.44547 9.25791 4.65131 10.8744 4.32956C12.4909 4.00782 14.1665 4.17295 15.6892 4.80407C17.2119 5.43519 18.5134 6.50396 19.4291 7.87522C20.3448 9.24648 20.8335 10.8586 20.8335 12.5078C20.8335 14.7194 19.9555 16.8403 18.3927 18.4041C16.8299 19.9678 14.7103 20.8463 12.5002 20.8463Z" fill="#797777"/>
<path d="M12.5003 7.29614C11.4702 7.29614 10.4632 7.6018 9.60673 8.17445C8.75023 8.7471 8.08266 9.56104 7.68846 10.5133C7.29425 11.4656 7.19111 12.5135 7.39207 13.5244C7.59304 14.5354 8.08908 15.464 8.81748 16.1928C9.54588 16.9217 10.4739 17.418 11.4842 17.6191C12.4946 17.8202 13.5418 17.717 14.4935 17.3226C15.4452 16.9281 16.2586 16.2601 16.8309 15.4031C17.4032 14.5461 17.7087 13.5385 17.7087 12.5077C17.7087 11.1255 17.1599 9.79993 16.1832 8.82257C15.2064 7.84522 13.8817 7.29614 12.5003 7.29614Z" fill="#E67817"/>
</svg>
