<svg width="12" height="12" viewBox="0 0 12 12" fill="none" xmlns="http://www.w3.org/2000/svg">
<g clip-path="url(#clip0_2_96)">
<path d="M6.60208 1.04166C6.49167 0.81249 6.25833 0.666656 6.00208 0.666656C5.74583 0.666656 5.51458 0.81249 5.40208 1.04166L4.0625 3.79791L1.07083 4.23957C0.820833 4.27707 0.6125 4.45207 0.535417 4.69166C0.458333 4.93124 0.520833 5.19582 0.7 5.37291L2.87083 7.52082L2.35833 10.5562C2.31667 10.8062 2.42083 11.0604 2.62708 11.2083C2.83333 11.3562 3.10625 11.375 3.33125 11.2562L6.00417 9.82916L8.67708 11.2562C8.90208 11.375 9.175 11.3583 9.38125 11.2083C9.5875 11.0583 9.69167 10.8062 9.65 10.5562L9.13542 7.52082L11.3063 5.37291C11.4854 5.19582 11.55 4.93124 11.4708 4.69166C11.3917 4.45207 11.1854 4.27707 10.9354 4.23957L7.94167 3.79791L6.60208 1.04166Z" fill="#E2A508"/>
</g>
<defs>
<clipPath id="clip0_2_96">
<rect width="12" height="12" fill="white"/>
</clipPath>
</defs>
</svg>
