<svg width="20" height="20" viewBox="0 0 20 20" fill="none" xmlns="http://www.w3.org/2000/svg">
<path d="M7.5001 2.5C7.5001 1.83696 7.76349 1.20107 8.23233 0.732233C8.70117 0.263392 9.33706 0 10.0001 0C10.6631 0 11.299 0.263392 11.7679 0.732233C12.2367 1.20107 12.5001 1.83696 12.5001 2.5C12.5001 3.16304 12.2367 3.79893 11.7679 4.26777C11.299 4.73661 10.6631 5 10.0001 5C9.33706 5 8.70117 4.73661 8.23233 4.26777C7.76349 3.79893 7.5001 3.16304 7.5001 2.5ZM9.3751 15V18.75C9.3751 19.4414 8.81651 20 8.1251 20C7.43369 20 6.8751 19.4414 6.8751 18.75V11.2422L6.05869 12.5391C5.69151 13.125 4.91807 13.2969 4.33604 12.9297C3.75401 12.5625 3.57432 11.793 3.94151 11.2109L5.5001 8.73828C6.47276 7.1875 8.17198 6.25 10.0001 6.25C11.8282 6.25 13.5274 7.1875 14.5001 8.73438L16.0587 11.2109C16.4259 11.7969 16.2501 12.5664 15.6681 12.9336C15.086 13.3008 14.3126 13.125 13.9454 12.543L13.1251 11.2422V18.75C13.1251 19.4414 12.5665 20 11.8751 20C11.1837 20 10.6251 19.4414 10.6251 18.75V15H9.3751Z" fill="white"/>
</svg>
