<svg width="140" height="140" viewBox="0 0 140 140" fill="none" xmlns="http://www.w3.org/2000/svg">
<path d="M139.553 69.7748C139.553 108.311 108.313 139.551 69.7773 139.551C31.24 139.551 0 108.311 0 69.7748C0 31.2388 31.24 -0.00122866 69.7773 -0.00122866C108.313 -0.00122866 139.553 31.2388 139.553 69.7748Z" fill="#D9D9D9"/>
<mask id="mask0_2266_5956" style="mask-type:luminance" maskUnits="userSpaceOnUse" x="0" y="0" width="140" height="140">
<path d="M139.553 69.7748C139.553 108.311 108.313 139.551 69.7773 139.551C31.24 139.551 0 108.311 0 69.7748C0 31.2388 31.24 -0.00122866 69.7773 -0.00122866C108.313 -0.00122866 139.553 31.2388 139.553 69.7748Z" fill="white"/>
</mask>
<g mask="url(#mask0_2266_5956)">
<path d="M58.7803 109.254H85.5027V91.2498H58.7803V109.254Z" fill="#F9B095"/>
<path d="M78.2723 106.875C78.1949 106.875 78.1176 106.874 78.0416 106.874C73.7056 106.839 69.2856 105.87 65.2616 104.275C63.0536 103.398 60.6563 102.216 58.7803 100.564V91.2523H85.5029V106.151C83.1269 106.571 80.6803 106.875 78.2723 106.875Z" fill="#E4A187"/>
<path d="M101.066 57.3731C101.157 56.7104 102.282 55.6317 102.774 55.269C103.871 54.457 104.977 55.2917 105.297 56.3477C105.583 57.2917 105.61 58.3557 105.679 59.337C105.846 61.7264 105.485 64.0744 104.407 66.2304C103.69 67.6691 102.563 68.8504 101.229 69.7437C101.229 69.7437 99.7912 70.4584 99.5059 68.8157L101.066 57.3731Z" fill="#F9B095"/>
<path d="M100.836 58.8111C100.901 58.3378 101.705 57.5658 102.059 57.3044C102.843 56.7244 103.635 57.3218 103.864 58.0778C104.068 58.7538 104.089 59.5138 104.137 60.2164C104.257 61.9271 103.999 63.6058 103.229 65.1484C102.713 66.1778 101.907 67.0244 100.952 67.6631C100.952 67.6631 99.9241 68.1738 99.7188 66.9978L100.836 58.8111Z" fill="#DD9C83"/>
<path d="M42.5373 57.3731C42.4466 56.7104 41.3213 55.6317 40.8293 55.269C39.732 54.457 38.6253 55.2917 38.3053 56.3477C38.0186 57.2917 37.9933 58.3557 37.924 59.337C37.756 61.7264 38.1186 64.0744 39.1946 66.2304C39.9133 67.6691 41.04 68.8504 42.3733 69.7437C42.3733 69.7437 43.812 70.4584 44.0973 68.8157L42.5373 57.3731Z" fill="#F9B095"/>
<path d="M42.7671 58.8111C42.7018 58.3378 41.8978 57.5658 41.5445 57.3044C40.7591 56.7244 39.9671 57.3218 39.7378 58.0778C39.5338 58.7538 39.5138 59.5138 39.4645 60.2164C39.3445 61.9271 39.6045 63.6058 40.3738 65.1484C40.8885 66.1778 41.6951 67.0244 42.6498 67.6631C42.6498 67.6631 43.6778 68.1738 43.8831 66.9978L42.7671 58.8111Z" fill="#DD9C83"/>
<path d="M101.943 59.5285C101.943 67.0712 100.642 74.6992 97.0829 81.2272C93.9735 86.9365 89.3082 91.5071 84.2989 95.1578C80.2362 98.1191 75.8789 101.57 70.7349 101.148C65.3749 100.708 61.2002 96.1405 57.2829 92.5738C51.7749 87.5605 47.4269 81.3311 44.7482 74.0045C43.0975 69.4885 42.3389 64.3898 42.3389 59.5285C42.3389 35.1418 55.6815 19.8031 72.1415 19.8031C88.6002 19.8031 101.943 35.1418 101.943 59.5285Z" fill="#F9B095"/>
<path d="M118.804 117.395L85.5031 108.686H58.7804L25.4791 117.395C25.4791 117.395 10.0457 123.112 8.33105 141.211H72.1417H135.951C134.236 123.112 118.804 117.395 118.804 117.395Z" fill="#F9B095"/>
<path d="M118.804 117.395L85.5031 108.686H58.7804L25.4791 117.395C25.4791 117.395 10.0457 123.112 8.33105 141.211H72.1417H135.951C134.236 123.112 118.804 117.395 118.804 117.395Z" fill="white"/>
<path d="M50.3604 31.461C50.3604 31.461 60.3577 46.3263 85.503 48.041C85.503 48.041 83.399 47.0877 80.923 40.6103C80.923 40.6103 89.127 47.6597 99.5057 52.2317L101.896 57.0703C101.896 57.0703 101.878 54.601 104.166 55.0356C104.166 55.0356 106.072 35.657 98.0697 26.129C98.0697 26.129 96 21.5 89 16.5C89 16.5 84.5 13 72.5 13C72.5 13 53.331 12.0223 50.3604 31.461Z" fill="#351F17"/>
<path d="M54.2486 34.9967L42.39 56.9727C42.39 56.9727 41.334 55.6993 40.83 55.2713C40.83 55.2713 40.2206 25.0833 56.9326 19.3673L54.2486 34.9967Z" fill="#351F17"/>
<path d="M118.804 117.395L94.159 110.95L72.1417 141.211L50.3604 110.888L25.4791 117.395C25.4791 117.395 10.0457 123.112 8.33105 141.211H72.1417H135.951C134.236 123.112 118.804 117.395 118.804 117.395Z" fill="#393536"/>
<path d="M69.2187 126.05L63.084 141.211H80.5173L74.5373 126.05H69.2187Z" fill="#BE1A2C"/>
<path d="M71.7394 108.986L63.9287 119.464L69.358 126.094L72.0154 126.051L74.6754 126.007L79.8861 119.204L71.7394 108.986Z" fill="#BF1B2C"/>
<path d="M69.358 126.094L63.9287 119.464L71.4167 109.42C70.5381 111.732 68.9607 113.767 68.3727 116.211C67.7701 118.719 68.9701 121.186 71.5767 121.759C71.8421 121.818 72.0994 121.844 72.3501 121.844C74.4807 121.844 76.0647 119.858 76.958 118.09C77.2287 117.555 77.4661 117.002 77.6807 116.439L79.8861 119.204L74.6754 126.007L69.358 126.094Z" fill="#9F1523"/>
<path d="M72.1419 141.211L50.3606 110.888L32.9473 115.442L55.2019 131.11L49.4846 133.631L59.7726 141.211H72.1419Z" fill="#302D2E"/>
<path d="M72.1416 141.254L93.9216 110.931L111.335 115.485L89.0816 131.153L94.7976 133.674L84.5083 141.254H72.1416Z" fill="#302D2E"/>
<path d="M45.6738 109.323L58.7352 103.197L72.0498 108.758L85.3658 103.197L99.3218 109.323L79.5898 122.535L72.0498 111.736L63.9285 122.535L45.6738 109.323Z" fill="#E5E4E4"/>
</g>
</svg>
