<svg width="64" height="54" viewBox="0 0 64 54" fill="none" xmlns="http://www.w3.org/2000/svg">
<path id="Vector" d="M16 6.75C16 3.02695 18.87 0 22.4 0H57.6C61.13 0 64 3.02695 64 6.75V37.125C64 40.848 61.13 43.875 57.6 43.875H33.68C32.5 41.1855 30.69 38.8652 28.44 37.125H38.4V33.75C38.4 31.8832 39.83 30.375 41.6 30.375H48C49.77 30.375 51.2 31.8832 51.2 33.75V37.125H57.6V6.75H22.4V11.9285C20.52 10.7789 18.33 10.125 16 10.125V6.75ZM16 13.5C17.2607 13.5 18.509 13.7619 19.6738 14.2707C20.8385 14.7795 21.8968 15.5254 22.7882 16.4655C23.6797 17.4057 24.3868 18.5219 24.8692 19.7503C25.3517 20.9788 25.6 22.2954 25.6 23.625C25.6 24.9546 25.3517 26.2712 24.8692 27.4997C24.3868 28.7281 23.6797 29.8443 22.7882 30.7845C21.8968 31.7247 20.8385 32.4705 19.6738 32.9793C18.509 33.4881 17.2607 33.75 16 33.75C14.7393 33.75 13.491 33.4881 12.3262 32.9793C11.1615 32.4705 10.1032 31.7247 9.21177 30.7845C8.32033 29.8443 7.6132 28.7281 7.13076 27.4997C6.64831 26.2712 6.4 24.9546 6.4 23.625C6.4 22.2954 6.64831 20.9788 7.13076 19.7503C7.6132 18.5219 8.32033 17.4057 9.21177 16.4655C10.1032 15.5254 11.1615 14.7795 12.3262 14.2707C13.491 13.7619 14.7393 13.5 16 13.5ZM13.33 37.125H18.66C26.03 37.125 32 43.4215 32 51.184C32 52.7344 30.81 54 29.33 54H2.67C1.19 54 0 52.7449 0 51.184C0 43.4215 5.97 37.125 13.33 37.125Z" fill="#E67817"/>
</svg>
