<svg width="25" height="25" viewBox="0 0 25 25" fill="none" xmlns="http://www.w3.org/2000/svg">
<path d="M12.5002 2.0835C10.4399 2.0835 8.42599 2.69442 6.71298 3.83902C4.99997 4.98362 3.66484 6.61048 2.87642 8.51388C2.08801 10.4173 1.88172 12.5117 2.28365 14.5324C2.68558 16.553 3.67768 18.4091 5.13447 19.8659C6.59127 21.3227 8.44734 22.3147 10.468 22.7167C12.4886 23.1186 14.5831 22.9123 16.4865 22.1239C18.3899 21.3355 20.0167 20.0004 21.1613 18.2874C22.3059 16.5743 22.9168 14.5604 22.9168 12.5002C22.9168 11.1322 22.6474 9.77768 22.1239 8.51388C21.6004 7.25007 20.8331 6.10174 19.8659 5.13447C18.8986 4.16719 17.7503 3.3999 16.4865 2.87642C15.2226 2.35293 13.8681 2.0835 12.5002 2.0835ZM12.5002 20.8335C10.852 20.8335 9.24083 20.3448 7.87042 19.4291C6.50001 18.5134 5.4319 17.2119 4.80117 15.6892C4.17044 14.1665 4.00541 12.4909 4.32696 10.8744C4.6485 9.2579 5.44217 7.77304 6.60761 6.60761C7.77305 5.44217 9.25791 4.6485 10.8744 4.32695C12.4909 4.00541 14.1665 4.17044 15.6892 4.80117C17.2119 5.4319 18.5134 6.5 19.4291 7.87041C20.3448 9.24082 20.8335 10.852 20.8335 12.5002C20.8335 14.7103 19.9555 16.8299 18.3927 18.3927C16.8299 19.9555 14.7103 20.8335 12.5002 20.8335Z" fill="#797777"/>
</svg>
