<svg width="32" height="32" viewBox="0 0 32 32" fill="none" xmlns="http://www.w3.org/2000/svg">
<g id="faSquareTwitter">
<path id="Vector" d="M6 2C3.79375 2 2 3.79375 2 6V26C2 28.2062 3.79375 30 6 30H26C28.2062 30 30 28.2062 30 26V6C30 3.79375 28.2062 2 26 2H6ZM23.9562 12.4563C23.9562 17.875 19.8312 24.1187 12.2937 24.1187C9.96875 24.1187 7.8125 23.4438 6 22.2812C6.33125 22.3188 6.65 22.3312 6.9875 22.3312C8.90625 22.3312 10.6687 21.6812 12.075 20.5812C10.275 20.5437 8.7625 19.3625 8.24375 17.7375C8.875 17.8312 9.44375 17.8313 10.0938 17.6625C8.21875 17.2812 6.8125 15.6312 6.8125 13.6375V13.5875C7.35625 13.8937 7.99375 14.0813 8.6625 14.1062C8.1 13.7312 7.6375 13.225 7.31875 12.6313C7 12.0375 6.83125 11.3688 6.8375 10.6938C6.8375 9.93125 7.0375 9.23125 7.39375 8.625C9.4125 11.1125 12.4438 12.7375 15.8438 12.9125C15.2625 10.1313 17.3438 7.875 19.8438 7.875C21.025 7.875 22.0875 8.36875 22.8375 9.16875C23.7625 8.99375 24.65 8.65 25.4375 8.18125C25.1313 9.13125 24.4875 9.93125 23.6375 10.4375C24.4625 10.35 25.2625 10.1188 26 9.8C25.4438 10.6188 24.7437 11.3438 23.9438 11.925C23.9563 12.1 23.9562 12.2812 23.9562 12.4563Z" fill="black"/>
</g>
</svg>
