<svg width="32" height="32" viewBox="0 0 32 32" fill="none" xmlns="http://www.w3.org/2000/svg">
<g id="faYoutubeSquare">
<path id="Vector" d="M13.675 12.6313L19.625 16.0125L13.675 19.3937V12.6313ZM30 5V27C30 28.6562 28.6562 30 27 30H5C3.34375 30 2 28.6562 2 27V5C2 3.34375 3.34375 2 5 2H27C28.6562 2 30 3.34375 30 5ZM27.375 16.0187C27.375 16.0187 27.375 12.2938 26.9 10.5063C26.6375 9.51875 25.8688 8.74375 24.8875 8.48125C23.1188 8 16 8 16 8C16 8 8.88125 8 7.1125 8.48125C6.13125 8.74375 5.3625 9.51875 5.1 10.5063C4.625 12.2875 4.625 16.0187 4.625 16.0187C4.625 16.0187 4.625 19.7437 5.1 21.5312C5.3625 22.5187 6.13125 23.2625 7.1125 23.525C8.88125 24 16 24 16 24C16 24 23.1188 24 24.8875 23.5187C25.8688 23.2562 26.6375 22.5125 26.9 21.525C27.375 19.7437 27.375 16.0187 27.375 16.0187Z" fill="black"/>
</g>
</svg>
