<svg width="164" height="164" viewBox="0 0 164 164" fill="none" xmlns="http://www.w3.org/2000/svg">
<circle cx="82" cy="82" r="81" fill="white" stroke="#E67817" stroke-width="2"/>
<circle cx="142" cy="137" r="16" fill="white" stroke="#E67817" stroke-width="2"/>
<path d="M137.824 128.531L137.418 129.75H134.5C133.121 129.75 132 130.871 132 132.25V142.25C132 143.629 133.121 144.75 134.5 144.75H149.5C150.879 144.75 152 143.629 152 142.25V132.25C152 130.871 150.879 129.75 149.5 129.75H146.582L146.176 128.531C145.922 127.766 145.207 127.25 144.398 127.25H139.602C138.793 127.25 138.078 127.766 137.824 128.531ZM142 133.5C142.995 133.5 143.948 133.895 144.652 134.598C145.355 135.302 145.75 136.255 145.75 137.25C145.75 138.245 145.355 139.198 144.652 139.902C143.948 140.605 142.995 141 142 141C141.005 141 140.052 140.605 139.348 139.902C138.645 139.198 138.25 138.245 138.25 137.25C138.25 136.255 138.645 135.302 139.348 134.598C140.052 133.895 141.005 133.5 142 133.5Z" fill="#E67817"/>
</svg>
